<svg width="26" height="28" viewBox="0 0 26 28" fill="none" xmlns="http://www.w3.org/2000/svg">
<path d="M0 15.2299H11.0763V1C11.0763 0.447716 10.6286 0 10.0763 0H0.999999C0.447715 0 0 0.447715 0 1V15.2299ZM1.62102 12.2654H2.16128V9.00193H1.62102V8.18619H2.97179V13.0815H1.62102V12.2654Z" fill="url(#paint0_linear_490_2017)"/>
<path d="M0 26.6994C0 27.2516 0.447715 27.6994 1 27.6994H10.0763C10.6286 27.6994 11.0763 27.2516 11.0763 26.6994V16.623H0V26.6994ZM1.62102 21.4512H2.16128V18.3272H1.62102V17.4751H2.97179V22.3032H1.62102V21.4512Z" fill="url(#paint1_linear_490_2017)"/>
<path d="M13.4121 11.0156C12.8598 11.0156 12.4121 11.4633 12.4121 12.0156V14.9714H25.6924V12.0156C25.6924 11.4633 25.2447 11.0156 24.6924 11.0156H13.4121ZM15.2377 13.9824C15.2377 14.2165 15.0479 14.4063 14.8138 14.4063V14.4063C14.5797 14.4063 14.39 14.2165 14.39 13.9824V13.9824C14.39 13.7483 14.5797 13.5586 14.8138 13.5586V13.5586C15.0479 13.5586 15.2377 13.7483 15.2377 13.9824V13.9824ZM15.2377 12.8523C15.2377 13.0864 15.0479 13.2761 14.8138 13.2761V13.2761C14.5797 13.2761 14.39 13.0864 14.39 12.8523V12.8523C14.39 12.6182 14.5797 12.4284 14.8138 12.4284V12.4284C15.0479 12.4284 15.2377 12.6182 15.2377 12.8523V12.8523ZM16.3678 13.9824C16.3678 14.2165 16.1781 14.4063 15.944 14.4063V14.4063C15.7099 14.4063 15.5201 14.2165 15.5201 13.9824V13.9824C15.5201 13.7483 15.7099 13.5586 15.944 13.5586V13.5586C16.1781 13.5586 16.3678 13.7483 16.3678 13.9824V13.9824ZM16.3678 12.8523C16.3678 13.0864 16.1781 13.2761 15.944 13.2761V13.2761C15.7099 13.2761 15.5201 13.0864 15.5201 12.8523V12.8523C15.5201 12.6182 15.7099 12.4284 15.944 12.4284V12.4284C16.1781 12.4284 16.3678 12.6182 16.3678 12.8523V12.8523ZM21.1713 13.4174C21.1713 13.9635 20.7285 14.4063 20.1824 14.4063H17.9218C17.3757 14.4063 16.9329 13.9635 16.9329 13.4174V13.4174C16.9329 12.8712 17.3757 12.4284 17.9218 12.4284H20.1824C20.7285 12.4284 21.1713 12.8712 21.1713 13.4174V13.4174ZM22.5841 13.9824C22.5841 14.2165 22.3943 14.4063 22.1602 14.4063V14.4063C21.9261 14.4063 21.7364 14.2165 21.7364 13.9824V13.9824C21.7364 13.7483 21.9261 13.5586 22.1602 13.5586V13.5586C22.3943 13.5586 22.5841 13.7483 22.5841 13.9824V13.9824ZM22.5841 12.8523C22.5841 13.0864 22.3943 13.2761 22.1602 13.2761V13.2761C21.9261 13.2761 21.7364 13.0864 21.7364 12.8523V12.8523C21.7364 12.6182 21.9261 12.4284 22.1602 12.4284V12.4284C22.3943 12.4284 22.5841 12.6182 22.5841 12.8523V12.8523ZM23.7143 13.9825C23.7143 14.2166 23.5245 14.4063 23.2905 14.4063V14.4063C23.0563 14.4063 22.8665 14.2165 22.8666 13.9823V13.9823C22.8666 13.7483 23.0564 13.5586 23.2905 13.5586V13.5586C23.5246 13.5586 23.7144 13.7484 23.7143 13.9825V13.9825ZM23.7143 12.8524C23.7143 13.0864 23.5245 13.2761 23.2905 13.2761V13.2761C23.0563 13.2761 22.8665 13.0863 22.8666 12.8522V12.8522C22.8666 12.6181 23.0564 12.4284 23.2905 12.4284V12.4284C23.5246 12.4284 23.7144 12.6183 23.7143 12.8524V12.8524Z" fill="url(#paint2_linear_490_2017)"/>
<path d="M17.8027 13.2891H20.3457V13.5717H17.8027V13.2891Z" fill="url(#paint3_linear_490_2017)"/>
<path d="M19.0621 24.4386C20.0987 24.4372 21.0721 23.9405 21.6816 23.1021C21.4825 23.0569 21.2917 22.9806 21.1163 22.876C20.6486 23.4391 19.9692 23.7838 19.2385 23.829C18.5079 23.8739 17.791 23.6151 17.2579 23.1135C16.7246 22.6121 16.4222 21.9126 16.4222 21.1807C16.4222 20.4487 16.7246 19.7492 17.2579 19.2478C17.791 18.7464 18.5079 18.4874 19.2385 18.5325C19.9692 18.5774 20.6486 18.9222 21.1163 19.4853C21.2917 19.3806 21.4825 19.3043 21.6816 19.2592C21.0112 18.3545 19.9201 17.8618 18.7982 17.957C17.6763 18.0521 16.6838 18.7219 16.1756 19.7267C15.6675 20.7315 15.7162 21.9279 16.3043 22.8879C16.8926 23.848 17.9363 24.4347 19.0621 24.4385L19.0621 24.4386Z" fill="url(#paint4_linear_490_2017)"/>
<path d="M12.4121 26.6858C12.4121 27.2381 12.8598 27.6858 13.4121 27.6858H24.6924C25.2447 27.6858 25.6924 27.2381 25.6924 26.6858V15.8184H12.4121V26.6858ZM19.0522 17.0899C20.4713 17.0847 21.7915 17.8158 22.5403 19.0212C23.2889 20.2267 23.3591 21.7341 22.7256 23.004V23.0322H22.7001C22.2596 23.903 21.5227 24.5879 20.6219 24.9633C19.7212 25.3388 18.7158 25.3802 17.7872 25.08C16.8587 24.7798 16.0678 24.158 15.5573 23.3262C15.0468 22.4945 14.8501 21.5078 15.0027 20.544C15.1552 19.5801 15.6472 18.7025 16.3896 18.069C17.1321 17.4357 18.0764 17.0887 19.0522 17.0899Z" fill="url(#paint5_linear_490_2017)"/>
<path d="M19.0796 19.3829C18.4569 19.3807 17.8771 19.6994 17.5454 20.2263C17.2135 20.7531 17.1766 21.4138 17.4476 21.9745C17.7188 22.535 18.2595 22.9162 18.8785 22.9834C19.4976 23.0504 20.1074 22.794 20.4923 22.3044C20.2641 21.9776 20.1417 21.5885 20.1417 21.1898C20.1417 20.7911 20.2641 20.402 20.4923 20.075C20.1517 19.6408 19.6315 19.386 19.0796 19.3829Z" fill="url(#paint6_linear_490_2017)"/>
<path d="M20.9922 21.1889C20.9922 21.4833 21.1093 21.7658 21.3174 21.9739C21.5257 22.1823 21.8082 22.2993 22.1026 22.2993H22.128C22.3927 21.5845 22.3927 20.7987 22.128 20.084H22.1026C21.8091 20.084 21.5275 20.2003 21.3194 20.4072C21.1114 20.6144 20.9938 20.8952 20.9922 21.1889Z" fill="url(#paint7_linear_490_2017)"/>
<defs>
<linearGradient id="paint0_linear_490_2017" x1="-2.01388" y1="-3.46135" x2="11.1089" y2="14.367" gradientUnits="userSpaceOnUse">
<stop stop-color="#005982"/>
<stop offset="1" stop-color="#039999"/>
</linearGradient>
<linearGradient id="paint1_linear_490_2017" x1="-2.01388" y1="14.1057" x2="6.30401" y2="29.6439" gradientUnits="userSpaceOnUse">
<stop stop-color="#005982"/>
<stop offset="1" stop-color="#039999"/>
</linearGradient>
<linearGradient id="paint2_linear_490_2017" x1="9.99751" y1="10.1166" x2="11.1077" y2="17.079" gradientUnits="userSpaceOnUse">
<stop stop-color="#005982"/>
<stop offset="1" stop-color="#039999"/>
</linearGradient>
<linearGradient id="paint3_linear_490_2017" x1="17.3404" y1="13.2248" x2="17.3706" y2="13.7331" gradientUnits="userSpaceOnUse">
<stop stop-color="#005982"/>
<stop offset="1" stop-color="#039999"/>
</linearGradient>
<linearGradient id="paint4_linear_490_2017" x1="14.7616" y1="16.4696" x2="19.9057" y2="25.1351" gradientUnits="userSpaceOnUse">
<stop stop-color="#005982"/>
<stop offset="1" stop-color="#039999"/>
</linearGradient>
<linearGradient id="paint5_linear_490_2017" x1="9.99751" y1="13.1212" x2="18.3356" y2="30.5514" gradientUnits="userSpaceOnUse">
<stop stop-color="#005982"/>
<stop offset="1" stop-color="#039999"/>
</linearGradient>
<linearGradient id="paint6_linear_490_2017" x1="16.6813" y1="18.5621" x2="19.5554" y2="23.3567" gradientUnits="userSpaceOnUse">
<stop stop-color="#005982"/>
<stop offset="1" stop-color="#039999"/>
</linearGradient>
<linearGradient id="paint7_linear_490_2017" x1="20.7496" y1="19.5805" x2="22.7349" y2="21.8144" gradientUnits="userSpaceOnUse">
<stop stop-color="#005982"/>
<stop offset="1" stop-color="#039999"/>
</linearGradient>
</defs>
</svg>
