<svg width="34" height="30" viewBox="0 0 34 30" fill="none" xmlns="http://www.w3.org/2000/svg">
<path d="M21.5201 12.2188C21.1365 12.2188 20.8256 12.5297 20.8256 12.9132V13.2064C20.8256 13.7518 20.3835 14.194 19.838 14.194H13.48C12.9346 14.194 12.4924 13.7518 12.4924 13.2064V12.9132C12.4924 12.5297 12.1815 12.2188 11.798 12.2188V12.2188C11.4144 12.2188 11.1035 12.5297 11.1035 12.9132V29.3439C11.1035 29.7041 11.3956 29.9962 11.7558 29.9962H12.4996C12.5032 29.9962 12.5058 29.993 12.5054 29.9895V29.9895C12.5051 29.9864 12.5025 29.984 12.4993 29.984L12.4988 29.984C12.4953 29.984 12.4924 29.9812 12.4924 29.9776V28.991C12.4924 28.4486 12.9321 28.0088 13.4746 28.0088H19.8256C20.3779 28.0088 20.8256 28.4565 20.8256 29.0088V29.9841H20.8162C20.8127 29.9841 20.8099 29.9871 20.8101 29.9906V29.9906C20.8104 29.9938 20.8131 29.9963 20.8164 29.9963L21.4956 29.9963C21.8926 29.9962 22.2145 29.6743 22.2145 29.2773V12.9132C22.2145 12.5297 21.9036 12.2188 21.5201 12.2188V12.2188ZM20.8256 25.0489C20.8256 25.5943 20.3835 26.0365 19.838 26.0365H13.48C12.9346 26.0365 12.4924 25.5943 12.4924 25.0489V25.0489C12.4924 24.5034 12.9346 24.0612 13.48 24.0612H19.838C20.3835 24.0612 20.8256 24.5034 20.8256 25.0489V25.0489ZM20.8256 21.1015C20.8256 21.6469 20.3835 22.0891 19.838 22.0891H13.48C12.9346 22.0891 12.4924 21.6469 12.4924 21.1015V21.1015C12.4924 20.556 12.9346 20.1138 13.48 20.1138H19.838C20.3835 20.1138 20.8256 20.556 20.8256 21.1015V21.1015ZM20.8256 17.1538C20.8256 17.6992 20.3835 18.1414 19.838 18.1414H13.48C12.9346 18.1414 12.4924 17.6992 12.4924 17.1538V17.1538C12.4924 16.6083 12.9346 16.1661 13.48 16.1661H19.838C20.3835 16.1661 20.8256 16.6083 20.8256 17.1538V17.1538Z" fill="url(#paint0_linear_490_2026)"/>
<path fill-rule="evenodd" clip-rule="evenodd" d="M4.71722 29.633V12.3136C4.71722 12.1106 4.51503 11.9453 4.26584 11.9453C4.01664 11.9453 3.81445 12.1103 3.81445 12.3136V29.633C3.81445 29.836 4.01664 30.0007 4.26584 30.0007C4.51503 30.0007 4.71722 29.836 4.71722 29.633Z" fill="url(#paint1_linear_490_2026)"/>
<path fill-rule="evenodd" clip-rule="evenodd" d="M29.0922 29.633V12.3136C29.0922 12.1106 28.89 11.9453 28.6408 11.9453C28.3916 11.9453 28.1895 12.1103 28.1895 12.3136V29.633C28.1895 29.836 28.3916 30.0007 28.6408 30.0007C28.89 30.0007 29.0922 29.836 29.0922 29.633Z" fill="url(#paint2_linear_490_2026)"/>
<path fill-rule="evenodd" clip-rule="evenodd" d="M0.494606 12.5145C0.49488 12.5145 0.495147 12.5144 0.495372 12.5143L16.415 1.34769C16.7596 1.10593 17.2188 1.10593 17.5635 1.34769L33.4834 12.5145C33.6478 12.6293 33.8516 12.5478 33.9388 12.3314C34.0259 12.1157 33.9638 11.8472 33.7997 11.7324L17.1471 0.0517664C17.0481 -0.0172555 16.9296 -0.0172555 16.8311 0.0517664L0.178431 11.7324C0.0146282 11.8472 -0.0477864 12.1157 0.0393836 12.3314C0.126492 12.5477 0.330092 12.6292 0.493835 12.5148C0.49406 12.5146 0.494331 12.5145 0.494606 12.5145V12.5145Z" fill="url(#paint3_linear_490_2026)"/>
<path fill-rule="evenodd" clip-rule="evenodd" d="M3.53695 11.5419C3.37907 11.6535 3.29829 11.892 3.34174 12.1214C3.38519 12.3507 3.54124 12.5114 3.72084 12.5114H30.1233C30.3026 12.5114 30.459 12.3506 30.5024 12.1214C30.5459 11.892 30.4651 11.6535 30.3069 11.5419L17.1061 2.2828C16.991 2.20261 16.8533 2.20261 16.7389 2.2828L3.53695 11.5419Z" fill="url(#paint4_linear_490_2026)"/>
<defs>
<linearGradient id="paint0_linear_490_2026" x1="9.08333" y1="8.17839" x2="24.9356" y2="26.6864" gradientUnits="userSpaceOnUse">
<stop stop-color="#005982"/>
<stop offset="1" stop-color="#039999"/>
</linearGradient>
<linearGradient id="paint1_linear_490_2026" x1="3.65031" y1="7.84182" x2="6.66769" y2="8.12365" gradientUnits="userSpaceOnUse">
<stop stop-color="#005982"/>
<stop offset="1" stop-color="#039999"/>
</linearGradient>
<linearGradient id="paint2_linear_490_2026" x1="28.0253" y1="7.84182" x2="31.0427" y2="8.12365" gradientUnits="userSpaceOnUse">
<stop stop-color="#005982"/>
<stop offset="1" stop-color="#039999"/>
</linearGradient>
<linearGradient id="paint3_linear_490_2026" x1="-6.17785" y1="-2.85603" x2="-1.85687" y2="18.969" gradientUnits="userSpaceOnUse">
<stop stop-color="#005982"/>
<stop offset="1" stop-color="#039999"/>
</linearGradient>
<linearGradient id="paint4_linear_490_2026" x1="-1.61247" y1="-0.115703" x2="2.00156" y2="17.7216" gradientUnits="userSpaceOnUse">
<stop stop-color="#005982"/>
<stop offset="1" stop-color="#039999"/>
</linearGradient>
</defs>
</svg>
