<svg width="25" height="35" viewBox="0 0 25 35" fill="none" xmlns="http://www.w3.org/2000/svg">
<path d="M20.0236 1.14511C20.0447 0.869273 19.9501 0.597344 19.7621 0.394508C19.5744 0.191666 19.3103 0.0761719 19.0337 0.0761719C18.7573 0.0761719 18.4932 0.191673 18.3052 0.394508C18.1175 0.597351 18.0226 0.86928 18.044 1.14511V9.10502H20.0239L20.0236 1.14511Z" fill="url(#paint0_linear_490_2035)"/>
<path d="M23.3502 9.96094H5.78313C5.35398 10.0313 5.03906 10.4021 5.03906 10.837C5.03906 11.2718 5.35401 11.6428 5.78313 11.713H7.29582V15.3748C7.29582 19.7958 10.5605 23.3934 14.5723 23.3934C18.5845 23.3934 21.8434 19.796 21.8434 15.3748V11.713H23.3501C23.7951 11.6616 24.1306 11.2849 24.1306 10.837C24.1306 10.3893 23.7951 10.0125 23.3501 9.96094H23.3502ZM16.5636 19.4159H12.5866C12.4127 19.4329 12.2399 19.3755 12.1106 19.2582C11.9812 19.1409 11.9075 18.9745 11.9075 18.7998C11.9075 18.6252 11.9812 18.4586 12.1106 18.3412C12.2399 18.2239 12.4127 18.1668 12.5866 18.1838H16.5636C16.8809 18.2145 17.1226 18.4812 17.1226 18.7998C17.1226 19.1184 16.8809 19.3849 16.5636 19.4159ZM16.5636 16.6711H12.5866C12.4127 16.688 12.2399 16.6307 12.1106 16.5133C11.9812 16.396 11.9075 16.2297 11.9075 16.055C11.9075 15.8803 11.9812 15.7137 12.1106 15.5964C12.2399 15.4791 12.4127 15.422 12.5866 15.4389H16.5636C16.8809 15.4697 17.1226 15.7364 17.1226 16.055C17.1226 16.3736 16.8809 16.64 16.5636 16.6711Z" fill="url(#paint1_linear_490_2035)"/>
<path d="M11.0776 1.13833C11.1217 0.853625 11.0393 0.563701 10.8518 0.344674C10.6641 0.125933 10.3903 0 10.1023 0C9.81392 0 9.54017 0.125926 9.35274 0.344674C9.16529 0.563675 9.08263 0.853598 9.12696 1.13833V9.09824H11.1009L11.0776 1.13833Z" fill="url(#paint2_linear_490_2035)"/>
<path d="M14.5661 24.4418C13.833 24.441 13.1035 24.3367 12.3995 24.1323L12.0549 24.0272L12.1951 24.3834C12.4796 25.0649 13.0401 25.5934 13.7368 25.8377C13.62 28.4657 12.2125 29.6972 10.77 31.012C9.05286 32.5771 6.68775 32.4423 4.9532 32.4423C4.03053 32.4423 3.08436 32.3781 2.16169 32.3137V32.5007L2.08582 32.3197L0.865136 32.2379H0.783528C0.365335 32.2551 0.0274501 32.5854 0.000819182 33.0031C-0.0189958 33.446 0.323067 33.822 0.766041 33.8439C1.18658 33.8439 1.60715 33.8906 2.03338 33.9258H2.17365C3.07316 33.9842 4.00157 34.0483 4.93599 34.0483C6.96829 34.0483 9.90839 33.9258 12.3995 31.8736C14.2164 30.1504 15.2375 28.7812 15.3486 25.8434C16.0831 25.6147 16.6738 25.0646 16.9546 24.3485L17.0949 23.998L16.727 24.1031C16.0273 24.3216 15.299 24.4355 14.5661 24.4418Z" fill="url(#paint3_linear_490_2035)"/>
<defs>
<linearGradient id="paint0_linear_490_2035" x1="17.68" y1="-1.97584" x2="23.4076" y2="0.377052" gradientUnits="userSpaceOnUse">
<stop stop-color="#005982"/>
<stop offset="1" stop-color="#039999"/>
</linearGradient>
<linearGradient id="paint1_linear_490_2035" x1="1.56787" y1="6.9081" x2="9.56451" y2="28.1396" gradientUnits="userSpaceOnUse">
<stop stop-color="#005982"/>
<stop offset="1" stop-color="#039999"/>
</linearGradient>
<linearGradient id="paint2_linear_490_2035" x1="8.75421" y1="-2.06778" x2="14.4946" y2="0.272514" gradientUnits="userSpaceOnUse">
<stop stop-color="#005982"/>
<stop offset="1" stop-color="#039999"/>
</linearGradient>
<linearGradient id="paint3_linear_490_2035" x1="-3.10816" y1="21.7139" x2="2.08609" y2="38.2183" gradientUnits="userSpaceOnUse">
<stop stop-color="#005982"/>
<stop offset="1" stop-color="#039999"/>
</linearGradient>
</defs>
</svg>
