<svg width="33" height="28" viewBox="0 0 33 28" fill="none" xmlns="http://www.w3.org/2000/svg">
<path d="M32.5025 7.73035L23.3571 1.11015C22.96 0.822659 22.3773 0.822659 21.9804 1.11015L12.835 7.73035C12.2665 8.14206 12.365 8.69361 13.0943 8.82836C13.3156 8.86898 13.5428 8.81879 13.7106 8.69711L22.6634 2.2144C22.6664 2.21225 22.6712 2.21225 22.6742 2.2144L31.6271 8.69711C31.7949 8.81879 32.0221 8.86898 32.2433 8.82836C32.9726 8.69418 33.0712 8.14204 32.5026 7.73075L32.5025 7.73035Z" fill="url(#paint0_linear_490_1986)"/>
<path d="M27.2025 1.09896H27.3022V2.98093C27.3022 2.98308 27.3031 2.98483 27.3052 2.9862L30.6018 5.37125C30.6069 5.37515 30.6151 5.37203 30.6151 5.36597V1.09896H30.7148C31.0276 1.09896 31.3286 0.928854 31.3916 0.66812C31.4778 0.310521 31.1644 0 30.7614 0H27.1566C26.7536 0 26.4402 0.310531 26.5259 0.66792C26.5888 0.928849 26.8898 1.09896 27.2025 1.09896Z" fill="url(#paint1_linear_490_1986)"/>
<path d="M0.311314 13.6411H13.5762V9.68184C12.7288 9.81914 11.7125 9.39924 11.486 8.61429C11.3217 8.06316 11.5784 7.48114 12.169 7.05696L13.8331 5.84961H4.67657C3.81891 5.84961 3.04858 6.30896 2.75078 6.99136L0.0186182 13.2866C-0.0531442 13.4571 0.0906093 13.6409 0.31139 13.6409L0.311314 13.6411Z" fill="url(#paint2_linear_490_1986)"/>
<path d="M31.7978 26.9789H30.7312L30.731 9.03766L30.726 9.03336L22.9816 3.42461C22.8018 3.29336 22.5348 3.29336 22.35 3.42461L14.6056 9.03336V26.9791H13.5785L13.5782 14.4146H1.00118V26.9791H0.328511C0.174445 26.9791 0.0410156 27.0884 0.0410156 27.224V27.7533C0.0410156 27.8845 0.174445 27.9982 0.328511 27.9982H30.7308H31.7974C31.9258 27.9982 32.0285 27.9107 32.0285 27.8056V27.1712C32.0285 27.0665 31.9258 26.979 31.7974 26.979L31.7978 26.9789ZM7.83746 17.0653H10.153C10.4508 17.0653 10.6923 17.271 10.6923 17.529V20.9548H7.83743L7.83746 17.0653ZM7.83746 21.4573H10.6923V25.2419C10.6923 25.5001 10.4509 25.7055 10.1531 25.7055H7.83749L7.83746 21.4573ZM4.21143 17.5292C4.21143 17.271 4.45284 17.0655 4.7557 17.0655H7.24851V20.9552L4.21145 20.955L4.21143 17.5292ZM4.21143 21.4573H7.24849V25.7061H4.75567C4.45258 25.7061 4.2114 25.5005 4.2114 25.2425L4.21143 21.4573ZM19.1966 13.9986H19.8436V10.0307C19.8436 8.70062 21.1068 7.62452 22.6681 7.62452C24.2672 7.62452 25.4926 8.73402 25.4926 10.0307V13.9986H26.0626C26.3143 13.9986 26.5145 14.1693 26.5145 14.3836C26.5145 14.598 26.3141 14.7685 26.0626 14.7685H19.1962C18.9445 14.7685 18.7444 14.5978 18.7444 14.3836C18.7446 14.1693 18.9447 13.9986 19.1965 13.9986H19.1966ZM19.402 26.9786V20.2589C19.402 19.9438 19.7051 19.6901 20.0696 19.6901H25.1898C25.5596 19.6901 25.8574 19.9438 25.8574 20.2589V26.9786H19.402Z" fill="url(#paint3_linear_490_1986)"/>
<defs>
<linearGradient id="paint0_linear_490_1986" x1="8.75963" y1="-0.911759" x2="11.6265" y2="12.8346" gradientUnits="userSpaceOnUse">
<stop stop-color="#005982"/>
<stop offset="1" stop-color="#039999"/>
</linearGradient>
<linearGradient id="paint1_linear_490_1986" x1="25.6219" y1="-1.22113" x2="29.8578" y2="5.98681" gradientUnits="userSpaceOnUse">
<stop stop-color="#005982"/>
<stop offset="1" stop-color="#039999"/>
</linearGradient>
<linearGradient id="paint2_linear_490_1986" x1="-2.5151" y1="4.07882" x2="1.37157" y2="16.9692" gradientUnits="userSpaceOnUse">
<stop stop-color="#005982"/>
<stop offset="1" stop-color="#039999"/>
</linearGradient>
<linearGradient id="paint3_linear_490_1986" x1="-5.77489" y1="-2.2811" x2="9.93288" y2="35.7622" gradientUnits="userSpaceOnUse">
<stop stop-color="#005982"/>
<stop offset="1" stop-color="#039999"/>
</linearGradient>
</defs>
</svg>
