<svg width="31" height="31" viewBox="0 0 31 31" fill="none" xmlns="http://www.w3.org/2000/svg">
<path d="M13.1142 25.8039C13.0718 25.8039 12.987 25.7614 12.9446 25.719C12.0962 25.21 11.4175 24.3616 11.0782 23.4284C10.7812 22.4528 10.8237 21.3924 11.2478 20.5016C11.5023 19.9077 11.8841 19.3987 12.2235 18.8472C12.5204 18.2958 12.7749 17.6595 12.6901 17.0233C12.6901 16.9384 12.6476 16.8112 12.6901 16.7263C12.6901 16.6839 12.7325 16.6415 12.7749 16.6415C12.8597 16.5991 12.9446 16.6839 12.987 16.7263C13.4112 17.2354 13.5384 17.914 13.6233 18.5503C13.8778 18.211 13.9626 17.7868 13.9626 17.405C13.9626 16.5142 13.6657 15.6659 13.1142 14.9448C12.9446 14.7327 12.4356 14.3085 12.8597 14.1812C13.2415 14.054 13.7929 14.3509 14.0899 14.5206C15.1928 15.1568 15.9563 16.2173 16.4653 17.405C16.9319 18.5927 17.1016 19.8653 17.144 21.0954C17.6106 20.6288 17.5258 19.3987 17.5682 18.7624C17.7379 18.4655 17.9924 18.72 18.0772 18.9321C18.5862 20.2046 18.5862 22.071 18.162 23.3436C17.6954 24.6162 16.6774 25.6766 15.3624 26.0584H15.2352C15.1928 26.016 15.1928 26.016 15.2352 25.9735C15.2776 25.4645 15.7018 25.0403 15.7442 24.5313C15.7866 24.0223 15.4473 23.5557 15.1928 23.1315C14.7686 22.4104 14.4716 21.562 14.3444 20.7137C13.9626 21.562 13.8778 22.5377 14.0899 23.4284C14.1323 23.6829 14.2171 23.895 14.2171 24.1496C14.2171 24.4041 14.0475 24.6586 13.7929 24.701C13.5384 24.7434 13.2839 24.4889 13.4112 24.2768C13.2839 24.2768 13.2415 24.4041 13.1991 24.5313C13.1991 24.6586 13.2415 24.7434 13.2839 24.8707C13.3688 25.1252 13.4112 25.3797 13.3688 25.6766C13.3688 25.719 13.3688 25.7614 13.3263 25.8039H13.1142Z" fill="url(#paint0_linear_375_20392)"/>
<path d="M26.7299 4H2.63628C2.29693 4 2 4.25451 2 4.59386V6.33301C2 6.67236 2.25451 6.92687 2.59386 6.92687C2.9332 6.96929 3.23013 7.26622 3.23013 7.60556V24.6578C3.23013 25.4213 3.86641 26.0576 4.62994 26.0576H7.34472V19.3133C7.34472 15.2835 10.5261 11.9747 14.5137 11.8903C16.5922 11.8479 18.501 12.6963 19.8584 14.0536C21.1734 15.3686 22.0217 17.235 22.0217 19.2709V26.0578H24.5668C25.4152 26.0578 26.0939 25.3791 26.0939 24.5308V7.60605C26.0939 7.2667 26.3484 7.01219 26.6878 7.01219C27.0271 7.01219 27.2816 6.75768 27.2816 6.41833V4.59434C27.3664 4.255 27.0695 4.00048 26.7302 4.00048L26.7299 4Z" fill="url(#paint1_linear_375_20392)"/>
<defs>
<linearGradient id="paint0_linear_375_20392" x1="9.50789" y1="11.444" x2="20.0938" y2="24.0377" gradientUnits="userSpaceOnUse">
<stop stop-color="#005982"/>
<stop offset="1" stop-color="#039999"/>
</linearGradient>
<linearGradient id="paint1_linear_375_20392" x1="-2.59932" y1="-1.01314" x2="12.6591" y2="31.6751" gradientUnits="userSpaceOnUse">
<stop stop-color="#005982"/>
<stop offset="1" stop-color="#039999"/>
</linearGradient>
</defs>
</svg>
