<svg width="31" height="30" viewBox="0 0 31 30" fill="none" xmlns="http://www.w3.org/2000/svg">
<path d="M14.9803 13.4825C14.5831 13.4825 14.2018 13.6401 13.921 13.921C13.6401 14.202 13.4824 14.5831 13.4824 14.9804C13.4824 15.3775 13.6401 15.7587 13.921 16.0396C14.2018 16.3205 14.583 16.4783 14.9803 16.4783C15.3776 16.4783 15.7587 16.3205 16.0396 16.0396C16.3204 15.7587 16.4782 15.3775 16.4782 14.9804C16.4782 14.5831 16.3204 14.202 16.0396 13.921C15.7587 13.6401 15.3776 13.4825 14.9803 13.4825ZM15.7294 0.000520161C22.4703 0.000520161 22.6353 5.34819 19.0999 7.11582C17.6167 7.84987 16.9577 9.42275 16.673 10.8157C17.392 11.1154 18.0213 11.5799 18.5004 12.1791C24.0432 9.18298 30.005 10.3664 30.005 15.7293C30.005 22.4702 24.6571 22.6199 22.8891 19.0697C22.1403 17.5867 20.5525 16.9275 19.1592 16.6428C18.8596 17.362 18.3952 17.9763 17.7961 18.4856C20.7772 24.013 19.5936 29.96 14.2307 29.96C7.48981 29.96 7.35495 24.5974 10.8903 22.8293C12.3584 22.0953 13.0175 20.5375 13.3172 19.1594C12.5831 18.8597 11.9389 18.3803 11.4596 17.7811C5.93189 20.7471 0 19.5786 0 14.2308C0 7.4898 5.33283 7.32487 7.10046 10.8754C7.84961 12.3584 9.4225 13.0025 10.8155 13.2871C11.1002 12.5681 11.5796 11.9389 12.1938 11.4596C9.21279 5.93189 10.3966 0.000520161 15.7294 0.000520161Z" fill="url(#paint0_linear_490_2033)"/>
<defs>
<linearGradient id="paint0_linear_490_2033" x1="-5.45546" y1="-6.80909" x2="17.0246" y2="35.2478" gradientUnits="userSpaceOnUse">
<stop stop-color="#005982"/>
<stop offset="1" stop-color="#039999"/>
</linearGradient>
</defs>
</svg>
