<svg width="32" height="27" viewBox="0 0 32 27" fill="none" xmlns="http://www.w3.org/2000/svg">
<path d="M23.9663 13.6167C23.9663 12.691 23.4726 11.8353 22.671 11.3725C21.8689 10.9097 20.8815 10.9097 20.0797 11.3725C19.2781 11.8353 18.784 12.691 18.784 13.6167V16.1697H5.18231V13.6167C5.18231 12.691 4.68811 11.8353 3.88652 11.3725C3.08489 10.9097 2.09751 10.9097 1.2953 11.3725C0.493669 11.8353 0 12.691 0 13.6167V20.5905C0 21.3356 0.295841 22.0503 0.822869 22.5769C1.3494 23.1039 2.06418 23.3998 2.80882 23.3998H2.98883V25.1363C2.98883 25.6141 3.37637 26.0011 3.85368 26.0011C4.33147 26.0011 4.71853 25.6141 4.71853 25.1363V23.3998H19.2826V25.1363C19.2826 25.6141 19.6702 26.0011 20.1475 26.0011C20.6253 26.0011 21.0123 25.6141 21.0123 25.1363V23.3998H21.1581C21.9028 23.3998 22.6175 23.1039 23.144 22.5769C23.671 22.0504 23.9669 21.3356 23.9669 20.5905L23.9663 13.6167Z" fill="url(#paint0_linear_490_2003)"/>
<path d="M6.51383 13.6207V15.0043H17.4316V13.6207C17.4335 12.5787 17.8481 11.5801 18.5846 10.8437C19.3215 10.1072 20.3196 9.69261 21.3616 9.69068H21.4721V7.00631C21.4721 6.08885 21.1077 5.20853 20.4591 4.55989C19.8105 3.91125 18.9302 3.54688 18.0127 3.54688H5.95357C5.03611 3.54688 4.15579 3.91125 3.50716 4.55989C2.85852 5.20853 2.49414 6.08882 2.49414 7.00631V9.69785H2.60466C3.6418 9.70509 4.6336 10.1211 5.36576 10.8552C6.09789 11.5897 6.50996 12.5835 6.51383 13.6207Z" fill="url(#paint1_linear_490_2003)"/>
<path d="M31.4364 4.90736L30.4349 0.446326C30.3681 0.191375 30.1345 0.000222275 29.8674 0.000222275L25.6613 0C25.3942 0 25.1607 0.191158 25.0938 0.446104L24.0923 4.90714C24.0255 5.25767 24.2926 5.57643 24.6598 5.57643H27.0301V23.198H26.2288C25.8283 23.198 25.4944 23.5167 25.4944 23.899C25.4944 24.2813 25.8283 24.6 26.2288 24.6H29.3C29.7005 24.6 30.0344 24.2813 30.0344 23.899C30.0344 23.5167 29.7005 23.198 29.3 23.198H28.4988V5.57643H30.869C31.2363 5.57643 31.5033 5.25768 31.4364 4.90736Z" fill="url(#paint2_linear_490_2003)"/>
<defs>
<linearGradient id="paint0_linear_490_2003" x1="-4.35762" y1="7.62181" x2="3.77357" y2="31.9307" gradientUnits="userSpaceOnUse">
<stop stop-color="#005982"/>
<stop offset="1" stop-color="#039999"/>
</linearGradient>
<linearGradient id="paint1_linear_490_2003" x1="-0.956401" y1="0.942909" x2="5.09465" y2="19.6661" gradientUnits="userSpaceOnUse">
<stop stop-color="#005982"/>
<stop offset="1" stop-color="#039999"/>
</linearGradient>
<linearGradient id="paint2_linear_490_2003" x1="22.743" y1="-5.59092" x2="41.6575" y2="4.98704" gradientUnits="userSpaceOnUse">
<stop stop-color="#005982"/>
<stop offset="1" stop-color="#039999"/>
</linearGradient>
</defs>
</svg>
