<svg width="28" height="30" viewBox="0 0 28 30" fill="none" xmlns="http://www.w3.org/2000/svg">
<path d="M9.60739 21.6974C9.60739 21.3317 9.38329 21.0164 9.06807 20.8792V18.8086H5.79999C4.81732 18.8086 4.01748 18.0088 4.01748 17.0261C4.01748 16.0435 4.81732 15.2436 5.79999 15.2436H9.06807V12.7253C9.06807 12.3872 8.79389 12.1174 8.45553 12.1174C8.1218 12.1174 7.84763 12.3872 7.84763 12.7253V12.7985L1.75513 12.7983V12.7251C1.75513 12.3869 1.48095 12.1172 1.14259 12.1172C0.808859 12.1172 0.534686 12.3869 0.534686 12.7251V20.8791C0.21926 21.0163 0 21.3315 0 21.6973C0 21.8162 0.022936 21.9258 0.0639686 22.031C0.0273548 22.0813 0 22.1453 0 22.2139V23.3565C0 23.5303 0.141614 23.6765 0.319843 23.6765H0.534686V28.6402C0.534686 28.9784 0.808864 29.2481 1.14259 29.2481C1.48074 29.2481 1.75513 28.9784 1.75513 28.6402V26.4325H7.84763V28.6402C7.84763 28.9784 8.1218 29.2481 8.45553 29.2481C8.79368 29.2481 9.06807 28.9784 9.06807 28.6402V23.6765H9.28754C9.46114 23.6765 9.60738 23.5303 9.60738 23.3565V22.2139C9.60738 22.1453 9.58002 22.0813 9.53878 22.031C9.58003 21.9258 9.60738 21.8162 9.60738 21.6973L9.60739 21.6974ZM7.84763 25.3996H1.75513V23.6765H7.84763V25.3996Z" fill="url(#paint0_linear_490_1991)"/>
<path d="M27.7929 21.6973C27.7929 21.3316 27.5691 21.0163 27.2536 20.8791V12.7251C27.2536 12.3869 26.9794 12.1172 26.6411 12.1172C26.3073 12.1172 26.0332 12.3869 26.0332 12.7251V12.7983H19.9407V12.7251C19.9407 12.3869 19.6665 12.1172 19.3281 12.1172C18.9944 12.1172 18.7202 12.3869 18.7202 12.7251V15.2434H21.9243C22.907 15.2434 23.7068 16.0433 23.7068 17.0259C23.7068 18.0086 22.907 18.8084 21.9243 18.8084H18.7202V20.879C18.4048 21.0162 18.1855 21.3314 18.1855 21.6972C18.1855 21.8161 18.2085 21.9257 18.2495 22.0309C18.2129 22.0812 18.1855 22.1452 18.1855 22.2138V23.3564C18.1855 23.5302 18.3272 23.6764 18.5054 23.6764H18.7202V28.6401C18.7202 28.9783 18.9944 29.248 19.3281 29.248C19.6663 29.248 19.9407 28.9782 19.9407 28.6401V26.4324H26.0332V28.6401C26.0332 28.9783 26.3074 29.248 26.6411 29.248C26.9792 29.248 27.2536 28.9782 27.2536 28.6401V23.6764H27.4731C27.6467 23.6764 27.7929 23.5302 27.7929 23.3564V22.2138C27.7929 22.1452 27.7656 22.0812 27.7243 22.0309C27.7656 21.9259 27.7929 21.8163 27.7929 21.6974L27.7929 21.6973ZM26.0332 25.3995H19.9407V23.6764H26.0332V25.3995Z" fill="url(#paint1_linear_490_1991)"/>
<path d="M23.686 5.79569C23.686 6.54984 22.8176 7.1668 21.739 7.1668C20.6467 7.1668 19.7783 6.54963 19.7783 5.79569C19.7783 6.54984 18.9099 7.1668 17.8312 7.1668C16.7389 7.1668 15.8705 6.54963 15.8705 5.79569C15.8705 6.39454 15.3175 6.90166 14.5541 7.08454V15.2477H13.2789V7.08454C12.5111 6.89705 11.9627 6.38991 11.9627 5.79569C11.9627 6.54984 11.0943 7.1668 10.0156 7.1668C8.92333 7.1668 8.05492 6.54963 8.05492 5.79569C8.05492 6.54984 7.18188 7.1668 6.10328 7.1668C5.01099 7.1668 4.14258 6.54963 4.14258 5.79569C5.14356 3.74341 8.81377 1.42164 13.2792 1.22044V0.639901C13.2792 0.287861 13.5626 0 13.9144 0C14.2665 0 14.5543 0.287861 14.5543 0.639901V1.22044C19.0147 1.42602 22.6847 3.74805 23.6861 5.79569H23.686Z" fill="url(#paint2_linear_490_1991)"/>
<path d="M21.9409 16.1582H5.802C5.32203 16.1582 4.93359 16.5469 4.93359 17.0266C4.93359 17.5066 5.32203 17.895 5.802 17.895H11.6661C12.2831 19.0376 12.5208 20.2215 12.7311 21.3687C12.7677 21.5515 12.9276 21.6841 13.1151 21.6841H13.1204V26.665H11.9359C11.579 26.665 11.2899 26.9544 11.2899 27.311C11.2899 27.6664 11.5771 27.9545 11.9321 27.9566H11.0219C10.665 27.9566 10.3759 28.2459 10.3759 28.6026C10.3759 28.9594 10.6652 29.2485 11.0219 29.2485H16.7922C17.1491 29.2485 17.4382 28.9592 17.4382 28.6026C17.4382 28.2457 17.1489 27.9566 16.7922 27.9566H15.882C16.237 27.9545 16.5242 27.6664 16.5242 27.311C16.5242 26.9541 16.2349 26.665 15.8782 26.665H14.6937L14.6935 21.6841H14.7007C14.8882 21.6841 15.0481 21.5515 15.0847 21.364C15.2903 20.2214 15.5327 19.0376 16.1497 17.895H21.9405C22.4205 17.895 22.8089 17.5066 22.8089 17.0266C22.8089 16.5466 22.4205 16.1582 21.9405 16.1582L21.9409 16.1582Z" fill="url(#paint3_linear_490_1991)"/>
<defs>
<linearGradient id="paint0_linear_490_1991" x1="-1.7468" y1="8.22379" x2="13.6957" y2="24.402" gradientUnits="userSpaceOnUse">
<stop stop-color="#005982"/>
<stop offset="1" stop-color="#039999"/>
</linearGradient>
<linearGradient id="paint1_linear_490_1991" x1="16.4387" y1="8.22382" x2="31.8812" y2="24.402" gradientUnits="userSpaceOnUse">
<stop stop-color="#005982"/>
<stop offset="1" stop-color="#039999"/>
</linearGradient>
<linearGradient id="paint2_linear_490_1991" x1="0.589211" y1="-3.46539" x2="10.3758" y2="19.9669" gradientUnits="userSpaceOnUse">
<stop stop-color="#005982"/>
<stop offset="1" stop-color="#039999"/>
</linearGradient>
<linearGradient id="paint3_linear_490_1991" x1="1.68353" y1="13.1831" x2="9.71161" y2="33.6619" gradientUnits="userSpaceOnUse">
<stop stop-color="#005982"/>
<stop offset="1" stop-color="#039999"/>
</linearGradient>
</defs>
</svg>
