<svg width="34" height="20" viewBox="0 0 34 20" fill="none" xmlns="http://www.w3.org/2000/svg">
<path d="M33.3926 19.7651C33.3569 19.7651 33.3569 19.7651 33.3926 19.7651L33.3569 19.7182L19.0816 5.41892L16.6965 2.98151V2.98151C16.1472 2.26023 15.1733 3.35684 14.5741 4.03716L13.357 5.41892V5.41892C12.9695 5.82601 12.2836 5.55177 12.2836 4.98974V0.140931C12.2836 0.0468682 12.2479 0 12.1763 0H7.91871C7.84708 0 7.8114 0.0468674 7.8114 0.140931V10.7196C7.8114 10.9672 7.71957 11.206 7.55369 11.3897L0.0479387 19.7045C0.040053 19.7132 0.0361539 19.7247 0.032996 19.7361C0.0329359 19.7363 0.0328746 19.7365 0.0328118 19.7367C0.025614 19.7616 0 19.7859 0 19.8118V19.8118V19.8586V19.9055C0 19.9524 0.0356877 19.9524 0.0716257 19.9524L5.7245 19.953C5.76018 19.953 5.76019 19.953 5.79612 19.9061L15.5157 9.37627C15.9001 8.95985 16.5533 8.94573 16.9553 9.34513L27.5835 19.9045C27.6161 19.9369 27.6427 19.9796 27.6855 19.9962C27.6916 19.9986 27.6978 20 27.7041 20H33.3213C33.357 20 33.393 20 33.393 19.9531V19.9063V19.8594C33.3927 19.8119 33.3926 19.8119 33.3926 19.7651Z" fill="url(#paint0_linear_490_1984)"/>
<defs>
<linearGradient id="paint0_linear_490_1984" x1="-6.07145" y1="-4.54545" x2="4.42301" y2="28.1865" gradientUnits="userSpaceOnUse">
<stop stop-color="#005982"/>
<stop offset="1" stop-color="#039999"/>
</linearGradient>
</defs>
</svg>
