<svg xmlns="http://www.w3.org/2000/svg" width="31" height="31" viewBox="0 0 31 31" fill="none">
<path d="M15.4997 2.58398C12.945 2.58398 10.4477 3.34153 8.32356 4.76083C6.19943 6.18014 4.54387 8.19744 3.56624 10.5577C2.5886 12.9179 2.33281 15.515 2.8312 18.0206C3.3296 20.5262 4.55979 22.8277 6.36622 24.6341C8.17265 26.4405 10.4742 27.6707 12.9798 28.1691C15.4854 28.6675 18.0825 28.4117 20.4427 27.4341C22.8029 26.4565 24.8202 24.8009 26.2395 22.6768C27.6588 20.5526 28.4163 18.0553 28.4163 15.5006C28.4163 13.8044 28.0822 12.1248 27.4331 10.5577C26.784 8.99053 25.8326 7.56661 24.6331 6.36719C23.4337 5.16776 22.0098 4.21633 20.4427 3.56721C18.8756 2.91808 17.1959 2.58398 15.4997 2.58398ZM15.4997 25.834C13.4559 25.834 11.4581 25.2279 9.75879 24.0925C8.05948 22.9571 6.73503 21.3432 5.95293 19.455C5.17082 17.5669 4.96619 15.4892 5.3649 13.4847C5.76361 11.4802 6.74777 9.63902 8.19291 8.19388C9.63805 6.74874 11.4793 5.76458 13.4837 5.36587C15.4882 4.96716 17.5659 5.17179 19.4541 5.9539C21.3422 6.736 22.9561 8.06045 24.0915 9.75976C25.227 11.4591 25.833 13.4569 25.833 15.5006C25.833 18.2412 24.7443 20.8695 22.8064 22.8074C20.8686 24.7453 18.2403 25.834 15.4997 25.834ZM20.6663 14.209H16.7913V10.334C16.7913 9.99141 16.6553 9.66287 16.413 9.42064C16.1708 9.1784 15.8423 9.04232 15.4997 9.04232C15.1571 9.04232 14.8286 9.1784 14.5863 9.42064C14.3441 9.66287 14.208 9.99141 14.208 10.334V14.209H10.333C9.99044 14.209 9.6619 14.3451 9.41967 14.5873C9.17743 14.8295 9.04135 15.1581 9.04135 15.5006C9.04135 15.8432 9.17743 16.1718 9.41967 16.414C9.6619 16.6562 9.99044 16.7923 10.333 16.7923H14.208V20.6673C14.208 21.0099 14.3441 21.3384 14.5863 21.5807C14.8286 21.8229 15.1571 21.959 15.4997 21.959C15.8423 21.959 16.1708 21.8229 16.413 21.5807C16.6553 21.3384 16.7913 21.0099 16.7913 20.6673V16.7923H20.6663C21.0089 16.7923 21.3375 16.6562 21.5797 16.414C21.8219 16.1718 21.958 15.8432 21.958 15.5006C21.958 15.1581 21.8219 14.8295 21.5797 14.5873C21.3375 14.3451 21.0089 14.209 20.6663 14.209Z" fill="#028391" fill-opacity="0.39"/>
</svg>