<svg xmlns="http://www.w3.org/2000/svg" width="21" height="22" viewBox="0 0 21 22" fill="none">
  <g clip-path="url(#clip0_1348_5420)">
    <path d="M16.625 10.125H11.375V4.875C11.375 4.64294 11.2828 4.42038 11.1187 4.25628C10.9546 4.09219 10.7321 4 10.5 4C10.2679 4 10.0454 4.09219 9.88128 4.25628C9.71719 4.42038 9.625 4.64294 9.625 4.875V10.125H4.375C4.14294 10.125 3.92038 10.2172 3.75628 10.3813C3.59219 10.5454 3.5 10.7679 3.5 11C3.5 11.2321 3.59219 11.4546 3.75628 11.6187C3.92038 11.7828 4.14294 11.875 4.375 11.875H9.625V17.125C9.625 17.3571 9.71719 17.5796 9.88128 17.7437C10.0454 17.9078 10.2679 18 10.5 18C10.7321 18 10.9546 17.9078 11.1187 17.7437C11.2828 17.5796 11.375 17.3571 11.375 17.125V11.875H16.625C16.8571 11.875 17.0796 11.7828 17.2437 11.6187C17.4078 11.4546 17.5 11.2321 17.5 11C17.5 10.7679 17.4078 10.5454 17.2437 10.3813C17.0796 10.2172 16.8571 10.125 16.625 10.125Z" fill="#005982"/>
  </g>
  <defs>
    <clipPath id="clip0_1348_5420">
      <rect width="21" height="21" fill="white" transform="translate(0 0.5)"/>
    </clipPath>
  </defs>
</svg>