<svg xmlns="http://www.w3.org/2000/svg" width="7" height="11" viewBox="0 0 7 11" fill="none">
<path d="M0.728996 0.641198L0.558522 0.458335C0.48498 0.526896 0.426309 0.609833 0.385967 0.701908C0.345628 0.793975 0.324424 0.893324 0.323572 0.993831C0.322719 1.09434 0.342236 1.19403 0.381002 1.28677C0.419639 1.3792 0.476627 1.46288 0.548633 1.53255C0.548878 1.53278 0.549124 1.53302 0.54937 1.53326L4.43863 5.34198L4.43863 5.34198L4.44006 5.34337C4.4629 5.36538 4.48128 5.39206 4.49389 5.42189C4.5065 5.45171 4.51303 5.48395 4.513 5.51661C4.51298 5.54926 4.50639 5.58149 4.49372 5.6113C4.48106 5.64109 4.46264 5.66774 4.43976 5.68972L4.43976 5.68971L4.43832 5.69111L0.57379 9.46302C0.573517 9.46328 0.573244 9.46355 0.572972 9.46381C0.501529 9.5326 0.444779 9.61516 0.405986 9.70643C0.367049 9.79803 0.346971 9.89659 0.346885 9.99612C0.346799 10.0956 0.366708 10.1942 0.405488 10.2859C0.444145 10.3773 0.500795 10.46 0.572176 10.5289C0.868735 10.8181 1.34649 10.8186 1.6431 10.529L5.8691 6.40402C5.86936 6.40378 5.86962 6.40353 5.86987 6.40328C5.98859 6.28897 6.08299 6.15162 6.14753 5.99964C6.2122 5.84734 6.24558 5.68343 6.24572 5.51785C6.24586 5.35226 6.21277 5.18829 6.14836 5.03588C6.08408 4.88379 5.98991 4.74627 5.87138 4.63175L1.62115 0.468223L1.62116 0.468218L1.61977 0.466882C1.47751 0.329647 1.28838 0.251888 1.09066 0.250341C0.892931 0.248793 0.702612 0.323585 0.558236 0.458603L0.728996 0.641198ZM0.728996 0.641198C0.680504 0.686404 0.641688 0.741215 0.614952 0.802237C0.588216 0.863258 0.574129 0.92919 0.573563 0.995951C0.572997 1.06271 0.585964 1.12888 0.611661 1.19035C0.637359 1.25183 0.67524 1.30731 0.722958 1.35335L1.4462 0.646812C1.34973 0.553747 1.22191 0.501376 1.0887 0.500333C0.955491 0.49929 0.826884 0.549655 0.728996 0.641198Z" fill="#005982" stroke="#005982" stroke-width="0.5"/>
</svg>