<svg width="96" height="95" viewBox="0 0 96 95" fill="none" xmlns="http://www.w3.org/2000/svg">
<path d="M33.8286 14.8559C33.7767 15.4259 33.5246 15.9598 33.1161 16.3648C32.7075 16.7698 32.1684 17.0203 31.5926 17.0726C31.009 17.0286 30.4599 16.7821 30.042 16.3765C29.6241 15.971 29.3644 15.4325 29.3086 14.8559C29.3562 14.2726 29.6122 13.7251 30.0308 13.3116C30.4493 12.8982 31.003 12.6458 31.5926 12.5997C32.1744 12.6541 32.7181 12.9105 33.1273 13.3234C33.5365 13.7363 33.7849 14.2792 33.8286 14.8559ZM49.0286 14.8559C49.0041 15.4323 48.7555 15.9769 48.3347 16.3762C47.9139 16.7754 47.3535 16.9983 46.7706 16.9983C46.1877 16.9983 45.6273 16.7754 45.2065 16.3762C44.7857 15.9769 44.5371 15.4323 44.5126 14.8559C44.4998 14.5546 44.5487 14.2538 44.6564 13.9716C44.7641 13.6894 44.9283 13.4318 45.1393 13.214C45.3502 12.9963 45.6035 12.8231 45.8838 12.7047C46.1642 12.5864 46.4658 12.5254 46.7706 12.5254C47.0754 12.5254 47.377 12.5864 47.6574 12.7047C47.9377 12.8231 48.191 12.9963 48.4019 13.214C48.6129 13.4318 48.7771 13.6894 48.8848 13.9716C48.9925 14.2538 49.0414 14.5546 49.0286 14.8559ZM41.4326 14.8559C41.3789 15.4265 41.1252 15.9606 40.7153 16.3655C40.3055 16.7703 39.7653 17.0205 39.1886 17.0726C38.6054 17.0285 38.0568 16.7818 37.6396 16.3762C37.2224 15.9706 36.9635 15.4321 36.9086 14.8559C36.9553 14.2729 37.2105 13.7255 37.6284 13.312C38.0463 12.8984 38.5995 12.6459 39.1886 12.5997C39.7713 12.6539 40.3159 12.9099 40.7265 13.3227C41.137 13.7355 41.3871 14.2785 41.4326 14.8559Z" fill="#005982"/>
<path d="M23.6719 28.6463V12.5833C23.6719 11.5335 24.0933 10.5267 24.8434 9.78437C25.5936 9.04204 26.611 8.625 27.6719 8.625H81.2719C82.3327 8.625 83.3502 9.04204 84.1003 9.78437C84.8504 10.5267 85.2719 11.5335 85.2719 12.5833V61.7498C85.2719 62.2696 85.1684 62.7843 84.9674 63.2646C84.7664 63.7448 84.4717 64.1812 84.1003 64.5488C83.7289 64.9163 83.2879 65.2079 82.8026 65.4068C82.3173 65.6057 81.7972 65.7081 81.2719 65.7081H72.3279M23.6719 21.0463H85.2519" stroke="#005982" stroke-linecap="round" stroke-linejoin="round"/>
<path d="M28.5127 34.8852C28.4569 35.4617 28.1971 36.0002 27.7793 36.4058C27.3614 36.8113 26.8123 37.0578 26.2287 37.1018C25.6543 37.0477 25.117 36.7965 24.7101 36.3917C24.3032 35.9868 24.0522 35.4539 24.0007 34.8852C24.0443 34.3084 24.2928 33.7656 24.702 33.3526C25.1112 32.9397 25.6548 32.6833 26.2367 32.6289C26.8248 32.6768 27.3766 32.93 27.7935 33.3433C28.2104 33.7566 28.4653 34.3031 28.5127 34.8852ZM36.1087 34.8852C36.0545 35.4616 35.7959 36.0006 35.3785 36.4063C34.9612 36.8121 34.4121 37.0585 33.8287 37.1018C33.2293 37.1018 32.6544 36.8662 32.2306 36.4468C31.8068 36.0274 31.5687 35.4585 31.5687 34.8654C31.5687 34.2722 31.8068 33.7034 32.2306 33.2839C32.6544 32.8645 33.2293 32.6289 33.8287 32.6289C34.4181 32.6743 34.9717 32.9266 35.3898 33.3403C35.8078 33.754 36.0628 34.3019 36.1087 34.8852ZM20.9087 34.8852C20.8568 35.4551 20.6047 35.989 20.1962 36.394C19.7876 36.799 19.2485 37.0495 18.6727 37.1018C18.0891 37.0578 17.5399 36.8113 17.1221 36.4058C16.7042 36.0002 16.4445 35.4617 16.3887 34.8852C16.4363 34.3018 16.6923 33.7543 17.1109 33.3409C17.5294 32.9274 18.0831 32.675 18.6727 32.6289C19.2545 32.6833 19.7981 32.9397 20.2074 33.3526C20.6166 33.7656 20.865 34.3084 20.9087 34.8852Z" fill="#005982"/>
<path d="M57.6 85.7375H68.32C69.3809 85.7375 70.3983 85.3205 71.1485 84.5782C71.8986 83.8358 72.32 82.829 72.32 81.7792V32.6048C72.32 31.555 71.8986 30.5482 71.1485 29.8059C70.3983 29.0635 69.3809 28.6465 68.32 28.6465H14.748C13.6872 28.6465 12.6698 29.0635 11.9196 29.8059C11.1695 30.5482 10.748 31.555 10.748 32.6048V81.7792C10.748 82.829 11.1695 83.8358 11.9196 84.5782C12.6698 85.3205 13.6872 85.7375 14.748 85.7375H41.6M10.748 41.0677H72.328" stroke="#005982" stroke-linecap="round" stroke-linejoin="round"/>
<path d="M41.104 51.1855H18.916V62.6251H37.216" stroke="#005982" stroke-linecap="round" stroke-linejoin="round"/>
<path d="M41.104 51.1855H63.296V62.6251H37.216M18.916 73.8826H63.296" stroke="#005982" stroke-linecap="round" stroke-linejoin="round"/>
<path d="M52.2672 85.749C52.2405 86.4289 51.9488 87.0722 51.4533 87.544C50.9577 88.0157 50.2968 88.2792 49.6092 88.2792C48.9216 88.2792 48.2606 88.0157 47.7651 87.544C47.2695 87.0722 46.9778 86.4289 46.9512 85.749C46.9778 85.069 47.2695 84.4257 47.7651 83.954C48.2606 83.4823 48.9216 83.2188 49.6092 83.2188C50.2968 83.2188 50.9577 83.4823 51.4533 83.954C51.9488 84.4257 52.2405 85.069 52.2672 85.749Z" fill="#4BADAD"/>
</svg>
