<svg width="20" height="20" viewBox="0 0 20 20" fill="none" xmlns="http://www.w3.org/2000/svg">
<g id="Checklist" clip-path="url(#clip0_6170_19156)">
<path id="Vector" d="M14.7647 10.1178C12.1765 10.1178 10.1177 12.1766 10.1177 14.7649C10.1177 17.3531 12.1765 19.4119 14.7647 19.4119C17.2941 19.4119 19.4118 17.3531 19.4118 14.7649C19.353 12.1766 17.2941 10.1178 14.7647 10.1178ZM16.8824 13.9413L14.5294 16.2943C14.4118 16.4119 14.2353 16.4707 14.1177 16.4707C14 16.4707 13.8236 16.4119 13.7059 16.2943L12.5294 15.1178C12.2941 14.8825 12.2941 14.5296 12.5294 14.2943C12.7647 14.059 13.1177 14.059 13.353 14.2943L14.1177 15.059L16.0589 13.1178C16.2941 12.8825 16.6471 12.8825 16.8824 13.1178C17.1177 13.3531 17.1177 13.706 16.8824 13.9413Z" fill="#005982"/>
<path id="Vector_2" d="M12.4117 0.588379H2.41168C1.41168 0.588379 0.646973 1.41191 0.646973 2.35308V16.4707C0.646973 17.4707 1.41168 18.2354 2.41168 18.2354H10.0587C9.35286 17.2943 8.88227 16.059 8.88227 14.7648C8.88227 14.5296 8.88227 14.3531 8.94109 14.1178H3.58815C3.23521 14.1178 2.99991 13.8825 2.99991 13.5296C2.99991 13.2354 3.23521 12.9413 3.58815 12.9413H9.23521C9.35285 12.5296 9.52933 12.1178 9.76462 11.7648H3.58815C3.23521 11.7648 2.99991 11.5296 2.99991 11.1766C2.99991 10.8825 3.23521 10.5884 3.58815 10.5884H10.7058C11.647 9.70603 12.8234 9.11779 14.1764 8.94132V2.35308C14.1764 1.41191 13.3529 0.588379 12.4117 0.588379ZM3.58815 3.52956H8.29403C8.58815 3.52956 8.88227 3.82367 8.88227 4.11779C8.88227 4.47073 8.58815 4.70603 8.29403 4.70603H3.58815C3.23521 4.70603 2.99991 4.47073 2.99991 4.11779C2.99991 3.82367 3.23521 3.52956 3.58815 3.52956ZM11.2352 9.41191H3.58815C3.23521 9.41191 2.99991 9.17661 2.99991 8.82367C2.99991 8.52955 3.23521 8.23544 3.58815 8.23544H11.2352C11.5293 8.23544 11.8234 8.52955 11.8234 8.82367C11.8234 9.17661 11.5293 9.41191 11.2352 9.41191ZM11.2352 7.05897H3.58815C3.23521 7.05897 2.99991 6.82367 2.99991 6.47073C2.99991 6.17661 3.23521 5.8825 3.58815 5.8825H11.2352C11.5293 5.8825 11.8234 6.17661 11.8234 6.47073C11.8234 6.82367 11.5293 7.05897 11.2352 7.05897Z" fill="#005982"/>
</g>
<defs>
<clipPath id="clip0_6170_19156">
<rect width="20" height="20" fill="white"/>
</clipPath>
</defs>
</svg>
