<svg xmlns="http://www.w3.org/2000/svg" width="25" height="25" viewBox="0 0 25 25" fill="none">
<path d="M12.5 0C10.0277 0 7.61099 0.733112 5.55538 2.10663C3.49976 3.48015 1.89761 5.43238 0.951511 7.71645C0.00541605 10.0005 -0.242126 12.5139 0.24019 14.9386C0.722505 17.3634 1.91301 19.5907 3.66117 21.3388C5.40933 23.087 7.63661 24.2775 10.0614 24.7598C12.4861 25.2421 14.9995 24.9946 17.2835 24.0485C19.5676 23.1024 21.5199 21.5002 22.8934 19.4446C24.2669 17.389 25 14.9723 25 12.5C24.9963 9.18592 23.6782 6.00864 21.3348 3.66524C18.9914 1.32183 15.8141 0.00368572 12.5 0ZM12.5 22.5C10.5222 22.5 8.58879 21.9135 6.9443 20.8147C5.29981 19.7159 4.01809 18.1541 3.26121 16.3268C2.50433 14.4996 2.3063 12.4889 2.69215 10.5491C3.078 8.60928 4.03041 6.82746 5.42894 5.42893C6.82746 4.03041 8.60929 3.078 10.5491 2.69215C12.4889 2.30629 14.4996 2.50433 16.3268 3.2612C18.1541 4.01808 19.7159 5.2998 20.8147 6.9443C21.9135 8.58879 22.5 10.5222 22.5 12.5C22.497 15.1512 21.4424 17.693 19.5677 19.5677C17.693 21.4424 15.1512 22.497 12.5 22.5ZM12.5 11.875C12.1685 11.875 11.8505 12.0067 11.6161 12.2411C11.3817 12.4755 11.25 12.7935 11.25 13.125V16.875C11.25 17.2065 11.3817 17.5245 11.6161 17.7589C11.8505 17.9933 12.1685 18.125 12.5 18.125C12.8315 18.125 13.1495 17.9933 13.3839 17.7589C13.6183 17.5245 13.75 17.2065 13.75 16.875V13.125C13.75 12.7935 13.6183 12.4755 13.3839 12.2411C13.1495 12.0067 12.8315 11.875 12.5 11.875ZM12.5 6.875C12.191 6.875 11.8889 6.96664 11.6319 7.13833C11.375 7.31002 11.1747 7.55405 11.0564 7.83955C10.9382 8.12506 10.9072 8.43923 10.9675 8.74233C11.0278 9.04542 11.1766 9.32383 11.3951 9.54235C11.6137 9.76087 11.8921 9.90969 12.1952 9.96997C12.4983 10.0303 12.8124 9.99932 13.0979 9.88106C13.3835 9.7628 13.6275 9.56253 13.7992 9.30558C13.9709 9.04862 14.0625 8.74653 14.0625 8.4375C14.0625 8.0231 13.8979 7.62567 13.6049 7.33264C13.3118 7.03962 12.9144 6.875 12.5 6.875Z" fill="#29A352"/>
</svg>