<svg width="10" height="10" viewBox="0 0 10 10" fill="none" xmlns="http://www.w3.org/2000/svg">
<path d="M5.2761 9.578C3.9641 9.578 2.8721 9.15 2.0001 8.294C1.1361 7.43 0.704102 6.338 0.704102 5.018C0.704102 3.69 1.1521 2.594 2.0481 1.73C2.9441 0.857997 4.0401 0.421997 5.3361 0.421997C6.0641 0.421997 6.7521 0.565997 7.4001 0.853997C8.0561 1.134 8.5881 1.514 8.9961 1.994L8.0481 2.93C7.3441 2.154 6.4441 1.766 5.3481 1.766C4.4281 1.766 3.6601 2.074 3.0441 2.69C2.4281 3.306 2.1201 4.082 2.1201 5.018C2.1201 5.954 2.4241 6.726 3.0321 7.334C3.6401 7.942 4.4001 8.246 5.3121 8.246C5.8161 8.246 6.3081 8.146 6.7881 7.946C7.2681 7.738 7.6761 7.454 8.0121 7.094V5.51H5.2161V4.262H9.2961V7.742C8.1921 8.966 6.8521 9.578 5.2761 9.578Z" fill="#005982"/>
</svg>
