<svg xmlns="http://www.w3.org/2000/svg" width="29" height="29" viewBox="0 0 29 29" fill="none">
<path d="M24.7532 4.24717C19.0902 -1.41572 9.91021 -1.41572 4.24723 4.24717C-1.41574 9.91006 -1.41574 19.0899 4.24723 24.7528C9.91021 30.4157 19.0902 30.4157 24.7532 24.7528C30.4162 19.0899 30.415 9.91006 24.7532 4.24717ZM20.6515 19.0111C20.869 19.2286 20.9912 19.5236 20.9912 19.8311C20.9912 20.1387 20.869 20.4337 20.6515 20.6512C20.434 20.8687 20.139 20.9909 19.8314 20.9909C19.5238 20.9909 19.2288 20.8687 19.0113 20.6512L14.5002 16.1402L9.98909 20.6512C9.88161 20.7593 9.75383 20.8451 9.61309 20.9036C9.47235 20.9622 9.32142 20.9923 9.16899 20.9923C9.01656 20.9923 8.86563 20.9622 8.72489 20.9036C8.58415 20.8451 8.45637 20.7593 8.34889 20.6512C8.24108 20.5436 8.15554 20.4158 8.09719 20.2751C8.03883 20.1343 8.00879 19.9835 8.00879 19.8311C8.00879 19.6788 8.03883 19.528 8.09719 19.3872C8.15554 19.2465 8.24108 19.1187 8.34889 19.0111L12.86 14.5L8.34889 9.98894C8.13139 9.77144 8.0092 9.47645 8.0092 9.16885C8.0092 8.86126 8.13139 8.56627 8.34889 8.34877C8.56639 8.13126 8.86139 8.00908 9.16899 8.00908C9.47659 8.00908 9.77159 8.13126 9.98909 8.34877L14.5002 12.8598L19.0113 8.34877C19.119 8.24107 19.2469 8.15564 19.3876 8.09736C19.5283 8.03907 19.6791 8.00908 19.8314 8.00908C19.9838 8.00908 20.1346 8.03907 20.2753 8.09736C20.416 8.15564 20.5438 8.24107 20.6515 8.34877C20.7592 8.45646 20.8447 8.58432 20.903 8.72503C20.9612 8.86574 20.9912 9.01655 20.9912 9.16885C20.9912 9.32116 20.9612 9.47197 20.903 9.61268C20.8447 9.75339 20.7592 9.88124 20.6515 9.98894L16.1404 14.5L20.6515 19.0111Z" fill="#005982"/>
</svg>
