<svg width="27" height="27" viewBox="0 0 27 27" fill="none" xmlns="http://www.w3.org/2000/svg">
<path d="M22.5866 3.92508C17.4193 -1.30836 9.0428 -1.30836 3.87548 3.92508C-1.29183 9.15853 -1.29183 17.6422 3.87548 22.8757C9.0428 28.1091 17.4193 28.1091 22.5866 22.8757C27.7539 17.6422 27.7529 9.15853 22.5866 3.92508ZM18.844 17.5693C19.0424 17.7704 19.1539 18.043 19.1539 18.3272C19.1539 18.6115 19.0424 18.8841 18.844 19.0851C18.6455 19.2861 18.3763 19.3991 18.0957 19.3991C17.815 19.3991 17.5458 19.2861 17.3473 19.0851L13.2311 14.9162L9.11477 19.0851C9.0167 19.185 8.90011 19.2643 8.77168 19.3184C8.64326 19.3725 8.50554 19.4003 8.36645 19.4003C8.22737 19.4003 8.08965 19.3725 7.96123 19.3184C7.8328 19.2643 7.7162 19.185 7.61814 19.0851C7.51976 18.9857 7.44171 18.8675 7.38846 18.7375C7.33521 18.6074 7.3078 18.468 7.3078 18.3272C7.3078 18.1865 7.33521 18.047 7.38846 17.917C7.44171 17.787 7.51976 17.6688 7.61814 17.5693L11.7344 13.4004L7.61814 9.23142C7.41967 9.03042 7.30817 8.7578 7.30817 8.47353C7.30817 8.18926 7.41967 7.91664 7.61814 7.71563C7.8166 7.51463 8.08578 7.4017 8.36645 7.4017C8.64713 7.4017 8.91631 7.51463 9.11477 7.71563L13.2311 11.8846L17.3473 7.71563C17.4456 7.61611 17.5623 7.53716 17.6907 7.48329C17.8191 7.42943 17.9567 7.4017 18.0957 7.4017C18.2346 7.4017 18.3722 7.42943 18.5006 7.48329C18.629 7.53716 18.7457 7.61611 18.844 7.71563C18.9422 7.81516 19.0202 7.93332 19.0734 8.06336C19.1266 8.1934 19.1539 8.33278 19.1539 8.47353C19.1539 8.61428 19.1266 8.75366 19.0734 8.8837C19.0202 9.01374 18.9422 9.1319 18.844 9.23142L14.7277 13.4004L18.844 17.5693Z" fill="white"/>
</svg>
