<svg width="29" height="24" viewBox="0 0 29 24" fill="none" xmlns="http://www.w3.org/2000/svg">
<path d="M21.6747 9.14545L21.3247 18.2257C21.2949 19.0034 20.9127 19.7405 20.2592 20.2806C19.6058 20.8206 18.7325 21.1212 17.8247 21.1184H11.1747C10.2675 21.1212 9.39475 20.8211 8.74138 20.2816C8.08801 19.7422 7.70542 19.0058 7.67472 18.2287L7.32472 9.14545C7.31706 8.94653 7.4019 8.75316 7.56058 8.60787C7.71926 8.46257 7.93878 8.37726 8.17084 8.3707C8.40291 8.36413 8.62851 8.43685 8.79802 8.57286C8.96753 8.70888 9.06706 8.89703 9.07472 9.09595L9.42472 18.1784C9.44215 18.5662 9.63419 18.933 9.96051 19.202C10.2868 19.4709 10.722 19.621 11.1747 19.6207H17.8247C18.278 19.621 18.7137 19.4705 19.0401 19.2009C19.3665 18.9313 19.5582 18.5637 19.5747 18.1754L19.9247 9.09595C19.9324 8.89703 20.0319 8.70888 20.2014 8.57286C20.3709 8.43685 20.5965 8.36413 20.8286 8.3707C21.0607 8.37726 21.2802 8.46257 21.4389 8.60787C21.5975 8.75316 21.6824 8.94653 21.6747 9.14545ZM22.8323 6.12369C22.8323 6.32261 22.7402 6.51337 22.5761 6.65403C22.412 6.79468 22.1894 6.87369 21.9573 6.87369H7.04297C6.8109 6.87369 6.58834 6.79468 6.42425 6.65403C6.26016 6.51337 6.16797 6.32261 6.16797 6.12369C6.16797 5.92478 6.26016 5.73402 6.42425 5.59337C6.58834 5.45271 6.8109 5.3737 7.04297 5.3737H9.75547C10.0327 5.37434 10.3003 5.28654 10.5062 5.12739C10.7121 4.96825 10.8415 4.74913 10.8693 4.5127C10.9339 3.95806 11.2371 3.44389 11.7198 3.07038C12.2024 2.69686 12.8301 2.49075 13.4803 2.4922H15.5191C16.1694 2.49075 16.797 2.69686 17.2797 3.07038C17.7624 3.44389 18.0655 3.95806 18.1301 4.5127C18.1579 4.74913 18.2873 4.96825 18.4932 5.12739C18.6991 5.28654 18.9667 5.37434 19.244 5.3737H21.9565C22.1885 5.3737 22.4111 5.45271 22.5752 5.59337C22.7393 5.73402 22.8315 5.92478 22.8315 6.12369H22.8323ZM12.3883 5.3737H16.6128C16.4979 5.1485 16.4227 4.90988 16.3897 4.6657C16.368 4.48083 16.2671 4.30944 16.1064 4.18473C15.9457 4.06002 15.7367 3.99088 15.52 3.9907H13.4812C13.2645 3.99088 13.0555 4.06002 12.8948 4.18473C12.7341 4.30944 12.6331 4.48083 12.6115 4.6657C12.5782 4.90992 12.5036 5.14854 12.3883 5.3737ZM13.2695 16.7369V10.3507C13.2695 10.1518 13.1773 9.96102 13.0132 9.82037C12.8491 9.67971 12.6265 9.6007 12.3945 9.6007C12.1624 9.6007 11.9398 9.67971 11.7758 9.82037C11.6117 9.96102 11.5195 10.1518 11.5195 10.3507V16.7399C11.5195 16.9389 11.6117 17.1296 11.7758 17.2703C11.9398 17.4109 12.1624 17.4899 12.3945 17.4899C12.6265 17.4899 12.8491 17.4109 13.0132 17.2703C13.1773 17.1296 13.2695 16.9389 13.2695 16.7399V16.7369ZM17.4817 16.7369V10.3507C17.4817 10.1518 17.3895 9.96102 17.2254 9.82037C17.0613 9.67971 16.8388 9.6007 16.6067 9.6007C16.3747 9.6007 16.1521 9.67971 15.988 9.82037C15.8239 9.96102 15.7317 10.1518 15.7317 10.3507V16.7399C15.7317 16.9389 15.8239 17.1296 15.988 17.2703C16.1521 17.4109 16.3747 17.4899 16.6067 17.4899C16.8388 17.4899 17.0613 17.4109 17.2254 17.2703C17.3895 17.1296 17.4817 16.9389 17.4817 16.7399V16.7369Z" fill="#AB2727"/>
</svg>
