<svg xmlns="http://www.w3.org/2000/svg" width="35" height="35" viewBox="0 0 35 35" fill="none">
<path d="M26.4686 13.3355L26.0311 26.5775C25.9939 27.7116 25.5161 28.7866 24.6993 29.5742C23.8825 30.3618 22.7908 30.8001 21.6561 30.7961H13.3436C12.2097 30.8002 11.1187 30.3625 10.302 29.5758C9.48526 28.7891 9.00702 27.7152 8.96864 26.5819L8.53114 13.3355C8.52157 13.0454 8.62762 12.7634 8.82597 12.5515C9.02432 12.3396 9.29872 12.2152 9.5888 12.2056C9.87888 12.1961 10.1609 12.3021 10.3728 12.5005C10.5847 12.6988 10.7091 12.9732 10.7186 13.2633L11.1561 26.5086C11.1779 27.074 11.418 27.609 11.8259 28.0012C12.2338 28.3934 12.7778 28.6123 13.3436 28.6119H21.6561C22.2227 28.6123 22.7674 28.3928 23.1754 27.9997C23.5834 27.6065 23.823 27.0704 23.8436 26.5042L24.2811 13.2633C24.2907 12.9732 24.4151 12.6988 24.627 12.5005C24.8389 12.3021 25.1209 12.1961 25.411 12.2056C25.7011 12.2152 25.9755 12.3396 26.1738 12.5515C26.3722 12.7634 26.4782 13.0454 26.4686 13.3355ZM27.9157 8.92876C27.9157 9.21884 27.8004 9.49704 27.5953 9.70216C27.3902 9.90728 27.112 10.0225 26.8219 10.0225H8.17896C7.88887 10.0225 7.61067 9.90728 7.40556 9.70216C7.20044 9.49704 7.08521 9.21884 7.08521 8.92876C7.08521 8.63868 7.20044 8.36048 7.40556 8.15536C7.61067 7.95025 7.88887 7.83501 8.17896 7.83501H11.5696C11.9161 7.83594 12.2506 7.70791 12.508 7.47582C12.7654 7.24373 12.9272 6.92419 12.9619 6.57939C13.0426 5.77054 13.4216 5.02072 14.0249 4.476C14.6283 3.93129 15.4128 3.63071 16.2257 3.63282H18.7741C19.587 3.63071 20.3715 3.93129 20.9749 4.476C21.5782 5.02072 21.9571 5.77054 22.0379 6.57939C22.0726 6.92419 22.2344 7.24373 22.4918 7.47582C22.7491 7.70791 23.0837 7.83594 23.4302 7.83501H26.8208C27.1109 7.83501 27.3891 7.95025 27.5942 8.15536C27.7993 8.36048 27.9146 8.63868 27.9146 8.92876H27.9157ZM14.8607 7.83501H20.1413C19.9976 7.50661 19.9036 7.15862 19.8624 6.80251C19.8353 6.53291 19.7091 6.28297 19.5082 6.1011C19.3074 5.91924 19.0462 5.8184 18.7752 5.81814H16.2268C15.9558 5.8184 15.6946 5.91924 15.4937 6.1011C15.2929 6.28297 15.1667 6.53291 15.1396 6.80251C15.0981 7.15868 15.0048 7.50666 14.8607 7.83501ZM15.9621 24.4064V15.0931C15.9621 14.8031 15.8468 14.5249 15.6417 14.3197C15.4366 14.1146 15.1584 13.9994 14.8683 13.9994C14.5782 13.9994 14.3 14.1146 14.0949 14.3197C13.8898 14.5249 13.7746 14.8031 13.7746 15.0931V24.4108C13.7746 24.7009 13.8898 24.9791 14.0949 25.1842C14.3 25.3893 14.5782 25.5045 14.8683 25.5045C15.1584 25.5045 15.4366 25.3893 15.6417 25.1842C15.8468 24.9791 15.9621 24.7009 15.9621 24.4108V24.4064ZM21.2274 24.4064V15.0931C21.2274 14.8031 21.1122 14.5249 20.907 14.3197C20.7019 14.1146 20.4237 13.9994 20.1336 13.9994C19.8436 13.9994 19.5654 14.1146 19.3602 14.3197C19.1551 14.5249 19.0399 14.8031 19.0399 15.0931V24.4108C19.0399 24.7009 19.1551 24.9791 19.3602 25.1842C19.5654 25.3893 19.8436 25.5045 20.1336 25.5045C20.4237 25.5045 20.7019 25.3893 20.907 25.1842C21.1122 24.9791 21.2274 24.7009 21.2274 24.4108V24.4064Z" fill="#C78D8D"/>
</svg>