<svg xmlns="http://www.w3.org/2000/svg" width="12" height="15" viewBox="0 0 12 15" fill="none">
  <path d="M11.1664 5.35796L10.9144 12.6704C10.8929 13.2967 10.6177 13.8903 10.1471 14.3252C9.67655 14.7602 9.0477 15.0022 8.39401 15H3.60536C2.9521 15.0022 2.3236 14.7605 1.85311 14.3261C1.38262 13.8917 1.10712 13.2987 1.08501 12.6728L0.832975 5.35796C0.82746 5.19777 0.888555 5.04205 1.00282 4.92504C1.11708 4.80803 1.27516 4.73933 1.44227 4.73404C1.60938 4.72876 1.77183 4.78732 1.8939 4.89685C2.01596 5.00638 2.08763 5.15791 2.09315 5.3181L2.34518 12.6324C2.35773 12.9446 2.49602 13.24 2.731 13.4566C2.96598 13.6732 3.27938 13.7941 3.60536 13.7938H8.39401C8.72041 13.794 9.03417 13.6728 9.26922 13.4557C9.50427 13.2387 9.64227 12.9426 9.65419 12.6299L9.90622 5.3181C9.91174 5.15791 9.98341 5.00638 10.1055 4.89685C10.2275 4.78732 10.39 4.72876 10.5571 4.73404C10.7242 4.73933 10.8823 4.80803 10.9965 4.92504C11.1108 5.04205 11.1719 5.19777 11.1664 5.35796ZM12 2.9245C12 3.08469 11.9336 3.23832 11.8155 3.35159C11.6973 3.46486 11.537 3.52849 11.3699 3.52849H0.630087C0.462977 3.52849 0.302712 3.46486 0.184548 3.35159C0.0663838 3.23832 0 3.08469 0 2.9245C0 2.76432 0.0663838 2.61069 0.184548 2.49742C0.302712 2.38415 0.462977 2.32052 0.630087 2.32052H2.58336C2.783 2.32103 2.9757 2.25033 3.12396 2.12217C3.27222 1.994 3.36543 1.81755 3.38546 1.62714C3.43195 1.18049 3.65026 0.766422 3.99783 0.465623C4.34541 0.164824 4.79736 -0.00116165 5.26563 6.12011e-06H6.73374C7.20201 -0.00116165 7.65396 0.164824 8.00154 0.465623C8.34911 0.766422 8.56742 1.18049 8.61391 1.62714C8.63394 1.81755 8.72715 1.994 8.87541 2.12217C9.02367 2.25033 9.21637 2.32103 9.41602 2.32052H11.3693C11.5364 2.32052 11.6967 2.38415 11.8148 2.49742C11.933 2.61069 11.9994 2.76432 11.9994 2.9245H12ZM4.47929 2.32052H7.52134C7.43855 2.13917 7.38439 1.947 7.36067 1.75036C7.34506 1.60148 7.27236 1.46345 7.15665 1.36303C7.04094 1.2626 6.89046 1.20692 6.73437 1.20677H5.26626C5.11017 1.20692 4.95969 1.2626 4.84398 1.36303C4.72827 1.46345 4.65557 1.60148 4.63996 1.75036C4.61603 1.94704 4.5623 2.1392 4.47929 2.32052ZM5.11378 11.4715V6.32857C5.11378 6.16838 5.0474 6.01475 4.92923 5.90148C4.81107 5.78821 4.65081 5.72458 4.4837 5.72458C4.31659 5.72458 4.15632 5.78821 4.03816 5.90148C3.91999 6.01475 3.85361 6.16838 3.85361 6.32857V11.4739C3.85361 11.6341 3.91999 11.7877 4.03816 11.901C4.15632 12.0143 4.31659 12.0779 4.4837 12.0779C4.65081 12.0779 4.81107 12.0143 4.92923 11.901C5.0474 11.7877 5.11378 11.6341 5.11378 11.4739V11.4715ZM8.14702 11.4715V6.32857C8.14702 6.16838 8.08064 6.01475 7.96247 5.90148C7.84431 5.78821 7.68404 5.72458 7.51693 5.72458C7.34982 5.72458 7.18956 5.78821 7.07139 5.90148C6.95323 6.01475 6.88685 6.16838 6.88685 6.32857V11.4739C6.88685 11.6341 6.95323 11.7877 7.07139 11.901C7.18956 12.0143 7.34982 12.0779 7.51693 12.0779C7.68404 12.0779 7.84431 12.0143 7.96247 11.901C8.08064 11.7877 8.14702 11.6341 8.14702 11.4739V11.4715Z" fill="#005982"/>
</svg>