<svg width="16" height="8" viewBox="0 0 16 8" fill="none" xmlns="http://www.w3.org/2000/svg">
<path fill-rule="evenodd" clip-rule="evenodd" d="M0.233987 0.266554C-0.0779968 0.561094 -0.0779968 1.03745 0.233987 1.33126L6.84485 7.55879C6.99058 7.69819 7.16596 7.80919 7.36035 7.88504C7.55474 7.96089 7.76406 8 7.9756 8C8.18713 8 8.39646 7.96089 8.59084 7.88504C8.78523 7.80919 8.96062 7.69819 9.10634 7.55879L15.766 1.28617C15.9148 1.14381 15.9985 0.955292 16 0.758893C16.0015 0.562494 15.9207 0.372944 15.774 0.228737C15.7016 0.1573 15.6138 0.100141 15.5161 0.060799C15.4184 0.0214574 15.3128 0.000771063 15.2059 2.11142e-05C15.0991 -0.000728834 14.9932 0.0184735 14.8948 0.0564391C14.7964 0.0944047 14.7077 0.150325 14.6341 0.220737L8.54077 5.96173C8.4679 6.03148 8.38018 6.08703 8.28295 6.12499C8.18572 6.16295 8.08101 6.18252 7.9752 6.18252C7.86938 6.18252 7.76467 6.16295 7.66744 6.12499C7.57021 6.08703 7.48249 6.03148 7.40963 5.96173L1.36433 0.266554C1.29153 0.196817 1.20388 0.141283 1.10672 0.103332C1.00956 0.0653822 0.904912 0.0458111 0.79916 0.0458111C0.693408 0.0458111 0.588762 0.0653822 0.491598 0.103332C0.394434 0.141283 0.306784 0.196817 0.233987 0.266554Z" fill="#005982"/>
</svg>
