<svg width="10" height="7" viewBox="0 0 10 7" fill="none" xmlns="http://www.w3.org/2000/svg">
<path d="M9.31878 1.14345L9.50451 0.976092C9.44142 0.906075 9.36462 0.849698 9.27868 0.810765C9.19273 0.771825 9.09964 0.751253 9.00523 0.750502C8.91082 0.749751 8.81741 0.76884 8.73085 0.806419C8.64462 0.843854 8.56719 0.898756 8.50315 0.967435C8.50291 0.967687 8.50268 0.967938 8.50245 0.96819L5.11855 4.55442L5.11855 4.55441L5.11719 4.55587C5.09976 4.57464 5.0791 4.58925 5.05665 4.59911C5.0342 4.60896 5.01026 4.61396 4.98622 4.61396C4.96217 4.61396 4.93823 4.60896 4.91579 4.5991C4.89333 4.58924 4.87267 4.57463 4.85525 4.55586L4.85525 4.55585L4.85388 4.55439L1.49664 0.995721C1.43331 0.927688 1.35683 0.873151 1.27165 0.835714C1.18609 0.798115 1.09373 0.778635 1.00023 0.77863C0.906733 0.778624 0.814364 0.798093 0.728804 0.835681C0.643527 0.873145 0.566972 0.927742 0.503595 0.99586C0.240382 1.2761 0.240256 1.72365 0.504339 2.00351C0.504347 2.00352 0.504356 2.00352 0.504363 2.00353L4.17505 5.89417C4.17529 5.89442 4.17552 5.89467 4.17575 5.89492C4.2796 6.0065 4.40484 6.0957 4.54404 6.15682C4.68358 6.21808 4.83407 6.24976 4.9863 6.24977C5.13853 6.24978 5.28902 6.21812 5.42856 6.15687C5.56779 6.09577 5.69304 6.00658 5.79691 5.89501C5.79714 5.89476 5.79737 5.89451 5.7976 5.89427L9.49608 1.97588L9.49609 1.97589L9.4974 1.97448C9.62317 1.83916 9.69302 1.66103 9.69428 1.47647C9.69554 1.29191 9.62812 1.11284 9.50425 0.975802L9.31878 1.14345ZM9.31878 1.14345C9.27855 1.0988 9.22979 1.06308 9.17551 1.03849C9.12123 1.0139 9.0626 1.00097 9.00323 1.00049C8.94387 1.00002 8.88504 1.01202 8.8304 1.03574C8.77575 1.05946 8.72645 1.09441 8.68554 1.13841L9.31428 1.80428C9.39697 1.71532 9.44345 1.59751 9.44428 1.47477C9.44512 1.35203 9.40025 1.23357 9.31878 1.14345Z" fill="black" stroke="black" stroke-width="0.5"/>
</svg>
