<svg xmlns="http://www.w3.org/2000/svg" width="20" height="20" viewBox="0 0 20 20" fill="none">
<g clip-path="url(#clip0_2898_9819)">
<path d="M9.16536 15.0007C9.16536 15.9173 8.41536 16.6673 7.4987 16.6673C6.58203 16.6673 5.83203 15.9173 5.83203 15.0007C5.83203 14.084 6.58203 13.334 7.4987 13.334C8.41536 13.334 9.16536 14.084 9.16536 15.0007ZM7.4987 8.33398C6.58203 8.33398 5.83203 9.08398 5.83203 10.0007C5.83203 10.9173 6.58203 11.6673 7.4987 11.6673C8.41536 11.6673 9.16536 10.9173 9.16536 10.0007C9.16536 9.08398 8.41536 8.33398 7.4987 8.33398ZM7.4987 3.33398C6.58203 3.33398 5.83203 4.08398 5.83203 5.00065C5.83203 5.91732 6.58203 6.66732 7.4987 6.66732C8.41536 6.66732 9.16536 5.91732 9.16536 5.00065C9.16536 4.08398 8.41536 3.33398 7.4987 3.33398ZM12.4987 6.66732C13.4154 6.66732 14.1654 5.91732 14.1654 5.00065C14.1654 4.08398 13.4154 3.33398 12.4987 3.33398C11.582 3.33398 10.832 4.08398 10.832 5.00065C10.832 5.91732 11.582 6.66732 12.4987 6.66732ZM12.4987 8.33398C11.582 8.33398 10.832 9.08398 10.832 10.0007C10.832 10.9173 11.582 11.6673 12.4987 11.6673C13.4154 11.6673 14.1654 10.9173 14.1654 10.0007C14.1654 9.08398 13.4154 8.33398 12.4987 8.33398ZM12.4987 13.334C11.582 13.334 10.832 14.084 10.832 15.0007C10.832 15.9173 11.582 16.6673 12.4987 16.6673C13.4154 16.6673 14.1654 15.9173 14.1654 15.0007C14.1654 14.084 13.4154 13.334 12.4987 13.334Z" fill="black"/>
</g>
<defs>
<clipPath id="clip0_2898_9819">
<rect width="20" height="20" fill="white"/>
</clipPath>
</defs>
</svg>