<svg xmlns="http://www.w3.org/2000/svg" width="27" height="27" viewBox="0 0 27 27" fill="none">
<path d="M13.3795 17.8384L15.1272 16.0907L12.8371 13.8005L11.0893 15.5483V16.392H12.5357V17.8384H13.3795ZM20.0089 6.99023C19.8482 6.82952 19.6825 6.83454 19.5117 7.0053L14.2383 12.2787C14.0675 12.4495 14.0625 12.6152 14.2232 12.7759C14.3839 12.9367 14.5497 12.9316 14.7204 12.7609L19.9939 7.48744C20.1646 7.31668 20.1696 7.15095 20.0089 6.99023ZM21.2143 15.94V18.8027C21.2143 19.998 20.7899 21.0201 19.9411 21.8689C19.0924 22.7176 18.0703 23.142 16.875 23.142H4.33929C3.14397 23.142 2.12193 22.7176 1.27316 21.8689C0.424386 21.0201 0 19.998 0 18.8027V6.26702C0 5.07171 0.424386 4.04966 1.27316 3.20089C2.12193 2.35212 3.14397 1.92773 4.33929 1.92773H16.875C17.5078 1.92773 18.0954 2.05329 18.6378 2.30441C18.7885 2.37472 18.8789 2.49023 18.909 2.65095C18.9392 2.82171 18.894 2.96735 18.7734 3.08789L18.0352 3.82617C17.8945 3.9668 17.7338 4.00698 17.553 3.94671C17.322 3.88644 17.096 3.85631 16.875 3.85631H4.33929C3.67634 3.85631 3.10882 4.09235 2.63672 4.56445C2.16462 5.03655 1.92857 5.60407 1.92857 6.26702V18.8027C1.92857 19.4657 2.16462 20.0332 2.63672 20.5053C3.10882 20.9774 3.67634 21.2134 4.33929 21.2134H16.875C17.5379 21.2134 18.1055 20.9774 18.5776 20.5053C19.0497 20.0332 19.2857 19.4657 19.2857 18.8027V16.9043C19.2857 16.7737 19.3309 16.6632 19.4213 16.5728L20.3856 15.6085C20.5363 15.4579 20.7121 15.4227 20.9129 15.5031C21.1138 15.5834 21.2143 15.7291 21.2143 15.94ZM19.7679 4.82059L24.1071 9.15988L13.9821 19.2849H9.64286V14.9456L19.7679 4.82059ZM26.4576 6.80943L25.0714 8.19559L20.7321 3.85631L22.1183 2.47015C22.3996 2.1889 22.7411 2.04827 23.1429 2.04827C23.5446 2.04827 23.8862 2.1889 24.1674 2.47015L26.4576 4.76032C26.7388 5.04157 26.8795 5.38309 26.8795 5.78488C26.8795 6.18666 26.7388 6.52818 26.4576 6.80943Z" fill="white"/>
</svg>