<svg xmlns="http://www.w3.org/2000/svg" width="23" height="19" viewBox="0 0 23 19" fill="none">
<path d="M11.3973 14.1961L12.8862 12.7073L10.9353 10.7564L9.44643 12.2453V12.964H10.6786V14.1961H11.3973ZM17.0446 4.95508C16.9077 4.81817 16.7666 4.82245 16.6211 4.96791L12.1289 9.4601C11.9834 9.60556 11.9792 9.74674 12.1161 9.88365C12.253 10.0206 12.3942 10.0163 12.5396 9.87081L17.0318 5.37863C17.1773 5.23317 17.1815 5.09198 17.0446 4.95508ZM18.0714 12.579V15.0176C18.0714 16.0358 17.7099 16.9064 16.9869 17.6295C16.2639 18.3525 15.3932 18.714 14.375 18.714H3.69643C2.6782 18.714 1.80757 18.3525 1.08454 17.6295C0.361514 16.9064 0 16.0358 0 15.0176V4.33901C0 3.32078 0.361514 2.45015 1.08454 1.72712C1.80757 1.00409 2.6782 0.642578 3.69643 0.642578H14.375C14.9141 0.642578 15.4146 0.749535 15.8767 0.963449C16.005 1.02334 16.082 1.12174 16.1077 1.25865C16.1334 1.40411 16.0949 1.52818 15.9922 1.63086L15.3633 2.25977C15.2435 2.37956 15.1066 2.41378 14.9526 2.36244C14.7558 2.3111 14.5632 2.28544 14.375 2.28544H3.69643C3.1317 2.28544 2.64825 2.48651 2.24609 2.88867C1.84394 3.29083 1.64286 3.77427 1.64286 4.33901V15.0176C1.64286 15.5823 1.84394 16.0658 2.24609 16.4679C2.64825 16.8701 3.1317 17.0711 3.69643 17.0711H14.375C14.9397 17.0711 15.4232 16.8701 15.8253 16.4679C16.2275 16.0658 16.4286 15.5823 16.4286 15.0176V13.4004C16.4286 13.2892 16.4671 13.195 16.5441 13.118L17.3655 12.2966C17.4939 12.1682 17.6436 12.1383 17.8147 12.2068C17.9859 12.2752 18.0714 12.3993 18.0714 12.579ZM16.8393 3.10686L20.5357 6.80329L11.9107 15.4283H8.21429V11.7319L16.8393 3.10686ZM22.5379 4.80106L21.3571 5.98186L17.6607 2.28544L18.8415 1.10463C19.0811 0.865048 19.372 0.745257 19.7143 0.745257C20.0565 0.745257 20.3475 0.865048 20.5871 1.10463L22.5379 3.05552C22.7775 3.29511 22.8973 3.58603 22.8973 3.92829C22.8973 4.27055 22.7775 4.56148 22.5379 4.80106Z" fill="#005982"/>
</svg>