<svg width="25" height="25" viewBox="0 0 25 25" fill="none" xmlns="http://www.w3.org/2000/svg">
<g clip-path="url(#clip0_102_6588)">
<path d="M6.79753 16.3225C6.82624 16.064 6.8406 15.9348 6.8797 15.814C6.91438 15.7069 6.9634 15.6049 7.0254 15.5109C7.09528 15.4049 7.18722 15.313 7.37108 15.1291L15.625 6.87519C16.3154 6.18483 17.4347 6.18483 18.125 6.87519C18.8154 7.56555 18.8154 8.68483 18.125 9.37519L9.87108 17.6291C9.68722 17.813 9.59528 17.9049 9.4893 17.9748C9.39528 18.0368 9.29331 18.0858 9.18615 18.1205C9.06538 18.1596 8.93616 18.174 8.67773 18.2027L6.5625 18.4377L6.79753 16.3225Z" stroke="#fff" stroke-width="1.66667" stroke-linecap="round" stroke-linejoin="round"/>
</g>
<defs>
<clipPath id="clip0_102_6588">
<rect width="15" height="15" fill="white" transform="translate(5 5)"/>
</clipPath>
</defs>
</svg>
