<svg xmlns="http://www.w3.org/2000/svg" width="20" height="21" viewBox="0 0 20 21" fill="none">
<path d="M1.6378 13.8402C1.44375 13.6462 1.2214 13.5491 0.970747 13.5491C0.703925 13.5491 0.47753 13.6462 0.291564 13.8402C0.0975112 14.0262 0.000485131 14.2526 0.000485131 14.5194V19.0432C-0.00760038 19.2939 0.0853829 19.5163 0.279435 19.7103C0.465402 19.8963 0.691796 19.9933 0.958618 20.0014H5.47033C5.73716 19.9933 5.96759 19.8963 6.16165 19.7103C6.34761 19.5163 6.4406 19.2899 6.4406 19.0311C6.43251 18.7643 6.33548 18.5379 6.14952 18.3519C5.96355 18.166 5.7412 18.073 5.48246 18.073H3.27512L8.4175 12.9306C8.60347 12.7446 8.69645 12.5223 8.69645 12.2635C8.69645 11.9886 8.60347 11.7582 8.4175 11.5722C8.22345 11.3782 7.99706 11.2892 7.73832 11.3054C7.4715 11.2973 7.2451 11.3863 7.05914 11.5722L1.91675 16.7146L1.92888 14.5194C1.92079 14.2526 1.82377 14.0262 1.6378 13.8402ZM8.70858 7.7397C8.7005 7.47288 8.60347 7.24649 8.4175 7.06052L3.27512 1.91813H5.48246C5.7412 1.91813 5.96759 1.82111 6.16165 1.62705C6.34761 1.44109 6.4406 1.21874 6.4406 0.959999C6.44868 0.693177 6.3557 0.46274 6.16165 0.268688C5.97568 0.0827211 5.74928 -0.00621963 5.48246 0.00186589H0.970747C0.703925 -0.00621963 0.473488 0.0867639 0.279435 0.280816C0.0934684 0.466783 0.000485131 0.69722 0.000485131 0.972127V5.48384C0.000485131 5.74258 0.0934684 5.96493 0.279435 6.1509C0.473488 6.34495 0.699882 6.44198 0.958618 6.44198C1.22544 6.43389 1.45183 6.33687 1.6378 6.1509C1.82377 5.96493 1.91675 5.74258 1.91675 5.48384L1.92888 3.26437L7.07127 8.40676C7.25723 8.59272 7.47958 8.69379 7.73832 8.70996C7.99706 8.69379 8.21941 8.59272 8.40538 8.40676C8.59943 8.2127 8.7005 7.99035 8.70858 7.7397ZM19.9879 14.5073C19.9879 14.2324 19.8949 14.0019 19.7089 13.816C19.523 13.63 19.2966 13.5411 19.0297 13.5491C18.7629 13.5411 18.5365 13.63 18.3506 13.816C18.1565 14.01 18.0635 14.2405 18.0716 14.5073L18.0595 16.7025L12.9292 11.5722C12.7433 11.3863 12.5209 11.2933 12.2622 11.2933C11.9953 11.2852 11.7649 11.3782 11.5709 11.5722C11.3849 11.7582 11.2919 11.9886 11.2919 12.2635C11.3 12.5142 11.397 12.7325 11.583 12.9185L16.7132 18.0487L14.5059 18.073C14.2391 18.0649 14.0127 18.1538 13.8267 18.3398C13.6407 18.5258 13.5478 18.7562 13.5478 19.0311C13.5478 19.2899 13.6407 19.5122 13.8267 19.6982C14.0127 19.8841 14.2391 19.9812 14.5059 19.9893H19.0176C19.2844 19.9812 19.5108 19.8841 19.6968 19.6982C19.8908 19.5041 19.9879 19.2777 19.9879 19.019V14.5073ZM18.3506 6.1509C18.5365 6.33687 18.7629 6.43389 19.0297 6.44198C19.2966 6.43389 19.523 6.33687 19.7089 6.1509C19.903 5.95685 20 5.73449 20 5.48384V0.959999C20 0.685092 19.907 0.454655 19.7211 0.268688C19.527 0.0746356 19.3006 -0.0143051 19.0419 0.00186589H14.5302C14.2633 -0.00621963 14.0329 0.0867639 13.8388 0.280816C13.6529 0.466783 13.5599 0.693177 13.5599 0.959999C13.5518 1.21874 13.6448 1.44513 13.8388 1.63918C14.0248 1.82515 14.2512 1.92218 14.518 1.93026L16.7254 1.906L11.583 7.04839C11.3889 7.24244 11.2959 7.47288 11.304 7.7397C11.2959 7.99035 11.3889 8.2127 11.583 8.40676C11.7689 8.59272 11.9953 8.68975 12.2622 8.69783C12.5209 8.69783 12.7473 8.60081 12.9413 8.40676L18.0837 3.26437L18.0716 5.48384C18.0716 5.74258 18.1646 5.96493 18.3506 6.1509Z" fill="url(#paint0_linear_3526_12269)"/>
<defs>
<linearGradient id="paint0_linear_3526_12269" x1="1.15591" y1="5.81858" x2="12.7668" y2="31.1284" gradientUnits="userSpaceOnUse">
<stop offset="0.151042" stop-color="#005982"/>
<stop offset="1" stop-color="#039999"/>
</linearGradient>
</defs>
</svg>