<svg xmlns="http://www.w3.org/2000/svg" width="30" height="30" viewBox="0 0 30 30" fill="none">
<path d="M5.8875 4.11249C5.77095 3.99594 5.63259 3.90349 5.48031 3.84041C5.32804 3.77734 5.16483 3.74487 5 3.74487C4.83518 3.74487 4.67197 3.77734 4.51969 3.84041C4.36741 3.90349 4.22905 3.99594 4.1125 4.11249C3.87712 4.34787 3.74489 4.66711 3.74489 4.99999C3.74489 5.33286 3.87712 5.65211 4.1125 5.88749L11.15 12.925C10.7048 13.7533 10.5382 14.703 10.6751 15.6333C10.812 16.5636 11.245 17.4251 11.9099 18.0901C12.5749 18.755 13.4363 19.188 14.3667 19.3249C15.297 19.4618 16.2467 19.2952 17.075 18.85L24.1125 25.8875C24.2287 26.0046 24.367 26.0976 24.5193 26.1611C24.6716 26.2246 24.835 26.2572 25 26.2572C25.165 26.2572 25.3284 26.2246 25.4807 26.1611C25.633 26.0976 25.7713 26.0046 25.8875 25.8875C26.0047 25.7713 26.0977 25.633 26.1611 25.4807C26.2246 25.3284 26.2572 25.165 26.2572 25C26.2572 24.835 26.2246 24.6716 26.1611 24.5193C26.0977 24.3669 26.0047 24.2287 25.8875 24.1125L5.8875 4.11249ZM15 16.875C14.5027 16.875 14.0258 16.6774 13.6742 16.3258C13.3225 15.9742 13.125 15.4973 13.125 15V14.9125L15.075 16.8625L15 16.875Z" fill="#6C6C6C"/>
<path d="M15.275 21.25C9.9 21.375 6.375 16.7625 5.275 15C6.05809 13.7508 6.99921 12.608 8.075 11.6L6.25 9.83746C4.83916 11.1668 3.63051 12.6955 2.6625 14.375C2.55279 14.565 2.49503 14.7805 2.49503 15C2.49503 15.2194 2.55279 15.4349 2.6625 15.625C3.45 16.9875 7.6625 23.75 15.025 23.75H15.3375C16.7219 23.7089 18.0885 23.4254 19.375 22.9125L17.4 20.9375C16.7055 21.1202 15.9927 21.225 15.275 21.25ZM27.3375 14.375C26.5375 12.9875 22.125 6.02496 14.6625 6.24996C13.2781 6.29103 11.9115 6.57449 10.625 7.08746L12.6 9.06246C13.2945 8.87975 14.0073 8.77494 14.725 8.74996C20.0875 8.61246 23.6125 13.2375 24.725 15C23.9226 16.2528 22.9603 17.3958 21.8625 18.4L23.75 20.1625C25.1786 18.8366 26.4042 17.3077 27.3875 15.625C27.4897 15.4306 27.5389 15.2127 27.5301 14.9933C27.5213 14.7738 27.4549 14.5606 27.3375 14.375Z" fill="#6C6C6C"/>
</svg>