<svg xmlns="http://www.w3.org/2000/svg" width="20" height="25" viewBox="0 0 20 25" fill="none">
<path d="M6.12981 14.8978C5.91643 15.0336 5.78065 14.9172 5.85824 14.665L6.96393 10.6496L3.84083 8.20542C3.64685 8.06963 3.68565 7.89505 3.93782 7.85625L7.95324 7.42949L9.50509 3.62745C9.60208 3.39468 9.79606 3.39468 9.89305 3.62745L11.4449 7.42949L15.4603 7.85625C15.7125 7.89505 15.7513 8.06963 15.5573 8.20542L12.4342 10.6496L13.3459 14.6844C13.3847 14.9172 13.2489 15.0336 13.0356 14.8978L9.69907 12.667L6.12981 14.8978ZM18.4282 0H0.969907C0 0 0 1.90735e-06 0 0.96991V24.5387C0 25.0236 0.290972 25.1012 0.659537 24.8878L9.69907 19.6891L18.6804 24.8296C19.0102 25.0236 19.3981 25.0236 19.3981 24.5387V0.96991C19.3981 1.90735e-06 19.3981 0 18.4282 0Z" fill="#005981"/>
</svg>