<svg width="33" height="28" viewBox="0 0 33 28" fill="none" xmlns="http://www.w3.org/2000/svg">
<path d="M32.5034 7.73133L23.3581 1.11112C22.961 0.823636 22.3782 0.823636 21.9814 1.11112L12.836 7.73133C12.2674 8.14303 12.366 8.69459 13.0953 8.82933C13.3166 8.86996 13.5438 8.81976 13.7116 8.69809L22.6644 2.21537C22.6674 2.21323 22.6722 2.21323 22.6752 2.21537L31.628 8.69809C31.7959 8.81976 32.0231 8.86996 32.2443 8.82933C32.9736 8.69516 33.0721 8.14301 32.5036 7.73173L32.5034 7.73133Z" fill="url(#paint0_linear_838_3541)"/>
<path d="M27.202 1.09896H27.3017V2.98093C27.3017 2.98308 27.3027 2.98483 27.3047 2.9862L30.6013 5.37125C30.6064 5.37515 30.6146 5.37203 30.6146 5.36597V1.09896H30.7143C31.0271 1.09896 31.3281 0.928854 31.3911 0.66812C31.4773 0.310521 31.1639 0 30.7609 0H27.1562C26.7531 0 26.4397 0.310531 26.5255 0.66792C26.5883 0.928849 26.8893 1.09896 27.202 1.09896Z" fill="url(#paint1_linear_838_3541)"/>
<path d="M0.311314 13.6411H13.5762V9.68184C12.7288 9.81914 11.7125 9.39924 11.486 8.61429C11.3217 8.06316 11.5784 7.48114 12.169 7.05696L13.8331 5.84961H4.67657C3.81891 5.84961 3.04858 6.30896 2.75078 6.99136L0.0186182 13.2866C-0.0531442 13.4571 0.0906093 13.6409 0.31139 13.6409L0.311314 13.6411Z" fill="url(#paint2_linear_838_3541)"/>
<path d="M31.7973 26.9789H30.7308L30.7305 9.03766L30.7255 9.03336L22.9811 3.42461C22.8014 3.29336 22.5343 3.29336 22.3495 3.42461L14.6051 9.03336V26.9791H13.578L13.5777 14.4146H1.00069V26.9791H0.328023C0.173957 26.9791 0.0405273 27.0884 0.0405273 27.224V27.7533C0.0405273 27.8845 0.173957 27.9982 0.328023 27.9982H30.7304H31.7969C31.9253 27.9982 32.028 27.9107 32.028 27.8056V27.1712C32.028 27.0665 31.9253 26.979 31.7969 26.979L31.7973 26.9789ZM7.83697 17.0653H10.1525C10.4504 17.0653 10.6918 17.271 10.6918 17.529V20.9548H7.83694L7.83697 17.0653ZM7.83697 21.4573H10.6918V25.2419C10.6918 25.5001 10.4504 25.7055 10.1526 25.7055H7.837L7.83697 21.4573ZM4.21094 17.5292C4.21094 17.271 4.45236 17.0655 4.75521 17.0655H7.24803V20.9552L4.21096 20.955L4.21094 17.5292ZM4.21094 21.4573H7.248V25.7061H4.75519C4.4521 25.7061 4.21091 25.5005 4.21091 25.2425L4.21094 21.4573ZM19.1961 13.9986H19.8431V10.0307C19.8431 8.70062 21.1063 7.62452 22.6676 7.62452C24.2667 7.62452 25.4922 8.73402 25.4922 10.0307V13.9986H26.0621C26.3138 13.9986 26.514 14.1693 26.514 14.3836C26.514 14.598 26.3136 14.7685 26.0621 14.7685H19.1958C18.944 14.7685 18.7439 14.5978 18.7439 14.3836C18.7441 14.1693 18.9443 13.9986 19.196 13.9986H19.1961ZM19.4015 26.9786V20.2589C19.4015 19.9438 19.7046 19.6901 20.0692 19.6901H25.1893C25.5591 19.6901 25.8569 19.9438 25.8569 20.2589V26.9786H19.4015Z" fill="url(#paint3_linear_838_3541)"/>
<defs>
<linearGradient id="paint0_linear_838_3541" x1="8.76061" y1="-0.910782" x2="11.6275" y2="12.8356" gradientUnits="userSpaceOnUse">
<stop stop-color="#005982"/>
<stop offset="1" stop-color="#039999"/>
</linearGradient>
<linearGradient id="paint1_linear_838_3541" x1="25.6214" y1="-1.22113" x2="29.8573" y2="5.98681" gradientUnits="userSpaceOnUse">
<stop stop-color="#005982"/>
<stop offset="1" stop-color="#039999"/>
</linearGradient>
<linearGradient id="paint2_linear_838_3541" x1="-2.5151" y1="4.07882" x2="1.37157" y2="16.9692" gradientUnits="userSpaceOnUse">
<stop stop-color="#005982"/>
<stop offset="1" stop-color="#039999"/>
</linearGradient>
<linearGradient id="paint3_linear_838_3541" x1="-5.77538" y1="-2.2811" x2="9.93239" y2="35.7622" gradientUnits="userSpaceOnUse">
<stop stop-color="#005982"/>
<stop offset="1" stop-color="#039999"/>
</linearGradient>
</defs>
</svg>
