<svg width="25" height="26" viewBox="0 0 25 26" fill="none" xmlns="http://www.w3.org/2000/svg">
<g id="Group">
<path id="Vector" d="M10.3816 23.9255H5.13953C3.44093 23.9193 2.06373 22.5472 2.05125 20.8487V10.4215C2.05459 9.85285 2.30903 9.31477 2.7464 8.9514L3.66946 8.26765C4.00645 7.90861 4.04072 7.36074 3.75109 6.96251C3.46147 6.56428 2.9297 6.42807 2.48429 6.63804L1.53844 7.34459C0.58433 8.08283 0.0181314 9.21523 0 10.4215V20.8601C0.00626717 23.6959 2.30364 25.9933 5.13953 25.9996H10.3816C10.9481 25.9996 11.4072 25.5404 11.4072 24.974C11.4072 24.4075 10.9481 23.9483 10.3816 23.9483V23.9255Z" fill="#005982"/>
<path id="Vector_2" d="M24.6269 10.3992C24.6149 9.20181 24.0671 8.07278 23.134 7.32231L15.2595 1.0432C13.5291 -0.347733 11.0641 -0.347733 9.33366 1.0432L6.83797 2.85514C6.36908 3.19186 6.26194 3.84492 6.59866 4.31381C6.93537 4.78269 7.58844 4.88984 8.05732 4.55312L10.5872 2.66141C11.5802 1.84391 13.013 1.84391 14.006 2.66141L21.8805 8.94052C22.3337 9.29979 22.6015 9.8437 22.6098 10.422V20.8606C22.6098 22.5599 21.2323 23.9375 19.5329 23.9375H17.1968C16.9576 23.9375 16.7638 23.7436 16.7638 23.5044V18.7979C16.7638 17.2982 15.5513 16.0806 14.0515 16.0743H10.6328C9.91044 16.0743 9.21768 16.3613 8.7069 16.8721C8.19613 17.3828 7.90918 18.0756 7.90918 18.7979V20.5985C7.90918 21.1649 8.36837 21.6241 8.9348 21.6241C9.50124 21.6241 9.96043 21.1649 9.96043 20.5985V18.7979C9.95737 18.6207 10.0257 18.4496 10.1499 18.3232C10.2742 18.1967 10.4441 18.1256 10.6214 18.1256H14.0401C14.4052 18.1256 14.7011 18.4215 14.7011 18.7865V23.5044C14.7074 24.8783 15.8229 25.9887 17.1968 25.9887H19.476C22.3144 25.9887 24.6155 23.6877 24.6155 20.8492L24.6269 10.3992Z" fill="#005982"/>
</g>
</svg>
