<svg width="34" height="34" viewBox="0 0 34 34" fill="none" xmlns="http://www.w3.org/2000/svg">
<path d="M26.5625 1.0625L13.3992 14.2247C11.9704 13.7916 10.4601 13.6991 8.98914 13.9545C7.51818 14.2099 6.12746 14.8061 4.92833 15.6955C3.7292 16.5849 2.75498 17.7428 2.08368 19.0763C1.41238 20.4098 1.06266 21.882 1.0625 23.375C1.0625 25.9111 2.06997 28.3434 3.86329 30.1367C5.65661 31.93 8.08887 32.9375 10.625 32.9375C12.118 32.9372 13.5902 32.5874 14.9237 31.9159C16.2572 31.2445 17.415 30.2702 18.3043 29.0709C19.1936 27.8717 19.7897 26.4809 20.045 25.0099C20.3002 23.5388 20.2075 22.0285 19.7742 20.5998L22.3125 18.0625V15.9375H24.4375L32.9375 7.4375V1.0625H26.5625ZM30.8125 6.55669L23.5578 13.8125H20.1875V17.1817L18.2718 19.0963L17.3708 19.9973L17.7406 21.216C17.9541 21.9194 18.0625 22.6451 18.0625 23.375C18.0625 27.4762 14.7252 30.8125 10.625 30.8125C6.52481 30.8125 3.1875 27.4762 3.1875 23.375C3.1875 19.2738 6.52481 15.9375 10.625 15.9375C11.3539 15.9375 12.0806 16.0459 12.7829 16.2584L14.0006 16.6281L14.9016 15.7271L27.4422 3.1875H30.8125V6.55669Z" fill="#005982"/>
<path d="M8.5 27.625C9.67361 27.625 10.625 26.6736 10.625 25.5C10.625 24.3264 9.67361 23.375 8.5 23.375C7.32639 23.375 6.375 24.3264 6.375 25.5C6.375 26.6736 7.32639 27.625 8.5 27.625Z" fill="#005982"/>
<path d="M21.9365 11.3125L28.3115 4.9375L29.0627 5.68869L22.6877 12.0637L21.9365 11.3125Z" fill="#005982"/>
</svg>
