<svg width="424" height="373" viewBox="0 0 424 373" fill="none" xmlns="http://www.w3.org/2000/svg">
<g filter="url(#filter0_d_211_7734)">
<path d="M29.9336 323.128L27.9336 33.1413C28.9137 20.3547 32.5084 17.4789 45.3716 21.4444L133.456 52.6362C136.586 54.0984 137.927 56.0479 138.375 59.4595L138.822 66.2827V73.5933H147.764C147.87 64.3996 148.211 51.1741 138.822 45.3257L42.6888 2.92424C37.0482 1.10901 32.7903 0.212706 26.5922 0C13.7614 0.309815 6.40926 7.9704 6.02419 21.4444L4.00002 323.128C3.99483 332.841 4.89425 338.237 8.02419 342.136C12.4955 350.421 36.6405 346.035 40.2175 344.085L137.033 291.427C145.976 284.138 149.305 278.945 150 269.03H142.846L136.139 278.777C135.245 280.239 131.668 282.676 128.985 284.138C126.302 285.6 42.006 321.666 42.006 321.666C35.9399 321.862 31.0445 327.694 29.9336 323.128Z" fill="white"/>
<path d="M76.2235 301.684V289.987L108.864 277.315V287.55L76.2235 301.684Z" fill="white"/>
<path d="M101.263 52.6362L81.142 44.8383V41.9141L101.263 50.1994V52.6362Z" fill="white"/>
<path d="M103.051 53.1236V50.6868L104.84 51.1741V54.0984L103.051 53.1236Z" fill="white"/>
</g>
<g filter="url(#filter1_d_211_7734)">
<path d="M149.282 88.1795L110.737 117.645L150.466 81L169.4 96.5556V91.0214H191.378V123.628L200 145.017L148.606 107.175L94 151L106.679 129.462L105.496 135.145L150.466 98.7991L186.306 127.068L184.954 123.628L184.447 96.5556H174.472V107.774L149.282 88.1795Z" fill="white"/>
</g>
<g filter="url(#filter2_d_211_7734)">
<path d="M192.408 246.5C192.281 244.914 191.686 243.677 190.623 242.788C189.576 241.9 187.982 241.456 185.841 241.456C184.477 241.456 183.359 241.623 182.486 241.956C181.63 242.273 180.995 242.709 180.583 243.264C180.17 243.819 179.956 244.454 179.94 245.168C179.909 245.754 180.012 246.286 180.25 246.762C180.503 247.222 180.9 247.642 181.439 248.023C181.979 248.388 182.669 248.721 183.509 249.022C184.35 249.323 185.349 249.593 186.507 249.831L190.504 250.688C193.201 251.259 195.509 252.012 197.428 252.948C199.347 253.884 200.917 254.986 202.139 256.255C203.36 257.508 204.256 258.92 204.827 260.49C205.414 262.06 205.716 263.773 205.732 265.629C205.716 268.833 204.915 271.546 203.328 273.766C201.742 275.987 199.474 277.676 196.524 278.834C193.589 279.992 190.06 280.571 185.936 280.571C181.701 280.571 178.005 279.944 174.849 278.691C171.708 277.438 169.265 275.511 167.521 272.91C165.792 270.293 164.919 266.946 164.903 262.869H177.466C177.545 264.36 177.918 265.613 178.584 266.629C179.25 267.644 180.186 268.413 181.392 268.936C182.613 269.46 184.064 269.722 185.746 269.722C187.157 269.722 188.339 269.547 189.291 269.198C190.243 268.849 190.964 268.365 191.456 267.747C191.948 267.128 192.201 266.422 192.217 265.629C192.201 264.884 191.956 264.233 191.48 263.678C191.02 263.107 190.258 262.6 189.196 262.156C188.133 261.696 186.697 261.267 184.889 260.871L180.036 259.824C175.721 258.888 172.319 257.326 169.828 255.137C167.354 252.932 166.125 249.926 166.141 246.119C166.125 243.026 166.95 240.322 168.615 238.006C170.296 235.674 172.62 233.858 175.586 232.558C178.568 231.257 181.987 230.607 185.841 230.607C189.775 230.607 193.177 231.265 196.048 232.581C198.919 233.898 201.132 235.754 202.686 238.149C204.256 240.528 205.049 243.312 205.065 246.5H192.408ZM211.769 280V231.273H232.801C236.418 231.273 239.582 231.987 242.295 233.414C245.007 234.842 247.117 236.848 248.623 239.434C250.13 242.019 250.884 245.041 250.884 248.499C250.884 251.988 250.107 255.01 248.552 257.564C247.013 260.117 244.848 262.084 242.057 263.464C239.281 264.844 236.037 265.534 232.325 265.534H219.763V255.256H229.661C231.215 255.256 232.54 254.986 233.634 254.447C234.744 253.892 235.593 253.106 236.18 252.091C236.783 251.076 237.084 249.879 237.084 248.499C237.084 247.103 236.783 245.913 236.18 244.93C235.593 243.93 234.744 243.169 233.634 242.646C232.54 242.106 231.215 241.837 229.661 241.837H224.997V280H211.769ZM256.742 280V231.273H291.86V241.932H269.971V250.307H290.052V260.966H269.971V269.341H291.765V280H256.742ZM344.918 249.545H331.499C331.403 248.435 331.15 247.428 330.737 246.524C330.341 245.62 329.786 244.842 329.072 244.192C328.374 243.526 327.525 243.018 326.526 242.669C325.527 242.305 324.393 242.122 323.124 242.122C320.903 242.122 319.023 242.661 317.485 243.74C315.962 244.819 314.804 246.365 314.011 248.38C313.234 250.394 312.845 252.813 312.845 255.636C312.845 258.618 313.242 261.117 314.035 263.131C314.844 265.13 316.01 266.636 317.532 267.652C319.055 268.651 320.887 269.151 323.028 269.151C324.25 269.151 325.344 269 326.312 268.699C327.279 268.381 328.12 267.929 328.834 267.342C329.548 266.755 330.127 266.05 330.571 265.225C331.031 264.384 331.34 263.44 331.499 262.393L344.918 262.489C344.759 264.551 344.18 266.652 343.181 268.794C342.181 270.919 340.762 272.886 338.922 274.694C337.098 276.487 334.837 277.93 332.141 279.025C329.444 280.119 326.312 280.666 322.743 280.666C318.27 280.666 314.257 279.707 310.704 277.787C307.167 275.868 304.367 273.045 302.305 269.317C300.259 265.59 299.236 261.029 299.236 255.636C299.236 250.212 300.283 245.643 302.376 241.932C304.47 238.204 307.294 235.389 310.847 233.485C314.4 231.566 318.365 230.607 322.743 230.607C325.82 230.607 328.651 231.027 331.237 231.868C333.822 232.708 336.091 233.937 338.042 235.555C339.993 237.157 341.563 239.132 342.752 241.48C343.942 243.827 344.664 246.516 344.918 249.545ZM350.592 241.932V231.273H392.943V241.932H378.287V280H365.248V241.932H350.592Z" fill="white"/>
</g>
<g filter="url(#filter3_d_211_7734)">
<path d="M105.5 169H90L101.5 210.5H119L127.5 188L135 210.5H153L165 169H149.5L144 193L136 169H119L111 192.5L105.5 169Z" fill="white"/>
<path d="M186 162L169.5 169V209.5L186.5 218L186 162Z" fill="white"/>
<path d="M196.5 210.5V170H211L232 190.5V170H246V210.5H231.5L210.5 190V210.5H196.5Z" fill="white"/>
</g>
<path d="M24.5938 12.5L141.999 53.9255V281L24.5939 332L24.5938 12.5Z" fill="url(#paint0_linear_211_7734)" fill-opacity="0.2"/>
<defs>
<filter id="filter0_d_211_7734" x="0" y="0" width="154" height="361" filterUnits="userSpaceOnUse" color-interpolation-filters="sRGB">
<feFlood flood-opacity="0" result="BackgroundImageFix"/>
<feColorMatrix in="SourceAlpha" type="matrix" values="0 0 0 0 0 0 0 0 0 0 0 0 0 0 0 0 0 0 127 0" result="hardAlpha"/>
<feOffset dy="10"/>
<feGaussianBlur stdDeviation="2"/>
<feComposite in2="hardAlpha" operator="out"/>
<feColorMatrix type="matrix" values="0 0 0 0 0 0 0 0 0 0 0 0 0 0 0 0 0 0 0.25 0"/>
<feBlend mode="normal" in2="BackgroundImageFix" result="effect1_dropShadow_211_7734"/>
<feBlend mode="normal" in="SourceGraphic" in2="effect1_dropShadow_211_7734" result="shape"/>
</filter>
<filter id="filter1_d_211_7734" x="90" y="81" width="114" height="78" filterUnits="userSpaceOnUse" color-interpolation-filters="sRGB">
<feFlood flood-opacity="0" result="BackgroundImageFix"/>
<feColorMatrix in="SourceAlpha" type="matrix" values="0 0 0 0 0 0 0 0 0 0 0 0 0 0 0 0 0 0 127 0" result="hardAlpha"/>
<feOffset dy="4"/>
<feGaussianBlur stdDeviation="2"/>
<feComposite in2="hardAlpha" operator="out"/>
<feColorMatrix type="matrix" values="0 0 0 0 0 0 0 0 0 0 0 0 0 0 0 0 0 0 0.25 0"/>
<feBlend mode="normal" in2="BackgroundImageFix" result="effect1_dropShadow_211_7734"/>
<feBlend mode="normal" in="SourceGraphic" in2="effect1_dropShadow_211_7734" result="shape"/>
</filter>
<filter id="filter2_d_211_7734" x="164.904" y="230.607" width="236.039" height="58.0586" filterUnits="userSpaceOnUse" color-interpolation-filters="sRGB">
<feFlood flood-opacity="0" result="BackgroundImageFix"/>
<feColorMatrix in="SourceAlpha" type="matrix" values="0 0 0 0 0 0 0 0 0 0 0 0 0 0 0 0 0 0 127 0" result="hardAlpha"/>
<feOffset dx="4" dy="4"/>
<feGaussianBlur stdDeviation="2"/>
<feComposite in2="hardAlpha" operator="out"/>
<feColorMatrix type="matrix" values="0 0 0 0 0 0 0 0 0 0 0 0 0 0 0 0 0 0 0.25 0"/>
<feBlend mode="normal" in2="BackgroundImageFix" result="effect1_dropShadow_211_7734"/>
<feBlend mode="normal" in="SourceGraphic" in2="effect1_dropShadow_211_7734" result="shape"/>
</filter>
<filter id="filter3_d_211_7734" x="90" y="162" width="164" height="64" filterUnits="userSpaceOnUse" color-interpolation-filters="sRGB">
<feFlood flood-opacity="0" result="BackgroundImageFix"/>
<feColorMatrix in="SourceAlpha" type="matrix" values="0 0 0 0 0 0 0 0 0 0 0 0 0 0 0 0 0 0 127 0" result="hardAlpha"/>
<feOffset dx="4" dy="4"/>
<feGaussianBlur stdDeviation="2"/>
<feComposite in2="hardAlpha" operator="out"/>
<feColorMatrix type="matrix" values="0 0 0 0 0 0 0 0 0 0 0 0 0 0 0 0 0 0 0.25 0"/>
<feBlend mode="normal" in2="BackgroundImageFix" result="effect1_dropShadow_211_7734"/>
<feBlend mode="normal" in="SourceGraphic" in2="effect1_dropShadow_211_7734" result="shape"/>
</filter>
<linearGradient id="paint0_linear_211_7734" x1="26.5254" y1="101.854" x2="141.394" y2="159.284" gradientUnits="userSpaceOnUse">
<stop stop-color="#039999"/>
<stop offset="1" stop-color="#005982" stop-opacity="0"/>
</linearGradient>
</defs>
</svg>
