<svg width="30" height="30" viewBox="0 0 30 30" fill="none" xmlns="http://www.w3.org/2000/svg">
<path d="M15 16.25C15.3315 16.25 15.6495 16.1183 15.8839 15.8839C16.1183 15.6495 16.25 15.3315 16.25 15V2.5C16.25 2.16848 16.1183 1.85054 15.8839 1.61612C15.6495 1.3817 15.3315 1.25 15 1.25C14.6685 1.25 14.3505 1.3817 14.1161 1.61612C13.8817 1.85054 13.75 2.16848 13.75 2.5V15C13.75 15.3315 13.8817 15.6495 14.1161 15.8839C14.3505 16.1183 14.6685 16.25 15 16.25Z" fill="#005982"/>
<path d="M20.7375 3.88786C20.4425 3.73536 20.0989 3.70632 19.7824 3.80712C19.466 3.90792 19.2025 4.13031 19.05 4.42536C18.8975 4.72041 18.8685 5.06396 18.9693 5.38043C19.0701 5.6969 19.2925 5.96036 19.5875 6.11286C21.5793 7.1412 23.1679 8.80893 24.0982 10.8484C25.0285 12.8878 25.2466 15.1807 24.7174 17.359C24.1883 19.5372 22.9427 21.4745 21.1804 22.86C19.4182 24.2454 17.2416 24.9985 15 24.9985C12.7584 24.9985 10.5818 24.2454 8.81958 22.86C7.05735 21.4745 5.81171 19.5372 5.28259 17.359C4.75347 15.1807 4.97156 12.8878 5.90185 10.8484C6.83215 8.80893 8.4207 7.1412 10.4125 6.11286C10.5586 6.03735 10.6884 5.9338 10.7945 5.80813C10.9006 5.68246 10.9808 5.53713 11.0308 5.38043C11.0807 5.22373 11.0992 5.05873 11.0854 4.89486C11.0715 4.73099 11.0255 4.57145 10.95 4.42536C10.8745 4.27926 10.771 4.14947 10.6453 4.04339C10.5196 3.93731 10.3743 3.85703 10.2176 3.80712C10.0609 3.7572 9.89588 3.73865 9.73201 3.7525C9.56814 3.76635 9.4086 3.81235 9.26251 3.88786C6.77337 5.17384 4.78843 7.25877 3.62622 9.80805C2.46402 12.3573 2.19194 15.2231 2.85365 17.9456C3.51536 20.668 5.07249 23.0892 7.27516 24.8207C9.47783 26.5521 12.1983 27.4933 15 27.4933C17.8017 27.4933 20.5222 26.5521 22.7249 24.8207C24.9275 23.0892 26.4847 20.668 27.1464 17.9456C27.8081 15.2231 27.536 12.3573 26.3738 9.80805C25.2116 7.25877 23.2266 5.17384 20.7375 3.88786Z" fill="#005982"/>
</svg>
    