<svg width="22" height="22" viewBox="0 0 22 22" fill="none" xmlns="http://www.w3.org/2000/svg">
<path d="M18.7 0H3.3C2.42479 0 1.58542 0.347678 0.966548 0.966548C0.347678 1.58542 0 2.42479 0 3.3V18.7C0 19.5752 0.347678 20.4146 0.966548 21.0335C1.58542 21.6523 2.42479 22 3.3 22H18.7C18.8809 21.9975 19.0613 21.9791 19.239 21.945L19.569 21.868H19.646H19.701L20.108 21.714L20.251 21.637C20.361 21.571 20.482 21.516 20.592 21.439C20.7389 21.3309 20.8785 21.2133 21.01 21.087L21.087 20.988C21.195 20.8786 21.2943 20.7609 21.384 20.636L21.483 20.493C21.5598 20.3705 21.6261 20.2417 21.681 20.108C21.7112 20.0552 21.7369 20 21.758 19.943C21.813 19.811 21.846 19.668 21.89 19.525V19.36C21.9524 19.1451 21.9893 18.9235 22 18.7V3.3C22 2.42479 21.6523 1.58542 21.0335 0.966548C20.4146 0.347678 19.5752 0 18.7 0ZM3.3 19.8C3.00826 19.8 2.72847 19.6841 2.52218 19.4778C2.31589 19.2715 2.2 18.9917 2.2 18.7V13.959L5.819 10.329C5.92126 10.2259 6.04292 10.1441 6.17697 10.0882C6.31101 10.0324 6.45479 10.0036 6.6 10.0036C6.74521 10.0036 6.88899 10.0324 7.02303 10.0882C7.15708 10.1441 7.27874 10.2259 7.381 10.329L16.841 19.8H3.3ZM19.8 18.7C19.799 18.8356 19.7729 18.9699 19.723 19.096C19.6979 19.1496 19.6684 19.2011 19.635 19.25C19.6056 19.2966 19.5725 19.3407 19.536 19.382L13.651 13.497L14.619 12.529C14.7213 12.4259 14.8429 12.3441 14.977 12.2882C15.111 12.2324 15.2548 12.2036 15.4 12.2036C15.5452 12.2036 15.689 12.2324 15.823 12.2882C15.9571 12.3441 16.0787 12.4259 16.181 12.529L19.8 16.159V18.7ZM19.8 13.046L17.732 11C17.1025 10.4027 16.2678 10.0697 15.4 10.0697C14.5322 10.0697 13.6975 10.4027 13.068 11L12.1 11.968L8.932 8.8C8.30249 8.20269 7.46779 7.86971 6.6 7.86971C5.73221 7.86971 4.89751 8.20269 4.268 8.8L2.2 10.846V3.3C2.2 3.00826 2.31589 2.72847 2.52218 2.52218C2.72847 2.31589 3.00826 2.2 3.3 2.2H18.7C18.9917 2.2 19.2715 2.31589 19.4778 2.52218C19.6841 2.72847 19.8 3.00826 19.8 3.3V13.046ZM12.65 4.4C12.3237 4.4 12.0047 4.49677 11.7333 4.67808C11.462 4.85938 11.2505 5.11707 11.1256 5.41857C11.0007 5.72007 10.968 6.05183 11.0317 6.3719C11.0954 6.69197 11.2525 6.98597 11.4833 7.21673C11.714 7.44748 12.008 7.60463 12.3281 7.6683C12.6482 7.73196 12.9799 7.69929 13.2814 7.5744C13.5829 7.44952 13.8406 7.23803 14.0219 6.96669C14.2032 6.69535 14.3 6.37634 14.3 6.05C14.3 5.61239 14.1262 5.19271 13.8167 4.88327C13.5073 4.57384 13.0876 4.4 12.65 4.4Z" fill="#6C6C6C" fill-opacity="0.45"/>
</svg>
