<svg width="23" height="23" viewBox="0 0 23 23" fill="none" xmlns="http://www.w3.org/2000/svg">
<path d="M8.28418 9.08879C8.28418 9.09184 8.28472 9.09453 8.28472 9.09758V11.2636C8.28472 11.4301 8.41958 11.5649 8.58601 11.5649C8.75243 11.5649 8.8873 11.4301 8.8873 11.2636V9.39008H14.3103V11.2636C14.3103 11.4301 14.4451 11.5649 14.6116 11.5649C14.778 11.5649 14.9129 11.4301 14.9129 11.2636V2.37625C14.9129 1.40712 15.7018 0.602578 16.6709 0.602578H17.0475C17.2138 0.602578 17.3488 0.467716 17.3488 0.301289C17.3488 0.134863 17.2138 0 17.0475 0H16.6709C15.3694 0 14.3103 1.07459 14.3103 2.37625V3.7661H8.8873V2.37625C8.8873 1.40712 9.67623 0.602578 10.6454 0.602578H11.022C11.1882 0.602578 11.3233 0.467716 11.3233 0.301289C11.3233 0.134863 11.1882 0 11.022 0H10.6454C9.34388 0 8.28472 1.07459 8.28472 2.37625V4.05878C8.28472 4.06165 8.28418 4.06452 8.28418 4.06757C8.28418 4.07062 8.28472 4.07331 8.28472 4.07636V6.56973C8.28472 6.5726 8.28418 6.57547 8.28418 6.57852C8.28418 6.58156 8.28472 6.58425 8.28472 6.5873V9.08067C8.28472 9.08318 8.28418 9.08587 8.28418 9.08892V9.08879ZM8.88731 4.36871H14.3103V6.27685H8.88731V4.36871ZM8.88731 6.87948H14.3103V8.78762H8.88731V6.87948Z" fill="url(#paint0_linear_838_2853)"/>
<path d="M21.9942 9.77734C21.8277 9.77734 21.6929 9.91239 21.6929 10.0786V13.0607C21.0401 13.1188 20.7234 13.3519 20.3391 13.6161C19.8789 13.933 19.341 14.2919 18.3427 14.2919C17.3441 14.2919 16.8197 13.9328 16.3596 13.6161C15.9153 13.3105 15.5305 13.0465 14.7193 13.0465C13.9239 13.0465 13.5448 13.3087 13.1065 13.6123C12.6468 13.9308 12.1253 14.2919 11.123 14.2919C10.1393 14.2919 9.62266 13.9343 9.16714 13.6188C8.72399 13.3118 8.34056 13.0463 7.52688 13.0463C6.73153 13.0463 6.35184 13.3085 5.91353 13.6122C5.45387 13.9307 4.93003 14.2917 3.92808 14.2917C2.94439 14.2917 2.41229 13.9341 1.95695 13.6186C1.57352 13.3532 1.25538 13.1192 0.602578 13.0609V10.0787C0.602578 9.91243 0.467716 9.77739 0.301289 9.77739C0.134863 9.77739 0 9.91243 0 10.0787V22.6826C0.00860826 22.8562 0.148852 22.9942 0.322628 23H21.9728C22.1465 22.9942 22.2868 22.8562 22.2954 22.6826V10.0787C22.2954 9.91243 22.1605 9.77739 21.9941 9.77739L21.9942 9.77734ZM21.6929 18.4839C21.0401 18.542 20.7234 18.7751 20.3391 19.0393C19.8789 19.3562 19.341 19.715 18.3427 19.715C17.3441 19.715 16.8197 19.356 16.3596 19.0393C15.9153 18.7337 15.5305 18.4697 14.7193 18.4697C13.9239 18.4697 13.5448 18.7319 13.1065 19.0355C12.6468 19.354 12.1253 19.715 11.123 19.715C10.1393 19.715 9.62266 19.3574 9.16714 19.042C8.72399 18.735 8.34056 18.4695 7.52688 18.4695C6.73153 18.4695 6.35184 18.7317 5.91353 19.0353C5.45387 19.3538 4.93003 19.7149 3.92808 19.7149C2.94439 19.7149 2.41229 19.3573 1.95695 19.0418C1.57352 18.7764 1.25538 18.5423 0.602578 18.4841V17.8806C1.45624 17.9459 1.89005 18.2626 2.30036 18.5468C2.73848 18.8505 3.13304 19.1126 3.9284 19.1126C4.74226 19.1126 5.12763 18.8476 5.57076 18.5402C6.02611 18.2247 6.54366 17.8673 7.52734 17.8673C8.5293 17.8673 9.05116 18.2283 9.51082 18.5468C9.94913 18.8505 10.3281 19.1126 11.1234 19.1126C11.9371 19.1126 12.3203 18.8476 12.7635 18.5402C13.2189 18.2247 13.7357 17.8673 14.7194 17.8673C15.718 17.8673 16.2409 18.2264 16.7011 18.5431C17.1453 18.8487 17.5314 19.1126 18.3426 19.1126C19.1537 19.1126 19.5533 18.8487 19.9973 18.5431C20.408 18.2604 20.8392 17.9455 21.6928 17.8806L21.6929 18.4839ZM21.6929 15.7723C21.0401 15.8304 20.7234 16.0635 20.3391 16.3277C19.8789 16.6446 19.341 17.0035 18.3427 17.0035C17.3441 17.0035 16.8197 16.6444 16.3596 16.3277C15.9153 16.0221 15.5305 15.7581 14.7193 15.7581C13.9239 15.7581 13.5448 16.0203 13.1065 16.3239C12.6468 16.6424 12.1253 17.0035 11.123 17.0035C10.1393 17.0035 9.62266 16.6459 9.16714 16.3304C8.72399 16.0234 8.34056 15.758 7.52688 15.758C6.73153 15.758 6.35184 16.0201 5.91353 16.3238C5.45387 16.6423 4.93003 17.0033 3.92808 17.0033C2.94439 17.0033 2.41229 16.6457 1.95695 16.3302C1.57352 16.0648 1.25538 15.8308 0.602578 15.7725V15.169C1.45624 15.2343 1.89005 15.551 2.30036 15.8353C2.73848 16.1389 3.13304 16.4011 3.9284 16.4011C4.74226 16.4011 5.12763 16.136 5.57076 15.8286C6.02611 15.5132 6.54366 15.1557 7.52734 15.1557C8.5293 15.1557 9.05116 15.5168 9.51082 15.8353C9.94913 16.1389 10.3281 16.4011 11.1234 16.4011C11.9371 16.4011 12.3203 16.136 12.7635 15.8286C13.2189 15.5132 13.7357 15.1557 14.7194 15.1557C15.718 15.1557 16.2409 15.5148 16.7011 15.8315C17.1453 16.1371 17.5314 16.4011 18.3426 16.4011C19.1537 16.4011 19.5533 16.1371 19.9973 15.8315C20.408 15.5489 20.8392 15.2339 21.6928 15.169L21.6929 15.7723Z" fill="url(#paint1_linear_838_2853)"/>
<defs>
<linearGradient id="paint0_linear_838_2853" x1="6.63606" y1="-2.62839" x2="16.3572" y2="11.6051" gradientUnits="userSpaceOnUse">
<stop stop-color="#005982"/>
<stop offset="1" stop-color="#039999"/>
</linearGradient>
<linearGradient id="paint1_linear_838_2853" x1="-4.05371" y1="6.7722" x2="2.8291" y2="28.4517" gradientUnits="userSpaceOnUse">
<stop stop-color="#005982"/>
<stop offset="1" stop-color="#039999"/>
</linearGradient>
</defs>
</svg>
