<svg width="96" height="95" viewBox="0 0 96 95" fill="none" xmlns="http://www.w3.org/2000/svg">
<path d="M33.8286 14.8559C33.7767 15.4259 33.5246 15.9598 33.1161 16.3648C32.7075 16.7698 32.1684 17.0203 31.5926 17.0726C31.009 17.0286 30.4599 16.7821 30.042 16.3765C29.6241 15.971 29.3644 15.4325 29.3086 14.8559C29.3562 14.2726 29.6122 13.7251 30.0308 13.3116C30.4493 12.8982 31.003 12.6458 31.5926 12.5997C32.1744 12.6541 32.7181 12.9105 33.1273 13.3234C33.5365 13.7363 33.7849 14.2792 33.8286 14.8559ZM49.0286 14.8559C49.0041 15.4323 48.7555 15.9769 48.3347 16.3762C47.9139 16.7754 47.3535 16.9983 46.7706 16.9983C46.1877 16.9983 45.6273 16.7754 45.2065 16.3762C44.7857 15.9769 44.5371 15.4323 44.5126 14.8559C44.4998 14.5546 44.5487 14.2538 44.6564 13.9716C44.7641 13.6894 44.9283 13.4318 45.1393 13.214C45.3502 12.9963 45.6035 12.8231 45.8838 12.7047C46.1642 12.5864 46.4658 12.5254 46.7706 12.5254C47.0754 12.5254 47.377 12.5864 47.6574 12.7047C47.9377 12.8231 48.191 12.9963 48.4019 13.214C48.6129 13.4318 48.7771 13.6894 48.8848 13.9716C48.9925 14.2538 49.0414 14.5546 49.0286 14.8559ZM41.4326 14.8559C41.3789 15.4265 41.1252 15.9606 40.7153 16.3655C40.3055 16.7703 39.7653 17.0205 39.1886 17.0726C38.6054 17.0285 38.0568 16.7818 37.6396 16.3762C37.2224 15.9706 36.9635 15.4321 36.9086 14.8559C36.9553 14.2729 37.2105 13.7255 37.6284 13.312C38.0463 12.8984 38.5995 12.6459 39.1886 12.5997C39.7713 12.6539 40.3159 12.9099 40.7265 13.3227C41.137 13.7355 41.3871 14.2785 41.4326 14.8559Z" fill="#005982"/>
<path d="M23.6719 28.6463V12.5833C23.6719 11.5335 24.0933 10.5267 24.8434 9.78437C25.5936 9.04204 26.611 8.625 27.6719 8.625H81.2719C82.3327 8.625 83.3502 9.04204 84.1003 9.78437C84.8504 10.5267 85.2719 11.5335 85.2719 12.5833V61.7498C85.2719 62.2696 85.1684 62.7843 84.9674 63.2646C84.7664 63.7448 84.4717 64.1812 84.1003 64.5488C83.7289 64.9163 83.2879 65.2079 82.8026 65.4068C82.3173 65.6057 81.7972 65.7081 81.2719 65.7081H72.3279M23.6719 21.0463H85.2519" stroke="#005982" stroke-linecap="round" stroke-linejoin="round"/>
<path d="M28.5127 34.8852C28.4569 35.4617 28.1971 36.0002 27.7793 36.4058C27.3614 36.8113 26.8123 37.0578 26.2287 37.1018C25.6543 37.0477 25.117 36.7965 24.7101 36.3917C24.3032 35.9868 24.0522 35.4539 24.0007 34.8852C24.0443 34.3084 24.2928 33.7656 24.702 33.3526C25.1112 32.9397 25.6548 32.6833 26.2367 32.6289C26.8248 32.6768 27.3766 32.93 27.7935 33.3433C28.2104 33.7566 28.4653 34.3031 28.5127 34.8852ZM36.1087 34.8852C36.0545 35.4616 35.7959 36.0006 35.3785 36.4063C34.9612 36.8121 34.4121 37.0585 33.8287 37.1018C33.2293 37.1018 32.6544 36.8662 32.2306 36.4468C31.8068 36.0274 31.5687 35.4585 31.5687 34.8654C31.5687 34.2722 31.8068 33.7034 32.2306 33.2839C32.6544 32.8645 33.2293 32.6289 33.8287 32.6289C34.4181 32.6743 34.9717 32.9266 35.3898 33.3403C35.8078 33.754 36.0628 34.3019 36.1087 34.8852ZM20.9087 34.8852C20.8568 35.4551 20.6047 35.989 20.1962 36.394C19.7876 36.799 19.2485 37.0495 18.6727 37.1018C18.0891 37.0578 17.5399 36.8113 17.1221 36.4058C16.7042 36.0002 16.4445 35.4617 16.3887 34.8852C16.4363 34.3018 16.6923 33.7543 17.1109 33.3409C17.5294 32.9274 18.0831 32.675 18.6727 32.6289C19.2545 32.6833 19.7981 32.9397 20.2074 33.3526C20.6166 33.7656 20.865 34.3084 20.9087 34.8852Z" fill="#005982"/>
<path d="M57.6 85.7375H68.32C69.3809 85.7375 70.3983 85.3205 71.1485 84.5782C71.8986 83.8358 72.32 82.829 72.32 81.7792V32.6048C72.32 31.555 71.8986 30.5482 71.1485 29.8059C70.3983 29.0635 69.3809 28.6465 68.32 28.6465H14.748C13.6872 28.6465 12.6698 29.0635 11.9196 29.8059C11.1695 30.5482 10.748 31.555 10.748 32.6048V81.7792C10.748 82.829 11.1695 83.8358 11.9196 84.5782C12.6698 85.3205 13.6872 85.7375 14.748 85.7375H41.6M10.748 41.0677H72.328" stroke="#005982" stroke-linecap="round" stroke-linejoin="round"/>
<path d="M41.104 51.1855H18.916V62.6251H37.216" stroke="#005982" stroke-linecap="round" stroke-linejoin="round"/>
<path d="M41.1048 51.1855H63.2968V62.6251H37.2168" stroke="#005982" stroke-linecap="round" stroke-linejoin="round"/>
<path d="M52.2672 85.749C52.2405 86.4289 51.9488 87.0722 51.4533 87.544C50.9577 88.0157 50.2968 88.2792 49.6092 88.2792C48.9216 88.2792 48.2606 88.0157 47.7651 87.544C47.2695 87.0722 46.9778 86.4289 46.9512 85.749C46.9778 85.069 47.2695 84.4257 47.7651 83.954C48.2606 83.4823 48.9216 83.2188 49.6092 83.2188C50.2968 83.2188 50.9577 83.4823 51.4533 83.954C51.9488 84.4257 52.2405 85.069 52.2672 85.749Z" fill="#4BADAD"/>
<path d="M21.6532 52.8926C21.4083 52.8926 21.2754 53.0147 21.2754 53.2269V60.7681C21.2754 60.9866 21.4083 61.1088 21.6532 61.1088H33.3586C33.5965 61.1088 33.7294 60.9866 33.7294 60.7681V53.2269C33.7294 53.0147 33.5965 52.8926 33.3586 52.8926H21.6532ZM22.164 53.574H32.8409C32.9388 53.574 32.9878 53.6191 32.9878 53.7091V59.418L30.0632 56.9043C29.8253 56.705 29.5524 56.6021 29.2656 56.6021C28.9717 56.6021 28.7058 56.6921 28.468 56.8914L26.0611 58.8715L25.0816 58.055C24.8577 57.8622 24.6128 57.7786 24.3609 57.7786C24.116 57.7786 23.8991 57.8686 23.6752 58.0486L22.017 59.418V53.7091C22.017 53.6191 22.073 53.574 22.164 53.574ZM25.2775 56.9878C25.9701 56.9878 26.5439 56.4542 26.5439 55.8178C26.5439 55.1749 25.9701 54.6477 25.2775 54.6477C24.5778 54.6477 24.0041 55.1749 24.0041 55.8178C24.0041 56.4542 24.5778 56.9878 25.2775 56.9878Z" fill="#005982"/>
<path d="M35.6649 52.8926C35.42 52.8926 35.2871 53.0147 35.2871 53.2269V60.7681C35.2871 60.9866 35.42 61.1088 35.6649 61.1088H47.3703C47.6082 61.1088 47.7412 60.9866 47.7412 60.7681V53.2269C47.7412 53.0147 47.6082 52.8926 47.3703 52.8926H35.6649ZM36.1757 53.574H46.8526C46.9505 53.574 46.9995 53.6191 46.9995 53.7091V59.418L44.0749 56.9043C43.837 56.705 43.5642 56.6021 43.2773 56.6021C42.9834 56.6021 42.7176 56.6921 42.4797 56.8914L40.0728 58.8715L39.0933 58.055C38.8694 57.8622 38.6245 57.7786 38.3726 57.7786C38.1278 57.7786 37.9109 57.8686 37.687 58.0486L36.0288 59.418V53.7091C36.0288 53.6191 36.0847 53.574 36.1757 53.574ZM39.2892 56.9878C39.9819 56.9878 40.5556 56.4542 40.5556 55.8178C40.5556 55.1749 39.9819 54.6477 39.2892 54.6477C38.5895 54.6477 38.0158 55.1749 38.0158 55.8178C38.0158 56.4542 38.5895 56.9878 39.2892 56.9878Z" fill="#005982"/>
<path d="M49.659 52.8926C49.4243 52.8926 49.2969 53.0147 49.2969 53.2269V60.7681C49.2969 60.9866 49.4243 61.1088 49.659 61.1088H60.8766C61.1046 61.1088 61.232 60.9866 61.232 60.7681V53.2269C61.232 53.0147 61.1046 52.8926 60.8766 52.8926H49.659ZM50.1484 53.574H60.3805C60.4743 53.574 60.5213 53.6191 60.5213 53.7091V59.418L57.7185 56.9043C57.4905 56.705 57.229 56.6021 56.9541 56.6021C56.6725 56.6021 56.4177 56.6921 56.1898 56.8914L53.8832 58.8715L52.9445 58.055C52.7299 57.8622 52.4952 57.7786 52.2538 57.7786C52.0192 57.7786 51.8113 57.8686 51.5967 58.0486L50.0076 59.418V53.7091C50.0076 53.6191 50.0613 53.574 50.1484 53.574ZM53.1322 56.9878C53.796 56.9878 54.3458 56.4542 54.3458 55.8178C54.3458 55.1749 53.796 54.6477 53.1322 54.6477C52.4617 54.6477 51.9119 55.1749 51.9119 55.8178C51.9119 56.4542 52.4617 56.9878 53.1322 56.9878Z" fill="#005982"/>
<path d="M19.1992 67.2695L63.8262 67.5263" stroke="#005982" stroke-linecap="round"/>
<path d="M19.1992 76L63.8262 76.2568" stroke="#005982" stroke-linecap="round"/>
<path d="M19.1992 68.8105H34.2479" stroke="#005982" stroke-linecap="round"/>
<path d="M19.1992 77.541H34.2479" stroke="#005982" stroke-linecap="round"/>
<path d="M19.1992 70.3516H34.2479" stroke="#005982" stroke-linecap="round"/>
<path d="M19.1992 79.082H34.2479" stroke="#005982" stroke-linecap="round"/>
<path d="M19.1992 71.8926H63.8262" stroke="#005982" stroke-linecap="round"/>
<path d="M18.6816 44.1621H63.3087" stroke="#005982" stroke-linecap="round"/>
<path d="M18.6816 45.7031H39.9573" stroke="#005982" stroke-linecap="round"/>
<path d="M18.6816 47.2441H39.9573" stroke="#005982" stroke-linecap="round"/>
</svg>
