<svg xmlns="http://www.w3.org/2000/svg" width="17" height="17" viewBox="0 0 17 17" fill="none">
<g clip-path="url(#clip0_5790_18887)">
<path d="M12.5496 8.6001C10.3496 8.6001 8.59961 10.3501 8.59961 12.5501C8.59961 14.7501 10.3496 16.5001 12.5496 16.5001C14.6996 16.5001 16.4996 14.7501 16.4996 12.5501C16.4496 10.3501 14.6996 8.6001 12.5496 8.6001ZM14.3496 11.8501L12.3496 13.8501C12.2496 13.9501 12.0996 14.0001 11.9996 14.0001C11.8996 14.0001 11.7496 13.9501 11.6496 13.8501L10.6496 12.8501C10.4496 12.6501 10.4496 12.3501 10.6496 12.1501C10.8496 11.9501 11.1496 11.9501 11.3496 12.1501L11.9996 12.8001L13.6496 11.1501C13.8496 10.9501 14.1496 10.9501 14.3496 11.1501C14.5496 11.3501 14.5496 11.6501 14.3496 11.8501Z" fill="#005982"/>
<path d="M10.5508 0.5H2.05078C1.20078 0.5 0.550781 1.2 0.550781 2V14C0.550781 14.85 1.20078 15.5 2.05078 15.5H8.55078C7.95078 14.7 7.55078 13.65 7.55078 12.55C7.55078 12.35 7.55078 12.2 7.60078 12H3.05078C2.75078 12 2.55078 11.8 2.55078 11.5C2.55078 11.25 2.75078 11 3.05078 11H7.85078C7.95078 10.65 8.10078 10.3 8.30078 10H3.05078C2.75078 10 2.55078 9.8 2.55078 9.5C2.55078 9.25 2.75078 9 3.05078 9H9.10078C9.90078 8.25 10.9008 7.75 12.0508 7.6V2C12.0508 1.2 11.3508 0.5 10.5508 0.5ZM3.05078 3H7.05078C7.30078 3 7.55078 3.25 7.55078 3.5C7.55078 3.8 7.30078 4 7.05078 4H3.05078C2.75078 4 2.55078 3.8 2.55078 3.5C2.55078 3.25 2.75078 3 3.05078 3ZM9.55078 8H3.05078C2.75078 8 2.55078 7.8 2.55078 7.5C2.55078 7.25 2.75078 7 3.05078 7H9.55078C9.80078 7 10.0508 7.25 10.0508 7.5C10.0508 7.8 9.80078 8 9.55078 8ZM9.55078 6H3.05078C2.75078 6 2.55078 5.8 2.55078 5.5C2.55078 5.25 2.75078 5 3.05078 5H9.55078C9.80078 5 10.0508 5.25 10.0508 5.5C10.0508 5.8 9.80078 6 9.55078 6Z" fill="#005982"/>
</g>
<defs>
<clipPath id="clip0_5790_18887">
<rect width="17" height="17" fill="white"/>
</clipPath>
</defs>
</svg>