<svg xmlns="http://www.w3.org/2000/svg" width="27" height="27" viewBox="0 0 27 27" fill="none">
<path d="M24.4238 22.8263L20.2501 18.6863C21.8702 16.6662 22.6548 14.1022 22.4425 11.5215C22.2302 8.94073 21.0372 6.53939 19.1088 4.81124C17.1804 3.08308 14.6631 2.15946 12.0746 2.23029C9.48612 2.30112 7.02314 3.36102 5.19211 5.19205C3.36108 7.02308 2.30119 9.48606 2.23035 12.0746C2.15952 14.663 3.08314 17.1803 4.8113 19.1087C6.53946 21.0371 8.94079 22.2301 11.5215 22.4424C14.1023 22.6547 16.6663 21.8701 18.6863 20.25L22.8263 24.39C22.9309 24.4955 23.0553 24.5792 23.1924 24.6363C23.3295 24.6934 23.4766 24.7228 23.6251 24.7228C23.7736 24.7228 23.9206 24.6934 24.0577 24.6363C24.1948 24.5792 24.3192 24.4955 24.4238 24.39C24.6266 24.1802 24.7399 23.8999 24.7399 23.6081C24.7399 23.3164 24.6266 23.036 24.4238 22.8263ZM12.3751 20.25C10.8175 20.25 9.295 19.7882 7.99996 18.9228C6.70492 18.0575 5.69556 16.8276 5.09952 15.3886C4.50348 13.9497 4.34753 12.3663 4.65139 10.8387C4.95525 9.31108 5.70527 7.90789 6.80661 6.80655C7.90795 5.70521 9.31114 4.95519 10.8387 4.65133C12.3663 4.34747 13.9497 4.50342 15.3887 5.09946C16.8277 5.6955 18.0576 6.70486 18.9229 7.9999C19.7882 9.29494 20.2501 10.8175 20.2501 12.375C20.2501 14.4636 19.4204 16.4666 17.9435 17.9435C16.4667 19.4203 14.4637 20.25 12.3751 20.25Z" fill="#005982"/>
</svg>