<svg xmlns="http://www.w3.org/2000/svg" width="12" height="12" viewBox="0 0 12 12" fill="none">
<g clip-path="url(#clip0_821_5487)">
<path d="M9.03618 8.30531L11.25 10.5186L10.5186 11.25L8.30531 9.03618C7.48177 9.69636 6.45744 10.0554 5.40196 10.0539C2.83408 10.0539 0.75 7.96985 0.75 5.40196C0.75 2.83408 2.83408 0.75 5.40196 0.75C7.96985 0.75 10.0539 2.83408 10.0539 5.40196C10.0554 6.45744 9.69636 7.48177 9.03618 8.30531ZM7.99931 7.92178C8.6553 7.24718 9.02164 6.34292 9.02016 5.40196C9.02016 3.40265 7.40076 1.78377 5.40196 1.78377C3.40265 1.78377 1.78377 3.40265 1.78377 5.40196C1.78377 7.40076 3.40265 9.02016 5.40196 9.02016C6.34292 9.02164 7.24718 8.6553 7.92178 7.99931L7.99931 7.92178Z" fill="#A4A4A4"/>
</g>
<defs>
<clipPath id="clip0_821_5487">
<rect width="12" height="12" fill="white"/>
</clipPath>
</defs>
</svg>