<svg width="31" height="30" viewBox="0 0 31 30" fill="none" xmlns="http://www.w3.org/2000/svg">
<g id="Group">
<path id="Vector" d="M24.4256 16.175C24.4756 15.8 24.5006 15.4125 24.5006 15C24.5006 14.6 24.4756 14.2 24.4131 13.825L26.9506 11.85C27.1756 11.675 27.2381 11.3375 27.1006 11.0875L24.7006 6.9375C24.5506 6.6625 24.2381 6.575 23.9631 6.6625L20.9756 7.8625C20.3506 7.3875 19.6881 6.9875 18.9506 6.6875L18.5006 3.5125C18.4506 3.2125 18.2006 3 17.9006 3H13.1006C12.8006 3 12.5631 3.2125 12.5131 3.5125L12.0631 6.6875C11.3256 6.9875 10.6506 7.4 10.0381 7.8625L7.05062 6.6625C6.77562 6.5625 6.46313 6.6625 6.31313 6.9375L3.92563 11.0875C3.77563 11.35 3.82563 11.675 4.07563 11.85L6.61312 13.825C6.55062 14.2 6.50063 14.6125 6.50063 15C6.50063 15.3875 6.52562 15.8 6.58812 16.175L4.05063 18.15C3.82563 18.325 3.76313 18.6625 3.90063 18.9125L6.30062 23.0625C6.45062 23.3375 6.76313 23.425 7.03813 23.3375L10.0256 22.1375C10.6506 22.6125 11.3131 23.0125 12.0506 23.3125L12.5006 26.4875C12.5631 26.7875 12.8006 27 13.1006 27H17.9006C18.2006 27 18.4506 26.7875 18.4881 26.4875L18.9381 23.3125C19.6756 23.0125 20.3506 22.6125 20.9631 22.1375L23.9506 23.3375C24.2256 23.4375 24.5381 23.3375 24.6881 23.0625L27.0881 18.9125C27.2381 18.6375 27.1756 18.325 26.9381 18.15L24.4256 16.175ZM15.5006 19.5C13.0256 19.5 11.0006 17.475 11.0006 15C11.0006 12.525 13.0256 10.5 15.5006 10.5C17.9756 10.5 20.0006 12.525 20.0006 15C20.0006 17.475 17.9756 19.5 15.5006 19.5Z" fill="#005982"/>
</g>
</svg>
