<svg width="29" height="22" viewBox="0 0 29 22" fill="none" xmlns="http://www.w3.org/2000/svg">
<path fill-rule="evenodd" clip-rule="evenodd" d="M4.15077 12.0164H4.80068C3.45066 10.7997 2.53403 8.36654 2.53403 6.01662C2.53403 3.73331 3.434 1.3168 4.73403 0.000101549H4.15082C1.8675 0.000101549 0.000874721 2.69999 0.000874721 6.01662C0.000874721 9.31659 1.8674 12.0164 4.15077 12.0164ZM6.00068 12.0164H10.1006C9.31732 11.5496 8.6672 10.883 8.1673 10.0998C7.4007 8.8831 7.03395 7.44991 7.03395 6.01652C7.03395 4.58313 7.40069 3.13329 8.1673 1.91662C8.66739 1.15001 9.31732 0.466569 10.1006 0H5.75063C4.30058 0.883301 3.20082 3.58314 3.20082 6.01652C3.20082 8.61638 4.40082 11.3995 6.00068 12.0163V12.0164Z" fill="url(#paint0_linear_838_2845)"/>
<path fill-rule="evenodd" clip-rule="evenodd" d="M12.4668 12.0163C13.9835 12.0163 15.4334 11.0997 16.3167 9.56625C16.3834 9.46623 16.3834 9.33287 16.3334 9.23286C16.2667 9.13284 16.15 9.06616 16.0333 9.06616H13.7833C13.9167 9.06616 14.05 9.16618 14.1 9.29954C14.1334 9.44956 14.0834 9.59959 13.95 9.68294C13.4833 9.96632 13.0001 10.1163 12.4666 10.1163C11.9501 10.1163 11.45 9.96632 10.9999 9.68294H10.9833C10.1 9.11639 9.46656 8.09974 9.2667 6.88307V6.8664C9.21669 6.58302 9.18335 6.29985 9.18335 6.01648C9.18335 3.74983 10.6667 1.89991 12.4667 1.89991C14.2832 1.89991 15.75 3.74983 15.75 6.01648C15.75 6.29986 15.7333 6.59969 15.6833 6.88311C15.6499 7.04981 15.5166 7.16649 15.3499 7.16649H16.8666C17.0333 7.16649 17.1833 7.03314 17.2 6.86645C17.2333 6.58306 17.25 6.2999 17.25 6.01652C17.25 2.69989 15.1 0 12.4669 0C9.83367 0 7.70038 2.69989 7.70038 6.01652C7.70038 9.31649 9.83365 12.0163 12.4668 12.0163Z" fill="url(#paint1_linear_838_2845)"/>
<path fill-rule="evenodd" clip-rule="evenodd" d="M8.36718 21.9995C8.78392 21.9995 9.13379 21.7494 9.46715 21.4994C9.71719 21.2994 9.98371 21.116 10.1671 21.116C10.3504 21.116 10.6171 21.2994 10.867 21.4994C11.2003 21.7494 11.5502 21.9995 11.9669 21.9995C12.367 21.9995 12.7169 21.7494 13.0502 21.4994C13.3003 21.2994 13.5668 21.116 13.7501 21.116C13.9335 21.116 14.2002 21.2994 14.45 21.4994C14.7834 21.7494 15.1333 21.9995 15.55 21.9995C15.9668 21.9995 16.3166 21.7494 16.65 21.4994C16.9 21.2994 17.1501 21.116 17.3499 21.116C17.5333 21.116 17.7833 21.2994 18.0331 21.4994C18.3832 21.7494 18.733 21.9995 19.1331 21.9995C19.5498 21.9995 19.8997 21.7494 20.2331 21.4994C20.4831 21.2994 20.7496 21.116 20.933 21.116C21.1164 21.116 21.3831 21.2994 21.6329 21.4994C21.9663 21.7494 22.3161 21.9995 22.7329 21.9995C23.1329 21.9995 23.4828 21.7494 23.8328 21.4829C24.0829 21.2996 24.3329 21.1162 24.5161 21.1162C24.7161 21.1162 24.9662 21.2996 25.216 21.4829C25.566 21.7496 25.9159 21.9995 26.316 21.9995C26.7327 21.9995 27.0826 21.7494 27.4159 21.4994C27.666 21.2994 27.9325 21.116 28.1158 21.116C28.2992 21.116 28.4492 20.966 28.4492 20.7826C28.4492 20.5992 28.2992 20.4492 28.1158 20.4492C27.6991 20.4492 27.3492 20.6993 27.0159 20.9658C26.7658 21.1491 26.4993 21.3492 26.316 21.3492C26.1326 21.3492 25.8659 21.1491 25.616 20.9658C25.2827 20.6991 24.9328 20.4492 24.5161 20.4492C24.116 20.4492 23.7661 20.6993 23.4328 20.9658C23.1827 21.1491 22.9162 21.3492 22.7329 21.3492C22.5328 21.3492 22.2828 21.1491 22.033 20.9658C21.6996 20.6991 21.3497 20.4492 20.933 20.4492C20.5162 20.4492 20.1664 20.6993 19.833 20.9658C19.583 21.1491 19.3329 21.3492 19.1331 21.3492C18.9497 21.3492 18.6997 21.1491 18.4499 20.9658C18.0998 20.6991 17.75 20.4492 17.3499 20.4492C16.9332 20.4492 16.5833 20.6993 16.2499 20.9658C15.9999 21.1491 15.7334 21.3492 15.55 21.3492C15.3667 21.3492 15.0999 21.1491 14.8501 20.9658C14.5167 20.6991 14.1669 20.4492 13.7501 20.4492C13.3501 20.4492 13.0002 20.6993 12.6502 20.9658C12.4001 21.1491 12.1501 21.3492 11.9669 21.3492C11.7669 21.3492 11.5169 21.1491 11.267 20.9658C10.917 20.6991 10.5671 20.4492 10.1671 20.4492C9.75032 20.4492 9.40045 20.6993 9.06708 20.9658C8.81704 21.1491 8.55052 21.3492 8.36718 21.3492C8.18383 21.3492 8.03379 21.4825 8.03379 21.6659C8.03379 21.8659 8.18381 21.9993 8.36718 21.9993V21.9995Z" fill="url(#paint2_linear_838_2845)"/>
<path fill-rule="evenodd" clip-rule="evenodd" d="M7.76763 20.015C8.1677 20.015 8.51758 19.7483 8.85094 19.4984C9.10098 19.3151 9.3675 19.115 9.55084 19.115C9.75088 19.115 10.0009 19.3151 10.2507 19.4984C10.5841 19.7485 10.934 20.015 11.3507 20.015C11.7675 20.015 12.1173 19.7483 12.4507 19.4984C12.7007 19.3151 12.9508 19.115 13.1506 19.115C13.334 19.115 13.584 19.3151 13.8338 19.4984C14.1839 19.7485 14.5337 20.015 14.9338 20.015C15.3505 20.015 15.7004 19.7483 16.0338 19.4984C16.2838 19.3151 16.5503 19.115 16.7337 19.115C16.9171 19.115 17.1838 19.3151 17.4336 19.4984C17.767 19.7485 18.1168 20.015 18.5336 20.015C18.9336 20.015 19.2835 19.7483 19.6335 19.4984C19.8836 19.3151 20.1336 19.115 20.3168 19.115C20.5168 19.115 20.7669 19.3151 21.0167 19.4984C21.3667 19.7485 21.7166 20.015 22.1167 20.015C22.5334 20.015 22.8833 19.7483 23.2166 19.4984C23.4667 19.3151 23.7332 19.115 23.9165 19.115C24.0999 19.115 24.3666 19.3151 24.6164 19.4984C24.9498 19.7485 25.2997 20.015 25.7164 20.015C26.1165 20.015 26.4663 19.7483 26.7997 19.4984C27.0498 19.3151 27.3163 19.115 27.4996 19.115C27.683 19.115 27.833 18.965 27.833 18.7816C27.833 18.5983 27.683 18.4482 27.4996 18.4482C27.0995 18.4482 26.7497 18.715 26.3996 18.9648C26.1496 19.1482 25.8996 19.3482 25.7164 19.3482C25.5164 19.3482 25.2663 19.1482 25.0165 18.9648C24.6664 18.7148 24.3166 18.4482 23.9165 18.4482C23.4998 18.4482 23.1499 18.715 22.8166 18.9648C22.5665 19.1482 22.3 19.3482 22.1167 19.3482C21.9333 19.3482 21.6666 19.1482 21.4167 18.9648C21.0834 18.7148 20.7335 18.4482 20.3168 18.4482C19.9167 18.4482 19.5668 18.715 19.2335 18.9648C18.9834 19.1482 18.7169 19.3482 18.5336 19.3482C18.3335 19.3482 18.0835 19.1482 17.8337 18.9648C17.5003 18.7148 17.1504 18.4482 16.7337 18.4482C16.3169 18.4482 15.9671 18.715 15.6337 18.9648C15.3837 19.1482 15.1336 19.3482 14.9338 19.3482C14.7504 19.3482 14.5004 19.1482 14.2506 18.9648C13.9005 18.7148 13.5507 18.4482 13.1506 18.4482C12.7339 18.4482 12.384 18.715 12.0506 18.9648C11.8006 19.1482 11.5341 19.3482 11.3507 19.3482C11.1674 19.3482 10.9006 19.1482 10.6508 18.9648C10.3174 18.7148 9.96758 18.4482 9.55084 18.4482C9.15078 18.4482 8.8009 18.715 8.45087 18.9648C8.20083 19.1482 7.95079 19.3482 7.76763 19.3482C7.5676 19.3482 7.43424 19.4982 7.43424 19.6816C7.43424 19.865 7.5676 20.015 7.76763 20.015Z" fill="url(#paint3_linear_838_2845)"/>
<path fill-rule="evenodd" clip-rule="evenodd" d="M7.51659 18.015C7.93333 18.015 8.2832 17.7649 8.61657 17.4984C8.86661 17.3151 9.13312 17.115 9.31647 17.115C9.49982 17.115 9.76655 17.3151 10.0164 17.4984C10.3498 17.7651 10.6996 18.015 11.1163 18.015C11.5164 18.015 11.8663 17.7649 12.2163 17.4984C12.4664 17.3151 12.7164 17.115 12.8996 17.115C13.0996 17.115 13.3496 17.3151 13.5995 17.4984C13.9495 17.7651 14.2827 18.015 14.6994 18.015C15.1162 18.015 15.466 17.7649 15.7994 17.4984C16.0495 17.3151 16.316 17.115 16.4993 17.115C16.6827 17.115 16.9494 17.3151 17.1992 17.4984C17.5326 17.7651 17.8825 18.015 18.2992 18.015C18.6993 18.015 19.0491 17.7649 19.3825 17.4984C19.6325 17.3151 19.8991 17.115 20.0824 17.115C20.2824 17.115 20.5325 17.3151 20.7823 17.4984C21.1157 17.7651 21.4655 18.015 21.8823 18.015C22.299 18.015 22.6489 17.7649 22.9822 17.4984C23.2323 17.3151 23.4823 17.115 23.6822 17.115C23.8655 17.115 24.1156 17.3151 24.3654 17.4984C24.7155 17.7651 25.0653 18.015 25.4654 18.015C25.8821 18.015 26.232 17.7649 26.5653 17.4984C26.8154 17.3151 27.0819 17.115 27.2652 17.115C27.4486 17.115 27.5986 16.965 27.5986 16.7816C27.5986 16.5983 27.4486 16.4482 27.2652 16.4482C26.8485 16.4482 26.4986 16.715 26.1653 16.9648C25.9152 17.1648 25.6652 17.3482 25.4654 17.3482C25.282 17.3482 25.032 17.1648 24.7821 16.9648C24.4321 16.7148 24.0822 16.4482 23.6822 16.4482C23.2654 16.4482 22.9155 16.715 22.5822 16.9648C22.3321 17.1648 22.0656 17.3482 21.8823 17.3482C21.6989 17.3482 21.4322 17.1648 21.1824 16.9648C20.849 16.7148 20.4991 16.4482 20.0824 16.4482C19.6823 16.4482 19.3325 16.715 18.9824 16.9648C18.7324 17.1648 18.4823 17.3482 18.2992 17.3482C18.0992 17.3482 17.8491 17.1648 17.5993 16.9648C17.2492 16.7148 16.8994 16.4482 16.4993 16.4482C16.0826 16.4482 15.7327 16.715 15.3993 16.9648C15.1493 17.1648 14.8828 17.3482 14.6994 17.3482C14.5161 17.3482 14.2494 17.1648 13.9995 16.9648C13.6661 16.7148 13.3163 16.4482 12.8996 16.4482C12.4995 16.4482 12.1496 16.715 11.8162 16.9648C11.5662 17.1648 11.2997 17.3482 11.1163 17.3482C10.9163 17.3482 10.6663 17.1648 10.4164 16.9648C10.0831 16.7148 9.7332 16.4482 9.31647 16.4482C8.89974 16.4482 8.54986 16.715 8.2165 16.9648C7.96645 17.1648 7.71641 17.3482 7.51659 17.3482C7.33323 17.3482 7.1832 17.4982 7.1832 17.6816C7.1832 17.865 7.33323 18.015 7.51659 18.015Z" fill="url(#paint4_linear_838_2845)"/>
<path d="M8.83387 7.16483L9.58381 9.16476C9.5338 9.23144 9.50047 9.31479 9.50047 9.39814C9.50047 9.58151 9.65049 9.73153 9.83386 9.73153H16.9005C16.9005 9.73153 17.4006 9.7482 17.7504 10.1316C18.0004 10.415 18.1338 10.8315 18.1171 11.3816C18.0338 13.3315 18.1005 17.6481 18.1171 17.6984C18.1171 17.8817 18.2671 18.0151 18.4505 18.0151C18.6339 18.0151 18.7839 17.8651 18.7839 17.6817L18.7672 17.5317L20.1673 16.8817V16.9151C20.1673 17.0985 20.3173 17.2318 20.5007 17.2318C20.6841 17.2318 20.8341 17.0818 20.8341 16.8984C20.8007 14.0819 20.8007 11.9319 20.8674 10.0655C20.9174 8.93215 20.634 8.03224 20.0342 7.39899C19.2176 6.53235 18.1009 6.49902 18.0509 6.49902H8.66768C8.48432 6.49902 8.33429 6.64905 8.33429 6.83241C8.33429 7.01578 8.48432 7.1658 8.66768 7.1658H8.83438L8.83387 7.16483Z" fill="url(#paint5_linear_838_2845)"/>
<path d="M12.5675 9.73234H16.9008H16.9508L17.5674 6.49902H12.5675L12.5675 9.73234Z" fill="url(#paint6_linear_838_2845)"/>
<defs>
<linearGradient id="paint0_linear_838_2845" x1="11.9369" y1="-2.731" x2="2.11013" y2="12.6978" gradientUnits="userSpaceOnUse">
<stop stop-color="#005982"/>
<stop offset="1" stop-color="#039999"/>
</linearGradient>
<linearGradient id="paint1_linear_838_2845" x1="18.9863" y1="-2.73098" x2="8.93731" y2="12.1875" gradientUnits="userSpaceOnUse">
<stop stop-color="#005982"/>
<stop offset="1" stop-color="#039999"/>
</linearGradient>
<linearGradient id="paint2_linear_838_2845" x1="32.1611" y1="20.0969" x2="32.0476" y2="22.8902" gradientUnits="userSpaceOnUse">
<stop stop-color="#005982"/>
<stop offset="1" stop-color="#039999"/>
</linearGradient>
<linearGradient id="paint3_linear_838_2845" x1="31.5419" y1="18.0922" x2="31.4258" y2="20.9151" gradientUnits="userSpaceOnUse">
<stop stop-color="#005982"/>
<stop offset="1" stop-color="#039999"/>
</linearGradient>
<linearGradient id="paint4_linear_838_2845" x1="31.3105" y1="16.0922" x2="31.1946" y2="18.9151" gradientUnits="userSpaceOnUse">
<stop stop-color="#005982"/>
<stop offset="1" stop-color="#039999"/>
</linearGradient>
<linearGradient id="paint5_linear_838_2845" x1="23.1528" y1="3.88174" x2="14.9233" y2="20.6202" gradientUnits="userSpaceOnUse">
<stop stop-color="#005982"/>
<stop offset="1" stop-color="#039999"/>
</linearGradient>
<linearGradient id="paint6_linear_838_2845" x1="18.4765" y1="5.76418" x2="16.6725" y2="10.9753" gradientUnits="userSpaceOnUse">
<stop stop-color="#005982"/>
<stop offset="1" stop-color="#039999"/>
</linearGradient>
</defs>
</svg>
