<svg width="27" height="26" viewBox="0 0 27 26" fill="none" xmlns="http://www.w3.org/2000/svg">
<ellipse cx="13.5" cy="13" rx="13.5" ry="13" fill="#005982"/>
<g clip-path="url(#clip0_965_3877)">
<path fill-rule="evenodd" clip-rule="evenodd" d="M16.4494 19.0651C16.2102 19.3124 15.8189 19.3167 15.5749 19.0748L10.4025 13.9484C10.2868 13.8354 10.1941 13.6989 10.1301 13.5472C10.0661 13.3955 10.0321 13.2318 10.0303 13.0659C10.0285 12.9001 10.0588 12.7356 10.1194 12.5825C10.18 12.4294 10.2696 12.2909 10.3829 12.1753L15.4769 6.89683C15.5925 6.77885 15.7466 6.71154 15.9079 6.70859C16.0692 6.70563 16.2256 6.76725 16.3453 6.88093C16.4046 6.93707 16.4524 7.00538 16.4855 7.08163C16.5187 7.15788 16.5366 7.24045 16.5381 7.32423C16.5397 7.408 16.5248 7.4912 16.4945 7.56867C16.4642 7.64614 16.419 7.71624 16.3618 7.77461L11.6995 12.6042C11.6428 12.662 11.598 12.7313 11.5677 12.8078C11.5373 12.8844 11.5222 12.9667 11.5231 13.0497C11.524 13.1326 11.541 13.2145 11.573 13.2904C11.605 13.3663 11.6514 13.4346 11.7093 13.4911L16.4396 18.1789C16.4975 18.2353 16.5439 18.3036 16.5759 18.3794C16.6079 18.4552 16.6249 18.5371 16.6258 18.62C16.6267 18.7029 16.6115 18.7851 16.5812 18.8617C16.5509 18.9382 16.506 19.0074 16.4494 19.0651Z" fill="#FFF9F9"/>
</g>
<defs>
<clipPath id="clip0_965_3877">
<rect width="6.571" height="12.5446" fill="white" transform="matrix(-0.999938 0.011089 0.011089 0.999938 16.5312 6.70215)"/>
</clipPath>
</defs>
</svg>
