<svg xmlns="http://www.w3.org/2000/svg" width="20" height="19" viewBox="0 0 20 19" fill="none">
  <path d="M9.64335 1.12019C9.75561 0.774694 10.2444 0.774697 10.3566 1.12019L11.8752 5.79395C12.0928 6.46349 12.7167 6.9168 13.4207 6.9168H18.335C18.6983 6.9168 18.8493 7.38165 18.5554 7.59518L14.5797 10.4837C14.0101 10.8975 13.7718 11.631 13.9894 12.3005L15.508 16.9743C15.6202 17.3198 15.2248 17.6071 14.9309 17.3936L10.9552 14.505C10.3856 14.0912 9.61439 14.0912 9.04485 14.505L5.06911 17.3935C4.77522 17.6071 4.37979 17.3198 4.49204 16.9743L6.01064 12.3005C6.22819 11.631 5.98987 10.8975 5.42032 10.4837L1.44459 7.59518C1.15069 7.38165 1.30173 6.9168 1.66501 6.9168H6.57929C7.28328 6.9168 7.90721 6.46349 8.12476 5.79395L9.64335 1.12019Z" stroke="white" stroke-width="1.25"/>
</svg>