<svg width="16" height="16" viewBox="0 0 16 16" fill="none" xmlns="http://www.w3.org/2000/svg">
<g clip-path="url(#clip0_143_2219)">
<mask id="path-1-outside-1_143_2219" maskUnits="userSpaceOnUse" x="-0.166992" y="-0.167969" width="16" height="16" fill="black">
<rect fill="white" x="-0.166992" y="-0.167969" width="16" height="16"/>
<path fill-rule="evenodd" clip-rule="evenodd" d="M4.57301 0.832698H4.65767C4.89167 0.832698 5.04234 0.832698 5.18967 0.846031C5.82409 0.90533 6.42586 1.15463 6.91634 1.56136C7.02967 1.65603 7.13634 1.7627 7.30234 1.92803L7.68634 2.3127C8.25034 2.87603 8.46701 3.0867 8.71767 3.22603C8.86301 3.3067 9.01701 3.3707 9.17701 3.4167C9.45234 3.4947 9.75434 3.49936 10.5517 3.49936H10.835C11.6837 3.49936 12.3683 3.49936 12.909 3.56736C13.4697 3.63803 13.9463 3.7887 14.3383 4.1407C14.4037 4.19936 14.4663 4.26203 14.525 4.32736C14.8777 4.71936 15.0277 5.19603 15.0983 5.7567C15.1663 6.29803 15.1663 6.98203 15.1663 7.8307V9.3707C15.1663 10.5954 15.1663 11.566 15.0643 12.3254C14.959 13.1067 14.7377 13.7394 14.239 14.2387C13.7397 14.7374 13.107 14.9587 12.3257 15.064C11.5657 15.166 10.5957 15.166 9.37034 15.166H6.62901C5.40367 15.166 4.43301 15.166 3.67367 15.064C2.89234 14.9587 2.25967 14.7374 1.76034 14.2387C1.20367 13.682 0.992341 12.9587 0.903008 12.048C0.890101 11.916 0.930155 11.7843 1.01436 11.6819C1.09856 11.5794 1.22002 11.5146 1.35201 11.5017C1.484 11.4888 1.61571 11.5288 1.71817 11.613C1.82062 11.6973 1.88543 11.8187 1.89834 11.9507C1.97901 12.7734 2.15301 13.2174 2.46767 13.5314C2.74967 13.8134 3.13634 13.9827 3.80701 14.0727C4.49234 14.1647 5.39501 14.166 6.66634 14.166H9.33301C10.6043 14.166 11.5077 14.1647 12.193 14.0727C12.863 13.9827 13.2497 13.8134 13.5317 13.5314C13.8137 13.2494 13.983 12.8627 14.073 12.192C14.165 11.5074 14.1663 10.604 14.1663 9.3327V7.8647C14.1663 6.97403 14.1657 6.35336 14.1063 5.88136C14.0483 5.42203 13.9423 5.1747 13.7817 4.99603C13.7464 4.95674 13.709 4.91936 13.6697 4.88403C13.491 4.72336 13.243 4.61736 12.7843 4.55936C12.313 4.50003 11.6917 4.49936 10.801 4.49936H10.4783C9.77967 4.49936 9.32901 4.49936 8.90301 4.37803C8.66967 4.31136 8.44367 4.21803 8.23101 4.10003C7.84434 3.88403 7.52567 3.56536 7.03101 3.07136L6.97967 3.01936L6.61301 2.6527C6.50593 2.54078 6.39405 2.43357 6.27767 2.33136C5.94227 2.05325 5.53081 1.88272 5.09701 1.84203C4.94255 1.83221 4.78774 1.8291 4.63301 1.8327C4.02167 1.8327 3.78567 1.8347 3.59767 1.87003C3.16956 1.95096 2.77579 2.15908 2.46776 2.46722C2.15974 2.77537 1.95177 3.16922 1.87101 3.59736C1.83501 3.78536 1.83301 4.02136 1.83301 4.6327V7.99936C1.83301 8.13197 1.78033 8.25915 1.68656 8.35292C1.59279 8.44669 1.46562 8.49936 1.33301 8.49936C1.2004 8.49936 1.07322 8.44669 0.979454 8.35292C0.885686 8.25915 0.833008 8.13197 0.833008 7.99936V4.5727C0.833008 4.04136 0.833008 3.70403 0.887674 3.4127C1.00557 2.78645 1.30966 2.21033 1.76021 1.75967C2.21076 1.30901 2.78679 1.00476 3.41301 0.886698C3.70501 0.832031 4.04234 0.832031 4.57301 0.832031M5.51167 7.7047C5.55032 7.65159 5.59904 7.60661 5.65507 7.57234C5.7111 7.53806 5.77334 7.51517 5.83822 7.50495C5.9031 7.49474 5.96936 7.4974 6.03321 7.5128C6.09706 7.5282 6.15725 7.55603 6.21034 7.5947L8.96034 9.5947C9.02411 9.64109 9.076 9.7019 9.11178 9.77217C9.14756 9.84244 9.16621 9.92018 9.16621 9.99903C9.16621 10.0779 9.14756 10.1556 9.11178 10.2259C9.076 10.2962 9.02411 10.357 8.96034 10.4034L6.21034 12.4034C6.10298 12.4786 5.97039 12.5086 5.84111 12.487C5.71182 12.4654 5.5962 12.3939 5.51911 12.2879C5.44203 12.1819 5.40966 12.0498 5.42896 11.9202C5.44827 11.7905 5.51771 11.6736 5.62234 11.5947L7.12901 10.4987H1.33301C1.2004 10.4987 1.07322 10.446 0.979454 10.3523C0.885686 10.2585 0.833008 10.1313 0.833008 9.9987C0.833008 9.86609 0.885686 9.73891 0.979454 9.64515C1.07322 9.55138 1.2004 9.4987 1.33301 9.4987H7.12901L5.62234 8.40337C5.56918 8.36477 5.52414 8.31608 5.48981 8.26008C5.45547 8.20407 5.43251 8.14185 5.42223 8.07696C5.41195 8.01208 5.41456 7.94581 5.42991 7.88193C5.44526 7.81806 5.47304 7.75783 5.51167 7.7047Z"/>
</mask>
<path fill-rule="evenodd" clip-rule="evenodd" d="M4.57301 0.832698H4.65767C4.89167 0.832698 5.04234 0.832698 5.18967 0.846031C5.82409 0.90533 6.42586 1.15463 6.91634 1.56136C7.02967 1.65603 7.13634 1.7627 7.30234 1.92803L7.68634 2.3127C8.25034 2.87603 8.46701 3.0867 8.71767 3.22603C8.86301 3.3067 9.01701 3.3707 9.17701 3.4167C9.45234 3.4947 9.75434 3.49936 10.5517 3.49936H10.835C11.6837 3.49936 12.3683 3.49936 12.909 3.56736C13.4697 3.63803 13.9463 3.7887 14.3383 4.1407C14.4037 4.19936 14.4663 4.26203 14.525 4.32736C14.8777 4.71936 15.0277 5.19603 15.0983 5.7567C15.1663 6.29803 15.1663 6.98203 15.1663 7.8307V9.3707C15.1663 10.5954 15.1663 11.566 15.0643 12.3254C14.959 13.1067 14.7377 13.7394 14.239 14.2387C13.7397 14.7374 13.107 14.9587 12.3257 15.064C11.5657 15.166 10.5957 15.166 9.37034 15.166H6.62901C5.40367 15.166 4.43301 15.166 3.67367 15.064C2.89234 14.9587 2.25967 14.7374 1.76034 14.2387C1.20367 13.682 0.992341 12.9587 0.903008 12.048C0.890101 11.916 0.930155 11.7843 1.01436 11.6819C1.09856 11.5794 1.22002 11.5146 1.35201 11.5017C1.484 11.4888 1.61571 11.5288 1.71817 11.613C1.82062 11.6973 1.88543 11.8187 1.89834 11.9507C1.97901 12.7734 2.15301 13.2174 2.46767 13.5314C2.74967 13.8134 3.13634 13.9827 3.80701 14.0727C4.49234 14.1647 5.39501 14.166 6.66634 14.166H9.33301C10.6043 14.166 11.5077 14.1647 12.193 14.0727C12.863 13.9827 13.2497 13.8134 13.5317 13.5314C13.8137 13.2494 13.983 12.8627 14.073 12.192C14.165 11.5074 14.1663 10.604 14.1663 9.3327V7.8647C14.1663 6.97403 14.1657 6.35336 14.1063 5.88136C14.0483 5.42203 13.9423 5.1747 13.7817 4.99603C13.7464 4.95674 13.709 4.91936 13.6697 4.88403C13.491 4.72336 13.243 4.61736 12.7843 4.55936C12.313 4.50003 11.6917 4.49936 10.801 4.49936H10.4783C9.77967 4.49936 9.32901 4.49936 8.90301 4.37803C8.66967 4.31136 8.44367 4.21803 8.23101 4.10003C7.84434 3.88403 7.52567 3.56536 7.03101 3.07136L6.97967 3.01936L6.61301 2.6527C6.50593 2.54078 6.39405 2.43357 6.27767 2.33136C5.94227 2.05325 5.53081 1.88272 5.09701 1.84203C4.94255 1.83221 4.78774 1.8291 4.63301 1.8327C4.02167 1.8327 3.78567 1.8347 3.59767 1.87003C3.16956 1.95096 2.77579 2.15908 2.46776 2.46722C2.15974 2.77537 1.95177 3.16922 1.87101 3.59736C1.83501 3.78536 1.83301 4.02136 1.83301 4.6327V7.99936C1.83301 8.13197 1.78033 8.25915 1.68656 8.35292C1.59279 8.44669 1.46562 8.49936 1.33301 8.49936C1.2004 8.49936 1.07322 8.44669 0.979454 8.35292C0.885686 8.25915 0.833008 8.13197 0.833008 7.99936V4.5727C0.833008 4.04136 0.833008 3.70403 0.887674 3.4127C1.00557 2.78645 1.30966 2.21033 1.76021 1.75967C2.21076 1.30901 2.78679 1.00476 3.41301 0.886698C3.70501 0.832031 4.04234 0.832031 4.57301 0.832031M5.51167 7.7047C5.55032 7.65159 5.59904 7.60661 5.65507 7.57234C5.7111 7.53806 5.77334 7.51517 5.83822 7.50495C5.9031 7.49474 5.96936 7.4974 6.03321 7.5128C6.09706 7.5282 6.15725 7.55603 6.21034 7.5947L8.96034 9.5947C9.02411 9.64109 9.076 9.7019 9.11178 9.77217C9.14756 9.84244 9.16621 9.92018 9.16621 9.99903C9.16621 10.0779 9.14756 10.1556 9.11178 10.2259C9.076 10.2962 9.02411 10.357 8.96034 10.4034L6.21034 12.4034C6.10298 12.4786 5.97039 12.5086 5.84111 12.487C5.71182 12.4654 5.5962 12.3939 5.51911 12.2879C5.44203 12.1819 5.40966 12.0498 5.42896 11.9202C5.44827 11.7905 5.51771 11.6736 5.62234 11.5947L7.12901 10.4987H1.33301C1.2004 10.4987 1.07322 10.446 0.979454 10.3523C0.885686 10.2585 0.833008 10.1313 0.833008 9.9987C0.833008 9.86609 0.885686 9.73891 0.979454 9.64515C1.07322 9.55138 1.2004 9.4987 1.33301 9.4987H7.12901L5.62234 8.40337C5.56918 8.36477 5.52414 8.31608 5.48981 8.26008C5.45547 8.20407 5.43251 8.14185 5.42223 8.07696C5.41195 8.01208 5.41456 7.94581 5.42991 7.88193C5.44526 7.81806 5.47304 7.75783 5.51167 7.7047Z" fill="#2F80ED"/>
<path d="M5.18967 0.846031L5.21294 0.597115L5.21221 0.597049L5.18967 0.846031ZM6.91634 1.56136L7.07661 1.36949L7.07592 1.36892L6.91634 1.56136ZM7.30234 1.92803L7.47927 1.75141L7.47876 1.7509L7.30234 1.92803ZM7.68634 2.3127L7.50941 2.48932L7.50967 2.48958L7.68634 2.3127ZM8.71767 3.22603L8.59621 3.44454L8.59635 3.44462L8.71767 3.22603ZM9.17701 3.4167L9.10793 3.65697L9.10887 3.65723L9.17701 3.4167ZM12.909 3.56736L12.9403 3.31933L12.9402 3.31932L12.909 3.56736ZM14.3383 4.1407L14.5054 3.95469L14.3383 4.1407ZM14.525 4.32736L14.339 4.4944L14.3392 4.49457L14.525 4.32736ZM15.0983 5.7567L15.3464 5.72554L15.3464 5.72544L15.0983 5.7567ZM15.0643 12.3254L15.3121 12.3588L15.3121 12.3586L15.0643 12.3254ZM14.239 14.2387L14.4157 14.4156L14.4159 14.4154L14.239 14.2387ZM12.3257 15.064L12.3589 15.3118L12.3591 15.3118L12.3257 15.064ZM3.67367 15.064L3.64027 15.3118L3.64039 15.3118L3.67367 15.064ZM1.76034 14.2387L1.58356 14.4155L1.58368 14.4156L1.76034 14.2387ZM0.903008 12.048L0.654195 12.0724L0.654202 12.0724L0.903008 12.048ZM1.89834 11.9507L1.64953 11.975L1.64953 11.9751L1.89834 11.9507ZM2.46767 13.5314L2.64445 13.3546L2.64426 13.3544L2.46767 13.5314ZM3.80701 14.0727L3.84027 13.8249L3.84026 13.8249L3.80701 14.0727ZM12.193 14.0727L12.2263 14.3205L12.2263 14.3205L12.193 14.0727ZM14.073 12.192L13.8252 12.1587L13.8252 12.1588L14.073 12.192ZM14.1063 5.88136L14.3544 5.85018L14.3544 5.85005L14.1063 5.88136ZM13.7817 4.99603L13.5958 5.16318L13.5958 5.1632L13.7817 4.99603ZM13.6697 4.88403L13.5025 5.06992L13.5025 5.06994L13.6697 4.88403ZM12.7843 4.55936L12.8157 4.31134L12.8156 4.31132L12.7843 4.55936ZM8.90301 4.37803L8.83433 4.61841L8.83453 4.61847L8.90301 4.37803ZM8.23101 4.10003L8.10909 4.31829L8.10971 4.31864L8.23101 4.10003ZM7.03101 3.07136L6.85309 3.247L6.85435 3.24826L7.03101 3.07136ZM6.97967 3.01936L7.15759 2.84373L7.15645 2.84259L6.97967 3.01936ZM6.61301 2.6527L6.43232 2.82557L6.43623 2.82947L6.61301 2.6527ZM6.27767 2.33136L6.44271 2.14345L6.43725 2.13892L6.27767 2.33136ZM5.09701 1.84203L5.12036 1.59301L5.11287 1.59253L5.09701 1.84203ZM4.63301 1.8327V2.08277L4.63882 2.08263L4.63301 1.8327ZM3.59767 1.87003L3.5515 1.62433L3.55124 1.62438L3.59767 1.87003ZM1.87101 3.59736L2.11655 3.64438L2.11668 3.64371L1.87101 3.59736ZM1.83301 7.99936H2.08301H1.83301ZM0.833008 7.99936H0.583008H0.833008ZM0.887674 3.4127L0.64199 3.36645L0.641963 3.36659L0.887674 3.4127ZM3.41301 0.886698L3.367 0.640967L3.36669 0.641026L3.41301 0.886698ZM5.51167 7.7047L5.30952 7.55761L5.30947 7.55768L5.51167 7.7047ZM6.21034 7.5947L6.06316 7.79678L6.0633 7.79688L6.21034 7.5947ZM8.96034 9.5947L9.10741 9.39253L9.10738 9.39251L8.96034 9.5947ZM8.96034 10.4034L9.10738 10.6055L9.10741 10.6055L8.96034 10.4034ZM6.21034 12.4034L6.35378 12.6082L6.35738 12.6055L6.21034 12.4034ZM5.62234 11.5947L5.47525 11.3925L5.47176 11.3951L5.62234 11.5947ZM7.12901 10.4987L7.27607 10.7009L7.89767 10.2487H7.12901V10.4987ZM1.33301 10.4987V10.7487V10.4987ZM7.12901 9.4987V9.7487H7.89804L7.27601 9.29649L7.12901 9.4987ZM5.62234 8.40337L5.76935 8.20115L5.76921 8.20105L5.62234 8.40337ZM4.57301 1.0827H4.65767V0.582698H4.57301V1.0827ZM4.65767 1.0827C4.89511 1.0827 5.03339 1.08291 5.16714 1.09501L5.21221 0.597049C5.05129 0.582486 4.88824 0.582698 4.65767 0.582698V1.0827ZM5.16641 1.09495C5.75074 1.14956 6.305 1.37919 6.75676 1.75381L7.07592 1.36892C6.54672 0.930083 5.89744 0.661096 5.21294 0.597116L5.16641 1.09495ZM6.75607 1.75323C6.85916 1.83934 6.95721 1.93713 7.12592 2.10516L7.47876 1.7509C7.31547 1.58826 7.20019 1.47272 7.07661 1.36949L6.75607 1.75323ZM7.12541 2.10465L7.50941 2.48932L7.86327 2.13607L7.47927 1.75141L7.12541 2.10465ZM7.50967 2.48958C8.06287 3.04213 8.3077 3.28417 8.59621 3.44454L8.83913 3.00752C8.62632 2.88922 8.43781 2.70993 7.86301 2.13582L7.50967 2.48958ZM8.59635 3.44462C8.75816 3.53443 8.92968 3.60572 9.10793 3.65697L9.24608 3.17643C9.10434 3.13568 8.96786 3.07897 8.839 3.00744L8.59635 3.44462ZM9.10887 3.65723C9.42556 3.74695 9.76915 3.74936 10.5517 3.74936V3.24936C9.73953 3.24936 9.47912 3.24245 9.24515 3.17616L9.10887 3.65723ZM10.5517 3.74936H10.835V3.24936H10.5517V3.74936ZM10.835 3.74936C11.6897 3.74936 12.3563 3.74981 12.8778 3.81541L12.9402 3.31932C12.3804 3.24892 11.6776 3.24936 10.835 3.24936V3.74936ZM12.8777 3.8154C13.413 3.88286 13.8324 4.0224 14.1713 4.32671L14.5054 3.95469C14.0603 3.55499 13.5264 3.3932 12.9403 3.31933L12.8777 3.8154ZM14.1713 4.32671C14.23 4.37939 14.2863 4.43573 14.339 4.4944L14.711 4.16033C14.6464 4.08834 14.5774 4.01933 14.5054 3.95469L14.1713 4.32671ZM14.3392 4.49457C14.6439 4.83328 14.7828 5.2525 14.8503 5.78796L15.3464 5.72544C15.2725 5.13956 15.1115 4.60545 14.7109 4.16016L14.3392 4.49457ZM14.8503 5.78786C14.9159 6.31011 14.9163 6.976 14.9163 7.8307H15.4163C15.4163 6.98807 15.4168 6.28595 15.3464 5.72554L14.8503 5.78786ZM14.9163 7.8307V9.3707H15.4163V7.8307H14.9163ZM14.9163 9.3707C14.9163 10.602 14.9158 11.5532 14.8166 12.2921L15.3121 12.3586C15.4169 11.5789 15.4163 10.5887 15.4163 9.3707H14.9163ZM14.8166 12.292C14.715 13.0457 14.5067 13.6169 14.0621 14.062L14.4159 14.4154C14.9687 13.8618 15.203 13.1677 15.3121 12.3588L14.8166 12.292ZM14.0623 14.0618C13.6172 14.5064 13.046 14.7147 12.2923 14.8163L12.3591 15.3118C13.168 15.2027 13.8621 14.9684 14.4157 14.4156L14.0623 14.0618ZM12.2924 14.8163C11.5528 14.9155 10.6023 14.916 9.37034 14.916V15.416C10.589 15.416 11.5785 15.4165 12.3589 15.3118L12.2924 14.8163ZM9.37034 14.916H6.62901V15.416H9.37034V14.916ZM6.62901 14.916C5.39703 14.916 4.44588 14.9155 3.70696 14.8163L3.64039 15.3118C4.42014 15.4165 5.41032 15.416 6.62901 15.416V14.916ZM3.70708 14.8163C2.95333 14.7147 2.38215 14.5064 1.937 14.0618L1.58368 14.4156C2.1372 14.9684 2.83135 15.2027 3.64027 15.3118L3.70708 14.8163ZM1.93712 14.0619C1.44106 13.5659 1.239 12.9124 1.15181 12.0236L0.654202 12.0724C0.745684 13.005 0.966289 13.7982 1.58356 14.4155L1.93712 14.0619ZM1.15182 12.0237C1.14537 11.9577 1.1654 11.8918 1.2075 11.8406L0.821216 11.5231C0.694914 11.6768 0.634834 11.8744 0.654195 12.0724L1.15182 12.0237ZM1.2075 11.8406C1.24961 11.7894 1.31034 11.757 1.37634 11.7505L1.32768 11.2529C1.1297 11.2722 0.947518 11.3695 0.821216 11.5231L1.2075 11.8406ZM1.37634 11.7505C1.44234 11.7441 1.5082 11.7641 1.55943 11.8062L1.8769 11.4199C1.72322 11.2936 1.52566 11.2335 1.32768 11.2529L1.37634 11.7505ZM1.55943 11.8062C1.61067 11.8483 1.64307 11.909 1.64953 11.975L2.14715 11.9264C2.12779 11.7284 2.03058 11.5462 1.8769 11.4199L1.55943 11.8062ZM1.64953 11.9751C1.73235 12.8197 1.91564 13.3337 2.29109 13.7083L2.64426 13.3544C2.39037 13.1011 2.22566 12.727 2.14715 11.9263L1.64953 11.9751ZM2.2909 13.7081C2.62703 14.0443 3.07518 14.2267 3.77376 14.3205L3.84026 13.8249C3.19751 13.7387 2.87232 13.5825 2.64445 13.3546L2.2909 13.7081ZM3.77375 14.3205C4.47958 14.4152 5.40208 14.416 6.66634 14.416V13.916C5.38793 13.916 4.5051 13.9142 3.84027 13.8249L3.77375 14.3205ZM6.66634 14.416H9.33301V13.916H6.66634V14.416ZM9.33301 14.416C10.5973 14.416 11.5204 14.4152 12.2263 14.3205L12.1597 13.8249C11.4949 13.9142 10.6114 13.916 9.33301 13.916V14.416ZM12.2263 14.3205C12.9242 14.2267 13.3723 14.0442 13.7085 13.7081L13.3549 13.3546C13.127 13.5825 12.8018 13.7387 12.1597 13.8249L12.2263 14.3205ZM13.7085 13.7081C14.0446 13.372 14.227 12.9239 14.3208 12.2253L13.8252 12.1588C13.739 12.8015 13.5828 13.1267 13.3549 13.3546L13.7085 13.7081ZM14.3208 12.2253C14.4155 11.5201 14.4163 10.5969 14.4163 9.3327H13.9163C13.9163 10.6111 13.9145 11.4946 13.8252 12.1587L14.3208 12.2253ZM14.4163 9.3327V7.8647H13.9163V9.3327H14.4163ZM14.4163 7.8647C14.4163 6.98081 14.4161 6.34145 14.3544 5.85018L13.8583 5.91255C13.9152 6.36528 13.9163 6.96725 13.9163 7.8647H14.4163ZM14.3544 5.85005C14.2932 5.36528 14.176 5.06068 13.9676 4.82887L13.5958 5.1632C13.7087 5.28872 13.8035 5.47878 13.8583 5.91268L14.3544 5.85005ZM13.9676 4.82889C13.9263 4.78301 13.8827 4.73936 13.8368 4.69812L13.5025 5.06994C13.5352 5.09935 13.5664 5.13047 13.5958 5.16318L13.9676 4.82889ZM13.8368 4.69814C13.605 4.48964 13.2997 4.37254 12.8157 4.31134L12.753 4.80739C13.1863 4.86219 13.377 4.95709 13.5025 5.06992L13.8368 4.69814ZM12.8156 4.31132C12.3249 4.24956 11.6849 4.24936 10.801 4.24936V4.74936C11.6985 4.74936 12.3011 4.7505 12.7531 4.80741L12.8156 4.31132ZM10.801 4.24936H10.4783V4.74936H10.801V4.24936ZM10.4783 4.24936C9.7688 4.24936 9.35691 4.24737 8.97149 4.13759L8.83453 4.61847C9.3011 4.75136 9.79055 4.74936 10.4783 4.74936V4.24936ZM8.97169 4.13765C8.75656 4.07618 8.54822 3.99013 8.3523 3.88143L8.10971 4.31864C8.33913 4.44593 8.58279 4.54654 8.83433 4.61841L8.97169 4.13765ZM8.35293 3.88178C8.00284 3.68621 7.71008 3.39621 7.20766 2.89447L6.85435 3.24826C7.34127 3.73452 7.68584 4.08185 8.10909 4.31829L8.35293 3.88178ZM7.20892 2.89573L7.15759 2.84373L6.80176 3.195L6.85309 3.247L7.20892 2.89573ZM7.15645 2.84259L6.78978 2.47592L6.43623 2.82947L6.8029 3.19614L7.15645 2.84259ZM6.79365 2.47987C6.68157 2.36273 6.56446 2.2505 6.44264 2.14352L6.1127 2.51921C6.22364 2.61664 6.3303 2.71884 6.43237 2.82552L6.79365 2.47987ZM6.43725 2.13892C6.06315 1.82871 5.60421 1.63851 5.12035 1.59312L5.07366 2.09094C5.45741 2.12693 5.8214 2.27779 6.1181 2.52381L6.43725 2.13892ZM5.11287 1.59253C4.95119 1.58226 4.78915 1.579 4.62719 1.58277L4.63882 2.08263C4.78632 2.0792 4.9339 2.08217 5.08115 2.09153L5.11287 1.59253ZM4.63301 1.5827C4.03381 1.5827 3.76832 1.58358 3.5515 1.62433L3.64385 2.11573C3.80303 2.08581 4.00954 2.0827 4.63301 2.0827V1.5827ZM3.55124 1.62438C3.07373 1.71465 2.63452 1.94678 2.29095 2.29048L2.64458 2.64397C2.91706 2.37138 3.26539 2.18727 3.64411 2.11568L3.55124 1.62438ZM2.29095 2.29048C1.94739 2.63418 1.71542 3.07348 1.62534 3.55102L2.11668 3.64371C2.18812 3.26496 2.37209 2.91656 2.64458 2.64397L2.29095 2.29048ZM1.62547 3.55035C1.58385 3.76769 1.58301 4.03375 1.58301 4.6327H2.08301C2.08301 4.00898 2.08617 3.80304 2.11655 3.64438L1.62547 3.55035ZM1.58301 4.6327V7.99936H2.08301V4.6327H1.58301ZM1.58301 7.99936C1.58301 8.06567 1.55667 8.12926 1.50978 8.17614L1.86334 8.5297C2.00399 8.38904 2.08301 8.19828 2.08301 7.99936H1.58301ZM1.50978 8.17614C1.4629 8.22303 1.39931 8.24936 1.33301 8.24936V8.74936C1.53192 8.74936 1.72269 8.67035 1.86334 8.5297L1.50978 8.17614ZM1.33301 8.24936C1.2667 8.24936 1.20312 8.22303 1.15623 8.17614L0.802678 8.5297C0.94333 8.67035 1.1341 8.74936 1.33301 8.74936V8.24936ZM1.15623 8.17614C1.10935 8.12926 1.08301 8.06567 1.08301 7.99936H0.583008C0.583008 8.19828 0.662026 8.38904 0.802678 8.5297L1.15623 8.17614ZM1.08301 7.99936V4.5727H0.583008V7.99936H1.08301ZM1.08301 4.5727C1.08301 4.03232 1.08399 3.72203 1.13339 3.4588L0.641963 3.36659C0.582022 3.68603 0.583008 4.05041 0.583008 4.5727H1.08301ZM1.13336 3.45895C1.24195 2.88214 1.52203 2.35151 1.93701 1.93642L1.58341 1.58292C1.0973 2.06916 0.769192 2.69075 0.64199 3.36645L1.13336 3.45895ZM1.93701 1.93642C2.35199 1.52134 2.88254 1.24111 3.45932 1.13237L3.36669 0.641026C2.69103 0.768406 2.06952 1.09667 1.58341 1.58292L1.93701 1.93642ZM3.45901 1.13243C3.72298 1.08301 4.03336 1.08203 4.57301 1.08203V0.582031C4.05132 0.582031 3.68704 0.581052 3.367 0.640967L3.45901 1.13243ZM5.71383 7.85178C5.73315 7.82523 5.75751 7.80274 5.78553 7.7856L5.52462 7.35907C5.44058 7.41048 5.36748 7.47795 5.30952 7.55761L5.71383 7.85178ZM5.78553 7.7856C5.81354 7.76847 5.84466 7.75702 5.8771 7.75191L5.79934 7.25799C5.70201 7.27332 5.60866 7.30766 5.52462 7.35907L5.78553 7.7856ZM5.8771 7.75191C5.90954 7.7468 5.94267 7.74814 5.97459 7.75584L6.09182 7.26977C5.99605 7.24667 5.89666 7.24267 5.79934 7.25799L5.8771 7.75191ZM5.97459 7.75584C6.00652 7.76354 6.03662 7.77745 6.06316 7.79678L6.35752 7.39261C6.27788 7.33461 6.1876 7.29287 6.09182 7.26977L5.97459 7.75584ZM6.0633 7.79688L8.8133 9.79688L9.10738 9.39251L6.35738 7.39251L6.0633 7.79688ZM8.81327 9.79686C8.84516 9.82006 8.8711 9.85046 8.88899 9.8856L9.33456 9.65874C9.2809 9.55333 9.20306 9.46211 9.10741 9.39253L8.81327 9.79686ZM8.88899 9.8856C8.90688 9.92074 8.91621 9.95961 8.91621 9.99903H9.41621C9.41621 9.88075 9.38823 9.76414 9.33456 9.65874L8.88899 9.8856ZM8.91621 9.99903C8.91621 10.0385 8.90688 10.0773 8.88899 10.1125L9.33456 10.3393C9.38823 10.2339 9.41621 10.1173 9.41621 9.99903H8.91621ZM8.88899 10.1125C8.8711 10.1476 8.84516 10.178 8.81327 10.2012L9.10741 10.6055C9.20306 10.536 9.2809 10.4447 9.33456 10.3393L8.88899 10.1125ZM8.8133 10.2012L6.0633 12.2012L6.35738 12.6055L9.10738 10.6055L8.8133 10.2012ZM6.06693 12.1986C6.01324 12.2362 5.94695 12.2512 5.88231 12.2404L5.7999 12.7336C5.99382 12.766 6.19272 12.7209 6.35376 12.6081L6.06693 12.1986ZM5.88231 12.2404C5.81767 12.2296 5.75985 12.1938 5.72131 12.1408L5.31691 12.4349C5.43254 12.5939 5.60598 12.7012 5.7999 12.7336L5.88231 12.2404ZM5.72131 12.1408C5.68277 12.0878 5.66658 12.0218 5.67624 11.957L5.18169 11.8833C5.15273 12.0778 5.20129 12.2759 5.31691 12.4349L5.72131 12.1408ZM5.67624 11.957C5.68589 11.8922 5.72061 11.8337 5.77292 11.7943L5.47176 11.3951C5.31481 11.5136 5.21065 11.6889 5.18169 11.8833L5.67624 11.957ZM5.7694 11.7969L7.27607 10.7009L6.98194 10.2965L5.47528 11.3925L5.7694 11.7969ZM7.12901 10.2487H1.33301V10.7487H7.12901V10.2487ZM1.33301 10.2487C1.2667 10.2487 1.20311 10.2224 1.15623 10.1755L0.802678 10.529C0.94333 10.6697 1.1341 10.7487 1.33301 10.7487V10.2487ZM1.15623 10.1755C1.10935 10.1286 1.08301 10.065 1.08301 9.9987H0.583008C0.583008 10.1976 0.662025 10.3884 0.802678 10.529L1.15623 10.1755ZM1.08301 9.9987C1.08301 9.93239 1.10935 9.86881 1.15623 9.82192L0.802678 9.46837C0.662026 9.60902 0.583008 9.79979 0.583008 9.9987H1.08301ZM1.15623 9.82192C1.20312 9.77504 1.2667 9.7487 1.33301 9.7487V9.2487C1.1341 9.2487 0.94333 9.32772 0.802678 9.46837L1.15623 9.82192ZM1.33301 9.7487H7.12901V9.2487H1.33301V9.7487ZM7.27601 9.29649L5.76935 8.20115L5.47534 8.60558L6.982 9.70091L7.27601 9.29649ZM5.76921 8.20105C5.74263 8.18176 5.72011 8.15741 5.70294 8.12941L5.27667 8.39074C5.32818 8.47475 5.39573 8.54779 5.47547 8.60568L5.76921 8.20105ZM5.70294 8.12941C5.68577 8.10141 5.67429 8.07029 5.66915 8.03785L5.17531 8.11608C5.19073 8.2134 5.22517 8.30674 5.27667 8.39074L5.70294 8.12941ZM5.66915 8.03785C5.66401 8.00541 5.66532 7.97227 5.67299 7.94034L5.18683 7.82353C5.16381 7.91934 5.15989 8.01875 5.17531 8.11608L5.66915 8.03785ZM5.67299 7.94034C5.68067 7.9084 5.69456 7.87829 5.71387 7.85172L5.30947 7.55768C5.25152 7.63738 5.20985 7.72771 5.18683 7.82353L5.67299 7.94034Z" fill="#2F80ED" mask="url(#path-1-outside-1_143_2219)"/>
</g>
<defs>
<clipPath id="clip0_143_2219">
<rect width="16" height="16" fill="white"/>
</clipPath>
</defs>
</svg>
