<svg width="23" height="27" viewBox="0 0 23 27" fill="none" xmlns="http://www.w3.org/2000/svg">
<path d="M16.2421 16.1831C15.5028 15.968 14.9874 15.4659 14.7043 14.6981C15.959 13.8248 16.994 12.4791 17.5348 10.8844C18.3839 10.5975 18.7514 9.70312 19.026 8.775C19.3091 7.80047 19.0387 7.25625 18.7599 6.97359C18.6036 6.81328 18.405 6.69094 18.1769 6.62344C18.1347 4.69547 17.5432 3.13453 16.4195 1.99125C14.5945 0.126562 12.0133 0.00421875 11.4725 0C11.1684 0 8.46889 0.0548436 6.57629 1.98281C5.44833 3.13031 4.86112 4.69125 4.81465 6.61922C4.58652 6.68672 4.39219 6.80906 4.23166 6.96938C3.95284 7.25625 3.68247 7.80047 3.96974 8.76656C4.22321 9.64828 4.5992 10.5806 5.45678 10.8802C5.9933 12.4748 7.02831 13.8206 8.28301 14.6939C8.06333 15.293 7.6282 15.9258 6.74527 16.1831C2.68548 17.3728 0.353524 20.0306 0.00288637 23.8781C-0.0224609 24.1312 0.121174 24.3802 0.353524 24.4814C4.03311 26.152 7.78028 27 11.4979 27C15.2155 27 18.9627 26.152 22.6465 24.4856C22.8788 24.3802 23.0225 24.1355 22.9971 23.8823C22.638 20.0306 20.3061 17.3686 16.2421 16.1831ZM6.50869 10.1967C6.4411 9.95625 6.22142 9.78328 5.97218 9.76219C5.82432 9.74953 5.50748 9.72422 5.13149 8.43328C5.02165 8.07047 5.05545 7.86375 5.09769 7.81734C5.12727 7.78781 5.19063 7.77094 5.254 7.77094H5.2709C5.31737 7.78781 5.36807 7.79203 5.41876 7.79203C5.53282 7.79203 5.64266 7.75406 5.7356 7.69078L5.77785 7.66969C5.78207 7.66547 5.79052 7.66547 5.79474 7.66125C5.84966 7.61484 5.90036 7.56 5.92993 7.49672C5.95528 7.45453 5.97218 7.41234 5.98907 7.37016C5.9933 7.36594 5.99752 7.3575 5.99752 7.35328C5.99752 7.34906 5.99752 7.34484 6.00175 7.34062C6.06512 7.20562 6.11159 7.06219 6.13271 6.91031C6.13693 6.87234 6.14538 6.83859 6.14961 6.80063C6.24255 6.28172 6.70725 4.58156 8.86177 4.58156C9.35604 4.58156 9.90523 4.67016 10.5009 4.84734C10.8051 4.93594 11.1219 4.98234 11.4514 4.98234C11.7725 4.98234 12.0935 4.93594 12.4019 4.84734C12.9934 4.67016 13.5468 4.58156 14.0368 4.58156C16.1956 4.58156 16.6603 6.2775 16.749 6.80063C16.749 6.80484 16.749 6.80484 16.7532 6.80906C16.7912 7.03266 16.8757 7.23516 16.994 7.41656V7.42078L16.9983 7.41656C17.0025 7.42078 17.0025 7.425 17.0109 7.42922V7.43344C17.0152 7.44188 17.0236 7.44609 17.0278 7.45453C17.0405 7.47563 17.0447 7.50094 17.0616 7.52203C17.0954 7.57266 17.1377 7.62328 17.1884 7.66125C17.2053 7.67391 17.2264 7.68234 17.2433 7.69078C17.2517 7.695 17.2559 7.70344 17.2602 7.70766C17.2644 7.70766 17.2686 7.71188 17.2728 7.71609L17.3278 7.73719C17.3489 7.74563 17.3658 7.75406 17.3869 7.7625L17.3996 7.76672L17.3954 7.7625C17.5032 7.79865 17.6195 7.80159 17.7291 7.77094C17.7882 7.77094 17.8558 7.79203 17.8812 7.81734C17.9277 7.86375 17.9572 8.07047 17.8516 8.4375C17.4714 9.72844 17.1588 9.75375 17.0067 9.76219C16.7532 9.78328 16.5378 9.95625 16.466 10.2009C15.7774 12.6816 13.6313 14.5589 11.4979 14.5589C10.7332 14.5589 9.96438 14.3142 9.2631 13.8881C9.25888 13.8839 9.25465 13.8839 9.25043 13.8797C8.00419 13.1203 6.96495 11.783 6.50869 10.1967ZM11.4979 19.7142C9.45321 19.7142 7.61553 18.9 6.33971 17.588C6.58051 17.4994 6.83398 17.4192 7.09168 17.3433C8.13937 17.0395 8.91669 16.3181 9.35182 15.2888C10.0404 15.5967 10.7713 15.7655 11.5021 15.7655C12.233 15.7655 12.9554 15.5925 13.644 15.2888C13.9904 16.1198 14.6494 16.9762 15.9083 17.3391C16.166 17.415 16.411 17.4952 16.6561 17.5838C15.3802 18.9 13.5383 19.7142 11.4979 19.7142Z" fill="#005982"/>
</svg>
