<svg width="20" height="20" viewBox="0 0 20 20" fill="none" xmlns="http://www.w3.org/2000/svg">
<g id="Checklist" clip-path="url(#clip0_6170_19180)">
<path id="Vector" d="M14.7647 10.1178C12.1765 10.1178 10.1177 12.1766 10.1177 14.7648C10.1177 17.3531 12.1765 19.4119 14.7647 19.4119C17.2941 19.4119 19.4118 17.3531 19.4118 14.7648C19.353 12.1766 17.2941 10.1178 14.7647 10.1178ZM16.8824 13.9413L14.5294 16.2942C14.4118 16.4119 14.2353 16.4707 14.1177 16.4707C14 16.4707 13.8236 16.4119 13.7059 16.2942L12.5294 15.1178C12.2941 14.8825 12.2941 14.5295 12.5294 14.2942C12.7647 14.0589 13.1177 14.0589 13.353 14.2942L14.1177 15.0589L16.0589 13.1178C16.2941 12.8825 16.6471 12.8825 16.8824 13.1178C17.1177 13.3531 17.1177 13.706 16.8824 13.9413Z" fill="white"/>
<path id="Vector_2" d="M12.4117 0.588348H2.41168C1.41168 0.588348 0.646973 1.41188 0.646973 2.35305V16.4707C0.646973 17.4707 1.41168 18.2354 2.41168 18.2354H10.0587C9.35286 17.2942 8.88227 16.0589 8.88227 14.7648C8.88227 14.5295 8.88227 14.3531 8.94109 14.1178H3.58815C3.23521 14.1178 2.99991 13.8825 2.99991 13.5295C2.99991 13.2354 3.23521 12.9413 3.58815 12.9413H9.23521C9.35285 12.5295 9.52933 12.1178 9.76462 11.7648H3.58815C3.23521 11.7648 2.99991 11.5295 2.99991 11.1766C2.99991 10.8825 3.23521 10.5883 3.58815 10.5883H10.7058C11.647 9.70599 12.8234 9.11776 14.1764 8.94129V2.35305C14.1764 1.41188 13.3529 0.588348 12.4117 0.588348ZM3.58815 3.52952H8.29403C8.58815 3.52952 8.88227 3.82364 8.88227 4.11776C8.88227 4.4707 8.58815 4.706 8.29403 4.706H3.58815C3.23521 4.706 2.99991 4.4707 2.99991 4.11776C2.99991 3.82364 3.23521 3.52952 3.58815 3.52952ZM11.2352 9.41188H3.58815C3.23521 9.41188 2.99991 9.17658 2.99991 8.82364C2.99991 8.52952 3.23521 8.23541 3.58815 8.23541H11.2352C11.5293 8.23541 11.8234 8.52952 11.8234 8.82364C11.8234 9.17658 11.5293 9.41188 11.2352 9.41188ZM11.2352 7.05894H3.58815C3.23521 7.05894 2.99991 6.82364 2.99991 6.4707C2.99991 6.17658 3.23521 5.88247 3.58815 5.88247H11.2352C11.5293 5.88247 11.8234 6.17658 11.8234 6.4707C11.8234 6.82364 11.5293 7.05894 11.2352 7.05894Z" fill="white"/>
</g>
<defs>
<clipPath id="clip0_6170_19180">
<rect width="20" height="20" fill="white"/>
</clipPath>
</defs>
</svg>
